<?xml version="1.0" encoding="UTF-8"?>
<!-- Uploaded to: SVG Find, www.svgrepo.com, Generator: SVG Find Mixer Tools -->
<svg fill="#000000" width="800px" height="800px" version="1.1" viewBox="144 144 512 512" xmlns="http://www.w3.org/2000/svg">
 <path d="m412.14 247.08c24.613-31.961 59.285-41.695 87.574-25.363 28.633 16.531 37.984 52.168 22.051 87.988-19.492 43.824-31.91 77.191-34.445 123.43-0.42188 7.6836-0.71484 14.562-0.98047 20.816-1.3047 30.645-1.9648 46.246-13.996 67.082-34.781 60.238-111.81 80.883-172.05 46.102-60.242-34.781-80.883-111.81-46.102-172.05 12.133-21.016 25.414-29.434 51.754-46.125 5.0938-3.2266 10.676-6.7656 16.836-10.766 38.426-24.949 59.98-52.949 87.953-89.277zm108.57-61.723c-52.035-30.043-108.7-6.918-141.83 36.105-29.082 37.766-46.742 60.59-78.961 81.512-5.0742 3.293-10.023 6.3984-14.84 9.418-26.805 16.805-49.574 31.082-67.246 61.691-46.375 80.32-18.852 183.03 61.469 229.41 80.324 46.371 183.03 18.852 229.41-61.469 17.566-30.422 18.574-57.242 19.75-88.531v-0.003907c0.21875-5.8438 0.44531-11.848 0.78516-18.055 2.1172-38.527 12.039-66.293 30.887-108.66 22.406-50.367 12.27-111.57-39.418-141.41zm-191.34 247.44c6.25-10.82 19.363-22.801 34.379-29.996 15.57-7.4609 27.203-7.168 33.469-3.5508 6.2656 3.6172 12.336 13.547 13.66 30.762 1.2773 16.602-2.5391 33.949-8.7891 44.77-11.594 20.082-37.27 26.961-57.352 15.371-20.078-11.594-26.961-37.273-15.367-57.355zm88.84-69.902c-23.855-13.777-51.789-7.9258-72.602 2.0469-21.367 10.234-41.457 27.566-52.598 46.863-23.188 40.164-9.4258 91.516 30.734 114.7 40.164 23.188 91.516 9.4297 114.7-30.734 11.141-19.297 16.105-45.359 14.293-68.984-1.7734-23.008-10.676-50.125-34.531-63.895z" fill-rule="evenodd"/>
</svg>