<?xml version="1.0" encoding="UTF-8"?>
<svg version="1.1" viewBox="0 0 1080 1080" width="1280" height="1280" xmlns="http://www.w3.org/2000/svg">
<path transform="translate(459,56)" d="m0 0h18l23 3 26 6 33 11 50 19 23 7 23 5 30 4 31 2 64 2 30 2 26 4 25 7 21 9 18 11 13 10 13 12 11 12 10 13 10 15 11 18 11 23 6 18 5 22 2 19v29l-3 25-7 30-8 26-12 34-9 25-7 22-4 22-1 25v3l4 2 16 15 10 10 7 8 11 13 9 15 8 17 6 21 6 29 2 19v15l-3 22-2 8 1 5 15 25 10 21 4 13 2 10v27l-5 21-10 25-11 24-8 16-8 14-12 18-12 16-19 19-15 11-14 8-16 7-16 5-18 3-9 1h-27l-23-3-26-6-26-9-27-12-7-3h-2l-2 4-8 9-9 11-11 12-12 10-14 9-17 8-15 5-15 3-8 1h-15l-21-2-22-5-24-8-23-10-58-28-26-10-28-8-36-7-39-5-49-6-31-6-21-6-21-9-18-10-13-10-12-11-10-10-13-17-11-17-13-25-8-20-5-16-5-25-1-9v-36l4-25 6-23 9-26 10-23 28-60 1-4-11-10-8-7-21-21-10-15-8-15-9-25-7-26-3-20v-25l3-17 5-17 11-25 10-21 8-14-2-6-11-22-8-20-4-15-2-15v-12l2-14 7-21 12-24 13-23 18-27 11-14 9-10 7-8 8-8 13-10 14-9 19-9 20-6 21-3h29l17 2 22 5 24 8 21 9 7-4 14-9 21-10 19-5z" fill="#C9D498"/>
</svg>
