<svg xmlns="http://www.w3.org/2000/svg" xmlns:xlink="http://www.w3.org/1999/xlink" width="1122" zoomAndPan="magnify" viewBox="0 0 841.92 1190.250009" height="1587" preserveAspectRatio="xMidYMid meet" version="1.0"><defs><filter x="0%" y="0%" width="100%" height="100%" id="855b1e1d30"><feColorMatrix values="0 0 0 0 1 0 0 0 0 1 0 0 0 0 1 0 0 0 1 0" color-interpolation-filters="sRGB"/></filter><mask id="f6e13e1140"><g filter="url(#855b1e1d30)"><rect x="-84.192" width="1010.304" fill="#000000" y="-119.025001" height="1428.30001" fill-opacity="0.25"/></g></mask><clipPath id="5bb9f89abb"><path d="M 1 1.359375 L 694.5 1.359375 L 694.5 726.152344 L 1 726.152344 Z M 1 1.359375 " clip-rule="nonzero"/></clipPath><clipPath id="3dacf9a675"><rect x="0" width="695" y="0" height="727"/></clipPath></defs><g mask="url(#f6e13e1140)"><g transform="matrix(1, 0, 0, 1, 73, 231)"><g clip-path="url(#3dacf9a675)"><g clip-path="url(#5bb9f89abb)"><path fill="#616431" d="M 168.007812 649.867188 C 122.574219 679.121094 77.605469 702.59375 36.15625 717.289062 C 27.238281 720.449219 18.632812 723.851562 9.914062 725.503906 C 7.585938 725.945312 5.308594 725.996094 2.992188 726.207031 C 2.164062 726.414062 1.320312 725.910156 1.105469 725.078125 C 0.898438 724.246094 1.40625 723.402344 2.234375 723.195312 C 4.347656 722.292969 6.320312 721.222656 8.511719 720.417969 C 16.722656 717.425781 25.527344 715.261719 34.289062 712.085938 C 46.621094 707.609375 59.261719 702.34375 72.132812 696.378906 C 82.152344 686.433594 92.757812 677.289062 101.78125 666.683594 C 101.347656 666.160156 101.332031 665.386719 101.777344 664.835938 C 102.371094 663.988281 102.960938 663.148438 103.585938 662.335938 C 104.632812 660.082031 105.488281 657.792969 106.367188 655.515625 C 107.976562 651.339844 109.453125 647.160156 110.511719 642.84375 C 112.15625 636.105469 113.089844 629.167969 113.960938 622.1875 C 115.285156 611.597656 116.425781 600.90625 118.980469 590.617188 C 120.117188 586.027344 121.472656 581.53125 122.941406 577.078125 C 126.335938 566.785156 130.328125 556.726562 133.550781 546.3125 C 136.347656 537.203125 137.261719 527.632812 140.015625 518.574219 C 141.230469 514.574219 142.792969 510.667969 145 506.933594 C 148.878906 500.371094 153.359375 494.410156 158.179688 488.757812 C 165.347656 480.367188 173.265625 472.644531 181.023438 464.515625 C 191.035156 454.125 200.042969 442.738281 209.785156 432.070312 C 212.242188 429.378906 214.75 426.730469 217.328125 424.148438 C 221.425781 420.0625 225.582031 416.195312 227.703125 414.808594 C 228.5 414.285156 229.15625 414.054688 229.5625 414.003906 C 230.507812 413.894531 231.125 414.277344 231.519531 414.828125 C 235.507812 420.242188 234.796875 429.503906 231.464844 439.957031 C 225.476562 458.722656 211.441406 481.570312 207.21875 491.164062 C 204.886719 496.410156 202.816406 501.746094 200.859375 507.117188 C 196.230469 519.828125 192.257812 532.75 187.214844 545.3125 C 183.707031 553.957031 179.789062 562.230469 175.628906 570.34375 C 169.390625 582.484375 162.597656 594.257812 155.824219 606.390625 C 153.460938 610.621094 151.550781 615.148438 149.304688 619.464844 C 148.296875 621.398438 147.226562 623.296875 146.023438 625.105469 C 142.597656 630.257812 138.597656 634.75 134.296875 638.902344 C 127.738281 645.238281 120.648438 650.929688 113.894531 657.074219 C 109.6875 662.945312 105.121094 668.496094 100.265625 673.792969 C 94.828125 679.722656 89.257812 685.625 83.25 691.074219 C 119.363281 673.386719 157.082031 650.453125 194.730469 624.105469 C 226.027344 602.207031 257.296875 577.984375 287.507812 552.371094 C 288.628906 550.902344 289.746094 549.421875 290.859375 547.941406 C 302.28125 532.769531 312.878906 517.203125 321.625 500.617188 C 322.90625 498.1875 324.148438 495.738281 325.351562 493.269531 C 326.414062 488.429688 326.820312 483.613281 326.902344 478.808594 C 327.078125 468.996094 325.773438 459.210938 325.050781 449.34375 C 324.558594 442.675781 324.378906 435.972656 325.050781 429.214844 C 325.800781 421.65625 327.605469 414.253906 328.726562 406.75 C 329 404.925781 329.230469 403.089844 329.394531 401.25 C 330.6875 386.667969 329.890625 371.769531 331.113281 357.128906 C 331.648438 350.726562 332.570312 344.371094 334.1875 338.109375 C 336.585938 328.859375 340.371094 319.898438 344.777344 311.140625 C 351.242188 298.28125 359.027344 285.863281 365.449219 273.550781 C 368.363281 268.015625 371.15625 262.367188 373.863281 256.675781 C 377.933594 248.121094 381.816406 239.449219 385.679688 230.875 C 386.046875 230.054688 388.277344 223.625 390.214844 220.234375 C 391.332031 218.28125 392.730469 217.3125 393.566406 217.289062 C 396.226562 217.167969 398.523438 218.925781 400.269531 221.75 C 403.15625 226.410156 404.628906 234.0625 404.980469 237.078125 C 405.890625 244.988281 406.140625 252.9375 405.976562 260.890625 C 405.722656 272.726562 404.527344 284.5625 403.472656 296.292969 C 402.097656 311.507812 400.898438 326.90625 398.519531 342.089844 C 396.921875 352.289062 394.78125 362.382812 391.769531 372.269531 C 390.113281 377.660156 388.246094 382.921875 386.253906 388.117188 C 381.628906 400.175781 376.34375 411.878906 371.664062 424.039062 C 367.625 434.519531 364.417969 445.488281 360.066406 455.917969 C 358.167969 460.472656 356.050781 464.925781 353.570312 469.199219 C 351.273438 473.125 348.496094 476.59375 345.429688 479.804688 C 341.269531 484.167969 336.6875 488.132812 332.375 492.382812 C 330.890625 493.847656 329.421875 495.332031 328.023438 496.890625 C 325.042969 502.828125 321.828125 508.632812 318.40625 514.332031 C 312.769531 523.707031 306.609375 532.800781 300.007812 541.644531 C 358.980469 490.433594 413.351562 434.449219 455.453125 381.4375 C 458.957031 374.136719 462.179688 366.75 465.316406 359.335938 C 468.453125 351.765625 471.386719 344.125 474.078125 336.433594 C 473.914062 335.890625 474.363281 335.328125 474.527344 334.777344 C 475.871094 328.84375 476.074219 323.046875 475.628906 317.316406 C 474.445312 301.976562 468.738281 287.078125 467.679688 271.324219 C 467.433594 267.523438 467.558594 263.699219 467.84375 259.867188 C 468.535156 251.183594 470.125 242.453125 470.695312 233.882812 C 471.46875 222.011719 471.386719 210.050781 470.492188 198.152344 C 469.59375 186.246094 467.882812 174.398438 465.355469 162.78125 C 462.464844 149.308594 457.613281 135.191406 455.085938 121.117188 C 453.984375 114.898438 453.332031 108.6875 453.496094 102.542969 C 453.578125 99.558594 453.496094 95.304688 454.109375 91.429688 C 454.554688 88.550781 455.371094 85.878906 456.878906 83.949219 C 458.875 81.398438 461.933594 81.78125 465.113281 84.039062 C 469.839844 87.371094 475.097656 94.832031 476.117188 96.484375 C 481.007812 104.265625 485.121094 112.648438 488.789062 121.292969 C 494.210938 134.09375 498.613281 147.460938 503.175781 160.199219 C 509.738281 178.703125 513.449219 198.007812 513.976562 217.382812 C 514.507812 236.765625 511.859375 256.214844 505.703125 275.011719 C 503.910156 280.222656 501.792969 285.261719 499.46875 290.195312 C 494.742188 300.117188 489.523438 309.800781 484.429688 319.558594 C 480.3125 333.640625 475.136719 347.464844 468.78125 360.894531 C 467.230469 364.160156 465.601562 367.398438 463.929688 370.601562 C 484.429688 343.914062 501.628906 318.128906 514.546875 294.261719 C 529.136719 267.328125 539.898438 238.585938 548.90625 209.121094 C 550.128906 202.148438 550.941406 194.773438 551.429688 187.371094 C 552.125 176.78125 552.125 166.136719 551.675781 156.515625 C 551.390625 149.921875 550.535156 143.390625 550.167969 136.816406 C 550.003906 133.949219 549.964844 131.066406 550.046875 128.171875 C 550.167969 124.589844 550.699219 121 551.429688 117.425781 C 553.101562 109.40625 555.914062 101.441406 557.75 93.648438 C 558.6875 89.601562 559.460938 85.519531 560.195312 81.414062 C 561.90625 71.78125 563.210938 62.03125 564.839844 52.425781 C 566.101562 44.902344 567.324219 37.394531 568.835938 29.941406 C 569.851562 24.957031 571.035156 19.996094 572.339844 15.054688 C 573.277344 11.503906 574.988281 6.128906 575.84375 3.746094 C 576.089844 3.125 576.25 2.683594 576.332031 2.480469 C 576.902344 1.339844 577.921875 1.417969 578.125 1.441406 C 580.488281 1.691406 582.691406 3.035156 584.605469 4.894531 C 587.132812 7.316406 589.171875 10.640625 590.476562 13.042969 C 593.816406 19.285156 596.34375 25.902344 598.179688 32.730469 C 599.929688 39.53125 600.988281 46.53125 601.480469 53.542969 C 602.171875 64.003906 600.746094 79.074219 598.054688 93.980469 C 595.445312 108.722656 591.574219 123.300781 587.664062 133.125 C 586.238281 136.628906 584.441406 139.9375 582.445312 143.132812 C 579.550781 147.785156 576.292969 152.203125 573.4375 156.835938 C 569.933594 162.503906 566.632812 168.949219 563.820312 175.601562 C 562.722656 178.207031 561.703125 180.84375 560.804688 183.480469 C 558.929688 190.421875 557.015625 197.34375 554.976562 204.230469 C 555.386719 203.40625 555.75 202.589844 556.117188 201.769531 C 559.582031 192.214844 562.84375 182.707031 566.675781 173.40625 C 569.28125 167.050781 572.136719 160.792969 575.519531 154.671875 C 577.105469 151.84375 578.820312 149.136719 580.613281 146.5 C 584.769531 140.441406 589.375 134.746094 593.652344 128.71875 C 597.8125 122.84375 602.050781 116.753906 606.574219 110.953125 C 609.671875 107.03125 612.851562 103.238281 616.230469 99.722656 C 618.1875 97.6875 620.265625 95.730469 622.386719 93.816406 C 627.234375 89.460938 632.371094 85.324219 637.058594 80.921875 C 639.625 78.535156 642.234375 76.25 644.761719 73.855469 C 646.390625 72.300781 647.980469 70.699219 649.449219 68.996094 C 652.953125 65.113281 655.96875 60.777344 659.390625 56.796875 C 660.898438 55.019531 662.53125 53.308594 664.28125 51.734375 C 665.136719 50.96875 669.539062 47.09375 672.597656 45.667969 C 674.347656 44.835938 675.898438 44.855469 676.792969 45.394531 C 676.835938 45.410156 677.691406 45.847656 677.773438 47.136719 C 677.773438 47.324219 677.8125 47.71875 677.8125 48.261719 C 677.9375 51.257812 678.179688 58.726562 678.140625 59.386719 C 677.730469 67.394531 676.386719 74.863281 674.144531 82.042969 C 671.902344 89.207031 668.726562 96.09375 664.566406 102.964844 C 660.820312 109.148438 656.171875 115.195312 651.039062 120.777344 C 645.902344 126.34375 640.238281 131.445312 634.492188 135.796875 C 628.703125 140.164062 622.386719 143.863281 616.394531 147.960938 C 613.867188 149.675781 611.421875 151.460938 609.101562 153.40625 C 606.246094 155.777344 603.761719 158.429688 601.4375 161.214844 C 595.734375 168.007812 591.003906 175.539062 584.648438 181.839844 C 579.511719 186.910156 574.417969 191.089844 569.609375 195.539062 C 567.53125 197.460938 565.492188 199.410156 563.578125 201.558594 C 561.007812 204.433594 558.644531 207.601562 556.566406 211.414062 C 556.445312 211.617188 556.28125 211.769531 556.117188 211.867188 C 554.367188 214.757812 552.777344 217.699219 551.351562 220.730469 C 549.515625 224.574219 547.84375 228.503906 546.175781 232.4375 C 538.675781 254.539062 529.871094 276.074219 518.867188 296.59375 C 516.832031 300.429688 514.671875 304.316406 512.386719 308.25 C 517.035156 303.019531 521.925781 297.945312 526.976562 293.019531 C 529.789062 287.613281 532.398438 281.980469 535.414062 276.730469 C 537.492188 273.105469 539.777344 269.679688 542.464844 266.625 C 544.910156 263.882812 547.601562 261.414062 550.453125 259.132812 C 556.933594 253.996094 564.1875 249.738281 570.382812 244.308594 C 576.292969 239.175781 581.589844 233.671875 587.785156 229.371094 C 591.984375 226.460938 596.546875 224.089844 601.96875 222.742188 C 606.613281 221.574219 611.382812 220.914062 616.109375 219.914062 C 618.066406 219.488281 620.023438 219.007812 621.9375 218.402344 C 623.078125 218.046875 624.179688 217.648438 625.28125 217.222656 C 629.804688 215.476562 634.125 213.28125 638.730469 211.699219 C 640.890625 210.949219 645.25 209.007812 647.613281 209.679688 C 649.121094 210.105469 650.261719 211.261719 650.097656 213.972656 C 649.816406 218.421875 647.410156 222.988281 643.78125 227.316406 C 636.609375 235.96875 624.710938 243.726562 618.390625 248.613281 C 609.875 255.128906 601.234375 262.613281 592.144531 269.167969 C 585.953125 273.648438 579.511719 277.695312 572.828125 280.753906 C 564.878906 284.335938 545.765625 291.433594 531.296875 298.75 C 526.082031 301.382812 521.558594 304.117188 518.257812 306.578125 C 517.929688 306.824219 517.605469 307.0625 517.320312 307.296875 C 512.183594 312.886719 507.292969 318.625 502.6875 324.351562 C 483.738281 354.441406 459.324219 386.742188 431 419.53125 C 437.316406 414.050781 443.796875 408.75 450.441406 403.777344 C 455.859375 399.746094 461.363281 395.90625 467.070312 392.367188 C 472.9375 386.796875 478.765625 381.078125 484.917969 375.824219 C 489.726562 371.769531 494.699219 367.992188 500.121094 364.746094 C 504.847656 361.902344 509.902344 359.621094 515.117188 357.675781 C 526.9375 353.273438 539.652344 350.539062 551.226562 346.0625 C 553.875 345.03125 556.484375 343.882812 559.09375 342.65625 C 569.609375 337.664062 579.59375 331.457031 590.351562 326.933594 C 599.808594 322.960938 609.507812 320.097656 618.921875 316.199219 C 622.835938 314.574219 626.664062 312.777344 630.414062 310.613281 C 636.121094 307.339844 641.621094 303.90625 647.042969 300.359375 C 655.234375 295.007812 663.183594 289.402344 671.210938 283.683594 C 673.328125 282.171875 677.855469 279.570312 682.175781 278 C 685.554688 276.761719 688.859375 276.253906 691.097656 277.117188 C 693.015625 277.8125 693.992188 279.390625 694.359375 281.378906 C 694.890625 284.539062 693.382812 288.964844 692.609375 290.898438 C 690.9375 295.015625 688.734375 298.769531 686.25 302.292969 C 682.539062 307.492188 678.140625 312.175781 673.574219 316.773438 C 657.679688 332.65625 641.867188 347.367188 624.015625 359.316406 C 612.074219 367.308594 599.238281 374.042969 584.933594 379.171875 C 576.496094 382.117188 567.691406 384.316406 558.765625 385.96875 C 545.5625 388.414062 532.03125 389.683594 518.867188 390.574219 C 512.714844 390.992188 506.195312 390.8125 499.714844 390.746094 C 495.515625 390.707031 491.316406 390.683594 487.242188 391.046875 C 484.023438 391.328125 480.925781 391.910156 477.867188 392.664062 C 477.257812 393.003906 476.644531 393.34375 476.035156 393.6875 C 468.332031 398.019531 460.832031 402.832031 453.578125 408.050781 C 433.851562 422.222656 415.71875 439.144531 398.636719 455.441406 C 367.121094 489.003906 332.199219 522.410156 295.625 553.828125 C 289.8125 558.820312 283.964844 563.761719 278.074219 568.640625 C 278.035156 568.695312 277.988281 568.746094 277.945312 568.792969 C 277.808594 568.960938 277.640625 569.078125 277.460938 569.15625 C 251.597656 590.589844 225.078125 610.90625 198.460938 629.449219 C 197.882812 629.851562 197.296875 630.257812 196.71875 630.660156 C 206.496094 626.261719 216.296875 622.390625 226.195312 618.953125 C 238.125 614.808594 250.199219 611.308594 262.488281 608.214844 C 263.015625 607.8125 263.726562 607.691406 264.332031 607.414062 C 273.886719 603.09375 283.34375 598.78125 292.175781 593.039062 C 297.972656 589.277344 303.335938 584.90625 309.183594 581.269531 C 311.761719 579.664062 314.441406 578.195312 317.277344 576.972656 C 321.207031 575.273438 325.257812 573.917969 329.375 572.757812 C 338.742188 570.125 348.453125 568.53125 357.828125 566.0625 C 367.863281 563.53125 377.484375 560.433594 387.359375 558.148438 C 394.007812 556.605469 400.769531 555.429688 407.808594 555.011719 C 418.652344 554.320312 429.613281 555.585938 440.457031 557.988281 C 456.429688 561.535156 472.164062 567.570312 486.671875 573.457031 C 497.390625 577.820312 508.230469 582.054688 519.152344 586.136719 C 530.035156 590.21875 541 594.148438 552.003906 597.800781 C 555.386719 598.921875 573.519531 603.488281 582.648438 607.792969 C 585.910156 609.328125 588.109375 611.019531 588.722656 612.414062 C 589.210938 613.617188 589.089844 614.769531 588.191406 615.859375 C 585.460938 619.128906 581.550781 621.109375 577.230469 622.292969 C 571.28125 623.910156 564.554688 624.003906 559.257812 624.15625 C 555.507812 624.261719 551.757812 624.308594 548.007812 624.308594 C 533.132812 624.300781 518.214844 623.636719 503.300781 624.066406 C 483.371094 624.550781 463.6875 626.859375 443.878906 628.015625 C 435.359375 628.511719 426.800781 628.796875 418.164062 628.636719 C 411.398438 628.507812 404.667969 628.007812 397.976562 627.296875 C 382.488281 625.660156 367.164062 622.902344 351.625 621.179688 C 348.101562 620.789062 344.558594 620.636719 341.011719 620.589844 C 332.558594 620.464844 324.0625 620.960938 315.628906 620.671875 C 303.214844 620.183594 291.632812 614.992188 279.574219 612.648438 C 276.515625 612.054688 273.429688 611.746094 270.273438 611.625 C 261.519531 613.746094 252.878906 616.035156 244.3125 618.546875 C 219.964844 625.6875 196.269531 634.746094 172.210938 647.355469 C 170.78125 648.105469 169.453125 649.132812 168.007812 649.867188 Z M 122.113281 644.308594 C 125.25 641.570312 128.371094 638.804688 131.320312 635.871094 C 135.34375 631.867188 139.125 627.589844 142.328125 622.671875 C 143.433594 620.984375 144.410156 619.21875 145.332031 617.414062 C 147.566406 613.039062 149.460938 608.457031 151.8125 604.167969 C 158.476562 592.035156 165.152344 580.257812 171.285156 568.125 C 175.335938 560.121094 179.144531 551.964844 182.554688 543.4375 C 187.605469 530.9375 191.566406 518.066406 196.226562 505.421875 C 198.242188 499.953125 200.390625 494.523438 202.800781 489.1875 C 207.109375 479.714844 221.257812 457.1875 227.523438 438.667969 C 230.320312 430.371094 231.707031 422.957031 229.289062 418.117188 C 227.199219 419.640625 223.574219 423.128906 219.972656 426.777344 C 217.453125 429.332031 215.007812 431.957031 212.605469 434.628906 C 202.921875 445.398438 193.980469 456.882812 184.023438 467.382812 C 176.304688 475.449219 168.4375 483.113281 161.304688 491.429688 C 156.613281 496.894531 152.230469 502.636719 148.441406 508.980469 C 146.386719 512.425781 144.921875 516.03125 143.789062 519.726562 C 141.003906 528.785156 140.089844 538.355469 137.269531 547.460938 C 134.054688 557.898438 130.070312 567.992188 126.671875 578.304688 C 125.238281 582.671875 123.914062 587.070312 122.796875 591.5625 C 120.28125 601.710938 119.296875 612.269531 117.863281 622.699219 C 116.886719 629.816406 115.6875 636.863281 113.832031 643.699219 C 112.75 647.691406 111.554688 651.664062 109.816406 655.433594 C 110.582031 654.671875 111.359375 653.921875 112.140625 653.183594 C 115.53125 648.28125 118.667969 643.15625 121.488281 637.742188 C 123.425781 634.054688 125.207031 630.3125 126.855469 626.53125 C 127.957031 621.875 128.460938 617.335938 128.527344 612.800781 C 128.566406 610.128906 128.398438 607.457031 128.164062 604.75 C 127.9375 602.105469 127.699219 599.429688 127.199219 596.691406 C 127.050781 596.085938 127.421875 595.480469 128.027344 595.335938 C 128.628906 595.191406 129.238281 595.5625 129.378906 596.164062 C 130.214844 598.941406 130.933594 601.65625 131.3125 604.402344 C 131.707031 607.238281 131.769531 610.070312 131.644531 612.890625 C 131.617188 613.558594 131.570312 614.226562 131.519531 614.890625 C 132.714844 611.648438 133.835938 608.378906 134.90625 605.089844 C 136.394531 600.527344 137.773438 595.933594 139.09375 591.308594 C 140.796875 583.484375 143.621094 574.894531 144.945312 566.722656 C 145.726562 561.886719 146.027344 557.195312 145.0625 552.882812 C 144.949219 552.277344 144.714844 551.707031 144.425781 551.148438 C 143.644531 549.644531 142.515625 548.242188 141.777344 546.792969 C 141.554688 546.414062 141.679688 545.925781 142.058594 545.703125 C 142.4375 545.480469 142.925781 545.609375 143.148438 545.988281 C 144.058594 547.351562 145.390625 548.605469 146.324219 550.042969 C 146.796875 550.761719 147.148438 551.535156 147.375 552.34375 C 147.800781 554.113281 148.046875 555.941406 148.140625 557.824219 C 151.144531 546.832031 154.367188 535.902344 158.367188 525.242188 C 160.421875 519.828125 163.117188 514.617188 166.171875 509.585938 C 170.679688 502.160156 175.933594 495.101562 180.628906 488.050781 C 180.933594 487.578125 181.566406 487.441406 182.035156 487.742188 C 182.507812 488.050781 182.648438 488.679688 182.339844 489.152344 C 177.898438 496.320312 172.976562 503.5625 168.660156 511.050781 C 165.8125 516.003906 163.210938 521.050781 161.285156 526.328125 C 159.429688 531.367188 157.746094 536.464844 156.179688 541.601562 C 157.390625 539.632812 158.640625 537.753906 159.898438 536.070312 C 161.476562 533.945312 163.082031 532.148438 164.511719 530.800781 C 169.21875 526.507812 174.890625 523.234375 179.871094 519.242188 C 181.097656 518.261719 182.285156 517.242188 183.398438 516.140625 C 183.660156 515.859375 184.109375 515.847656 184.394531 516.113281 C 184.675781 516.382812 184.6875 516.828125 184.421875 517.113281 C 182.820312 518.929688 181.050781 520.589844 179.1875 522.171875 C 174.984375 525.753906 170.363281 528.949219 166.535156 532.886719 C 165.238281 534.183594 163.859375 535.945312 162.382812 537.921875 C 160.53125 540.40625 158.585938 543.261719 156.742188 546.183594 C 155.445312 548.230469 154.199219 550.3125 153.074219 552.3125 C 148.886719 567.414062 145.332031 582.726562 140.921875 597.753906 C 141.234375 597.167969 141.550781 596.589844 141.871094 596.003906 C 143.953125 592.242188 146.351562 588.671875 149.03125 585.304688 C 149.917969 584.253906 150.921875 583.433594 152.035156 582.773438 C 154.246094 581.464844 156.8125 580.796875 158.992188 579.339844 C 160.117188 578.605469 161.167969 577.742188 162.183594 576.816406 C 163.769531 575.367188 165.269531 573.796875 166.800781 572.378906 C 167.082031 572.082031 167.558594 572.070312 167.855469 572.355469 C 168.152344 572.640625 168.167969 573.113281 167.882812 573.414062 C 166.523438 575.015625 165.222656 576.765625 163.808594 578.398438 C 162.816406 579.542969 161.769531 580.617188 160.625 581.558594 C 158.570312 583.234375 156.058594 584.183594 153.941406 585.699219 C 153.210938 586.21875 152.539062 586.832031 151.984375 587.609375 C 150.675781 589.363281 149.496094 591.199219 148.328125 593.039062 C 147.148438 594.898438 146.003906 596.78125 144.886719 598.679688 C 141.601562 604.261719 138.554688 610.007812 135.164062 615.527344 C 132.214844 623.679688 128.832031 631.683594 124.777344 639.460938 C 123.914062 641.101562 123.027344 642.714844 122.113281 644.308594 Z M 332.515625 487.417969 C 335.613281 484.136719 338.859375 480.996094 341.902344 477.675781 C 344.878906 474.425781 347.710938 471.039062 349.945312 467.109375 C 353.097656 461.59375 355.601562 455.773438 357.835938 449.828125 C 361.238281 440.761719 364.015625 431.414062 367.402344 422.414062 C 371.996094 410.222656 377.195312 398.488281 381.746094 386.402344 C 383.671875 381.300781 385.480469 376.136719 387.070312 370.839844 C 389.992188 361.175781 392.027344 351.289062 393.597656 341.3125 C 395.972656 326.238281 397.265625 310.957031 398.695312 295.847656 C 399.800781 284.222656 400.976562 272.492188 401.390625 260.761719 C 401.664062 253.003906 401.632812 245.238281 400.910156 237.503906 C 400.699219 235.140625 399.835938 229.625 397.988281 225.414062 C 396.976562 223.113281 395.84375 221.058594 394.058594 220.835938 C 394.019531 220.882812 393.976562 220.933594 393.945312 220.976562 C 391.992188 223.582031 389.429688 231.46875 389.035156 232.363281 C 385.253906 241.007812 381.441406 249.734375 377.449219 258.355469 C 374.773438 264.128906 372.019531 269.855469 369.132812 275.46875 C 362.746094 287.777344 355.027344 300.207031 348.582031 313.050781 C 344.316406 321.539062 340.613281 330.210938 338.277344 339.175781 C 336.710938 345.203125 335.828125 351.320312 335.300781 357.480469 C 334.050781 372.128906 334.808594 387.03125 333.488281 401.617188 C 333.3125 403.539062 333.066406 405.453125 332.777344 407.363281 C 331.648438 414.796875 329.839844 422.128906 329.074219 429.617188 C 328.410156 436.148438 328.632812 442.621094 329.042969 449.070312 C 329.679688 459.0625 330.878906 469 330.386719 478.925781 C 330.324219 480.25 330.230469 481.574219 330.09375 482.898438 C 334.5 472.605469 338.160156 461.917969 340.882812 450.722656 C 342.9375 442.511719 344.1875 434.339844 345.09375 426.148438 C 345.804688 419.660156 346.292969 413.167969 346.757812 406.640625 C 346.625 404.75 346.457031 402.863281 346.242188 400.980469 C 345.847656 397.535156 345.285156 394.109375 344.375 390.699219 C 344.109375 389.652344 343.644531 388.699219 343.121094 387.769531 C 341.738281 385.324219 339.886719 383.074219 338.890625 380.449219 C 338.445312 379.265625 338.128906 378.039062 337.898438 376.785156 C 337.390625 374.011719 337.292969 371.125 336.921875 368.386719 C 336.84375 367.929688 337.148438 367.5 337.601562 367.425781 C 338.058594 367.347656 338.488281 367.65625 338.5625 368.105469 C 339.03125 370.414062 339.316406 372.839844 339.796875 375.195312 C 340.109375 376.699219 340.5 378.167969 341.101562 379.5625 C 342.148438 382.054688 344.078125 384.105469 345.4375 386.441406 C 346.097656 387.570312 346.625 388.765625 346.941406 390.058594 C 347.226562 391.277344 347.476562 392.496094 347.6875 393.71875 C 347.824219 391.976562 347.964844 390.234375 348.117188 388.488281 C 349.074219 377.675781 350.929688 366.691406 353.457031 355.859375 C 355.972656 345.046875 359.160156 334.390625 362.773438 324.210938 C 362.933594 323.746094 363.445312 323.496094 363.910156 323.65625 C 364.378906 323.8125 364.625 324.324219 364.464844 324.792969 C 361.09375 334.96875 358.15625 345.613281 355.867188 356.398438 C 355.132812 359.867188 354.46875 363.351562 353.878906 366.839844 C 354.8125 364.535156 355.726562 362.246094 356.800781 360.007812 C 357.570312 358.398438 358.433594 356.820312 359.425781 355.277344 C 360.8125 353.15625 362.390625 351.257812 364.144531 349.546875 C 366.722656 347.046875 369.617188 344.925781 372.21875 342.378906 C 372.527344 342.050781 373.046875 342.035156 373.371094 342.34375 C 373.703125 342.65625 373.714844 343.171875 373.40625 343.5 C 371.734375 345.449219 369.980469 347.28125 368.175781 349.058594 C 367 350.21875 365.789062 351.339844 364.648438 352.542969 C 363.464844 353.789062 362.324219 355.089844 361.3125 356.546875 C 359.972656 358.464844 358.867188 360.453125 357.855469 362.484375 C 356.296875 365.617188 354.957031 368.835938 353.335938 372.023438 C 353.265625 372.179688 353.144531 372.296875 353.007812 372.371094 C 352.210938 377.84375 351.609375 383.3125 351.242188 388.734375 C 350.351562 401.488281 350.046875 414.027344 348.855469 426.539062 C 348.605469 429.148438 348.316406 431.765625 347.972656 434.378906 C 348.28125 433.871094 348.59375 433.359375 348.910156 432.855469 C 350.191406 430.835938 351.628906 428.886719 352.972656 426.832031 C 355.660156 422.941406 357.417969 419.199219 359.882812 415.785156 C 361.527344 413.511719 363.457031 411.394531 366.144531 409.46875 C 366.367188 409.289062 366.695312 409.328125 366.875 409.550781 C 367.050781 409.769531 367.019531 410.101562 366.792969 410.28125 C 364.46875 412.367188 362.882812 414.566406 361.558594 416.871094 C 359.457031 420.527344 358.066406 424.421875 355.773438 428.5625 C 354.789062 430.269531 353.804688 431.953125 352.78125 433.582031 C 351.25 436.015625 349.710938 438.378906 348.441406 440.890625 C 347.355469 443.050781 346.585938 445.332031 345.84375 447.757812 C 345.757812 448.039062 345.65625 448.304688 345.554688 448.574219 C 345.328125 449.613281 345.09375 450.652344 344.847656 451.691406 C 341.78125 464.167969 337.601562 476.035156 332.515625 487.417969 Z M 478.804688 321.640625 C 480.476562 315.976562 481.984375 310.28125 483.328125 304.550781 C 483.328125 303.890625 483.328125 303.230469 483.328125 302.574219 C 483.25 299.175781 483.453125 295.761719 483.574219 292.359375 C 483.65625 290.164062 483.738281 287.96875 483.574219 285.785156 C 483.453125 283.304688 482.964844 280.914062 482.3125 278.566406 C 480.679688 272.847656 477.949219 267.394531 476.238281 261.730469 C 476.15625 261.519531 476.277344 261.289062 476.484375 261.214844 C 476.6875 261.140625 476.929688 261.25 477.011719 261.464844 C 479.253906 266.972656 482.597656 272.148438 484.757812 277.75 C 485.695312 280.242188 486.386719 282.824219 486.753906 285.523438 C 486.753906 285.710938 486.753906 285.898438 486.792969 286.085938 C 486.996094 284.421875 487.324219 282.765625 487.730469 281.109375 C 487.855469 280.578125 487.976562 280.042969 488.097656 279.507812 C 488.628906 276.019531 489.078125 272.523438 489.484375 269.019531 C 489.769531 266.417969 490.011719 263.816406 490.257812 261.203125 C 490.21875 260.761719 490.175781 260.316406 490.136719 259.878906 C 489.808594 257.050781 489.320312 254.269531 488.585938 251.527344 C 487.976562 249.171875 487.203125 246.839844 486.386719 244.519531 C 485.121094 240.996094 483.777344 237.496094 482.472656 234.046875 C 481.699219 232.050781 481.089844 229.914062 480.558594 227.734375 C 479.785156 224.535156 479.171875 221.246094 478.519531 218.179688 C 478.480469 217.90625 478.644531 217.636719 478.929688 217.570312 C 479.171875 217.503906 479.457031 217.671875 479.539062 217.945312 C 480.355469 220.949219 481.128906 224.175781 482.105469 227.304688 C 482.757812 229.378906 483.453125 231.410156 484.308594 233.300781 C 485.773438 236.707031 487.40625 240.132812 488.75 243.65625 C 489.605469 246.003906 490.378906 248.394531 490.992188 250.808594 C 491.234375 246.496094 491.398438 242.167969 491.441406 237.832031 C 491.726562 220.617188 490.664062 203.238281 487.8125 185.761719 C 487.730469 185.335938 487.976562 184.929688 488.425781 184.847656 C 488.832031 184.765625 489.238281 185.042969 489.320312 185.46875 C 491.523438 195.503906 493.191406 205.539062 494.253906 215.550781 C 494.902344 213.359375 495.679688 211.191406 496.492188 208.996094 C 497.269531 206.9375 498.082031 204.882812 498.816406 202.707031 C 498.9375 202.25 499.429688 201.984375 499.875 202.109375 C 500.324219 202.242188 500.609375 202.714844 500.445312 203.171875 C 499.835938 205.816406 499.144531 208.351562 498.328125 210.816406 C 497.105469 214.5625 495.839844 218.160156 494.984375 221.972656 C 494.984375 222.09375 494.945312 222.210938 494.902344 222.332031 C 495.351562 227.5 495.597656 232.664062 495.71875 237.820312 C 495.800781 242.042969 495.800781 246.261719 495.636719 250.46875 C 496.902344 247.960938 498.410156 245.53125 499.632812 243.011719 C 500.324219 241.6875 500.894531 240.34375 501.304688 238.933594 L 502.890625 231.421875 C 502.933594 231.113281 503.257812 230.910156 503.542969 230.96875 C 503.871094 231.027344 504.074219 231.328125 504.035156 231.636719 L 503.054688 239.375 C 502.730469 240.925781 502.238281 242.429688 501.628906 243.910156 C 500.285156 247.175781 498.410156 250.292969 497.269531 253.585938 C 496.738281 255.050781 496.332031 256.554688 496.003906 258.074219 C 495.554688 260.039062 495.230469 262.035156 494.863281 264.023438 C 494.699219 265.863281 494.539062 267.710938 494.375 269.546875 C 493.640625 276.578125 492.621094 283.578125 491.316406 290.515625 C 490.585938 294.5 489.769531 298.472656 488.871094 302.425781 C 491.195312 297.796875 493.558594 293.175781 495.636719 288.445312 C 497.796875 283.609375 499.792969 278.699219 501.425781 273.609375 C 507.417969 255.3125 509.984375 236.375 509.453125 217.503906 C 508.964844 198.589844 505.378906 179.742188 499.019531 161.664062 C 494.617188 148.960938 490.300781 135.648438 485.042969 122.847656 C 481.578125 114.339844 477.707031 106.058594 473.058594 98.363281 C 472.285156 97.007812 468.65625 91.492188 464.867188 87.984375 C 463.765625 86.949219 462.667969 86.085938 461.605469 85.617188 C 460.710938 85.21875 459.855469 85.097656 459.242188 85.839844 C 458.019531 87.378906 457.328125 89.554688 456.960938 91.878906 C 456.351562 95.613281 456.511719 99.726562 456.472656 102.609375 C 456.351562 108.554688 457.042969 114.558594 458.144531 120.558594 C 460.792969 134.574219 465.765625 148.613281 468.78125 162.023438 C 471.429688 173.792969 473.261719 185.792969 474.199219 197.867188 C 475.179688 209.941406 475.261719 222.082031 474.484375 234.132812 C 473.914062 242.714844 472.285156 251.460938 471.632812 260.160156 C 471.347656 263.820312 471.226562 267.46875 471.429688 271.101562 C 472.246094 286.832031 477.785156 301.785156 478.683594 317.109375 C 478.765625 318.613281 478.804688 320.125 478.804688 321.640625 Z M 566.101562 163.1875 C 567.449219 160.34375 568.914062 157.605469 570.382812 155.015625 C 573.5625 149.53125 577.269531 144.289062 580.367188 138.730469 C 581.671875 136.425781 582.855469 134.070312 583.792969 131.601562 C 587.582031 121.953125 591.167969 107.644531 593.734375 93.210938 C 596.261719 78.679688 597.769531 64.015625 597.117188 53.824219 C 596.710938 47.078125 595.734375 40.34375 594.0625 33.785156 C 592.429688 27.242188 590.109375 20.878906 587.011719 14.867188 C 585.910156 12.683594 584.238281 9.648438 582.078125 7.414062 C 581.140625 6.425781 580.082031 5.574219 578.941406 5.109375 C 578.125 7.550781 576.617188 12.582031 575.804688 15.945312 C 574.296875 22.066406 573.03125 28.226562 571.890625 34.402344 C 570.707031 40.601562 569.648438 46.820312 568.628906 53.066406 C 567 62.683594 565.738281 72.445312 564.023438 82.089844 C 563.292969 86.265625 562.476562 90.417969 561.5 94.527344 C 559.703125 102.292969 556.894531 110.230469 555.222656 118.21875 C 554.527344 121.574219 554 124.941406 553.875 128.3125 C 553.796875 131.09375 553.835938 133.859375 553.957031 136.617188 C 554.285156 143.210938 555.058594 149.765625 555.304688 156.371094 C 555.589844 166.121094 555.425781 176.894531 554.527344 187.597656 C 554.449219 188.640625 554.367188 189.6875 554.242188 190.726562 C 557.136719 180.347656 559.867188 169.898438 562.515625 159.4375 C 562.515625 158.523438 562.597656 157.609375 562.640625 156.699219 C 563.25 149.324219 565.207031 142.015625 565.085938 134.640625 C 565.085938 132.425781 564.839844 130.273438 564.59375 128.136719 C 564.269531 125.53125 563.820312 122.96875 563.414062 120.378906 C 562.964844 117.730469 562.597656 115.101562 562.3125 112.40625 C 562.230469 112.066406 562.433594 111.738281 562.800781 111.664062 C 563.128906 111.59375 563.453125 111.808594 563.535156 112.148438 C 564.230469 114.347656 565.042969 116.457031 565.777344 118.613281 C 566.511719 120.8125 567.246094 122.996094 567.773438 125.246094 C 568.34375 127.554688 568.710938 129.902344 568.875 132.308594 C 568.914062 131.90625 568.996094 131.5 569.078125 131.09375 C 569.8125 127.476562 570.667969 123.882812 571.644531 120.265625 C 572.296875 118.019531 572.789062 115.726562 573.480469 113.496094 C 573.929688 112.089844 574.457031 110.71875 575.109375 109.382812 C 575.640625 107.300781 576.171875 105.226562 576.742188 103.15625 C 576.742188 102.75 576.742188 102.339844 576.742188 101.925781 C 576.945312 96.800781 577.636719 91.6875 577.269531 86.558594 C 577.148438 84.625 576.863281 82.734375 576.496094 80.859375 C 576.171875 79.066406 575.761719 77.289062 575.355469 75.511719 C 574.703125 72.785156 574.089844 70.074219 573.480469 67.328125 C 573.359375 66.84375 573.644531 66.34375 574.132812 66.207031 C 574.621094 66.070312 575.109375 66.351562 575.234375 66.835938 C 576.535156 70.652344 578.125 74.359375 579.144531 78.230469 C 579.878906 80.882812 580.285156 83.601562 580.488281 86.382812 C 580.53125 87.386719 580.53125 88.382812 580.53125 89.382812 C 581.917969 84.40625 583.382812 79.449219 584.890625 74.511719 C 585.09375 73.757812 585.871094 73.316406 586.601562 73.527344 C 587.378906 73.738281 587.824219 74.519531 587.621094 75.273438 C 585.378906 83.882812 583.300781 92.582031 581.183594 101.300781 C 582.242188 100.164062 583.300781 99.023438 584.320312 97.832031 C 585.339844 96.503906 586.277344 95.144531 587.175781 93.742188 C 587.785156 92.753906 588.355469 91.71875 588.925781 90.710938 C 590.3125 88.351562 591.738281 86.007812 593.164062 83.625 C 593.289062 83.402344 593.574219 83.320312 593.777344 83.441406 C 594.019531 83.558594 594.101562 83.832031 593.980469 84.050781 C 592.714844 86.609375 591.574219 89.179688 590.230469 91.648438 C 588.886719 94.144531 587.378906 96.523438 585.625 98.828125 C 583.832031 101.429688 581.710938 103.816406 579.960938 106.4375 C 575.355469 125.269531 570.871094 144.265625 566.101562 163.1875 Z M 561.050781 199.742188 C 561.945312 198.546875 562.925781 197.398438 563.902344 196.292969 C 569.28125 190.273438 575.679688 185.449219 581.917969 179.113281 C 588.152344 172.84375 592.757812 165.367188 598.300781 158.617188 C 600.785156 155.632812 603.394531 152.789062 606.449219 150.230469 C 608.855469 148.191406 611.421875 146.3125 614.03125 144.511719 C 619.941406 140.421875 626.175781 136.730469 631.882812 132.382812 C 637.425781 128.152344 642.84375 123.183594 647.777344 117.796875 C 652.75 112.421875 657.191406 106.617188 660.820312 100.671875 C 664.851562 94.144531 667.910156 87.589844 670.109375 80.761719 C 672.3125 73.921875 673.617188 66.800781 674.0625 59.15625 C 674.105469 58.589844 673.941406 52.824219 673.859375 49.511719 C 671.332031 50.882812 667.867188 54.207031 667.175781 54.863281 C 665.585938 56.359375 664.160156 57.980469 662.773438 59.652344 C 659.390625 63.722656 656.417969 68.117188 652.910156 72.082031 C 651.6875 73.410156 650.425781 74.683594 649.121094 75.917969 C 646.148438 78.722656 643.050781 81.34375 640.035156 84.097656 C 635.265625 88.5 630.128906 92.628906 625.238281 96.988281 C 623.199219 98.828125 621.164062 100.707031 619.289062 102.667969 C 615.988281 106.0625 612.851562 109.734375 609.875 113.53125 C 605.351562 119.269531 601.152344 125.289062 596.996094 131.097656 C 592.675781 137.089844 588.070312 142.75 583.914062 148.777344 C 582.203125 151.300781 580.53125 153.894531 579.023438 156.609375 C 575.679688 162.585938 572.867188 168.703125 570.261719 174.90625 C 570.097656 175.261719 569.976562 175.621094 569.8125 175.980469 C 569.933594 175.820312 570.015625 175.660156 570.136719 175.507812 C 573.4375 170.667969 577.1875 166.109375 581.222656 161.789062 L 582.203125 160.386719 C 583.710938 158.324219 585.09375 156.257812 586.523438 154.183594 C 587.867188 152.144531 589.253906 150.105469 590.433594 147.878906 C 592.429688 144.472656 593.613281 140.957031 595.527344 137.675781 C 596.382812 136.242188 597.320312 134.863281 598.503906 133.550781 C 598.75 133.234375 599.238281 133.179688 599.523438 133.425781 C 599.847656 133.671875 599.890625 134.132812 599.644531 134.445312 C 598.75 135.816406 598.054688 137.222656 597.484375 138.644531 C 596.019531 142.183594 595.203125 145.828125 593.574219 149.488281 C 593.449219 149.746094 593.328125 150 593.164062 150.253906 C 594.589844 149.027344 595.976562 147.816406 597.402344 146.636719 C 600.625 143.941406 603.925781 141.410156 607.144531 138.867188 C 607.632812 138.421875 608.449219 138.488281 608.894531 139.011719 C 609.304688 139.527344 609.261719 140.308594 608.734375 140.753906 C 605.71875 143.511719 602.703125 146.355469 599.605469 149.175781 C 595.082031 153.328125 590.515625 157.503906 586.238281 161.9375 C 583.667969 164.589844 581.222656 167.308594 578.902344 170.125 C 580.695312 169.269531 582.527344 168.539062 584.320312 167.679688 C 584.566406 167.527344 584.890625 167.609375 585.054688 167.859375 C 585.21875 168.113281 585.136719 168.445312 584.890625 168.59375 C 582.894531 170.074219 580.898438 171.429688 578.941406 172.925781 C 577.71875 173.863281 576.578125 174.847656 575.519531 176.003906 C 574.171875 177.28125 573.03125 178.667969 571.890625 180.078125 C 571.28125 180.839844 570.707031 181.621094 570.136719 182.410156 C 566.714844 187.972656 563.820312 193.828125 561.050781 199.742188 Z M 528.078125 296.152344 C 527.875 296.492188 527.710938 296.832031 527.507812 297.164062 C 528.28125 296.75 529.058594 296.328125 529.832031 295.910156 C 544.21875 288.308594 563.371094 281.097656 571.320312 277.421875 C 577.800781 274.453125 583.953125 270.507812 589.984375 266.171875 C 599.035156 259.628906 607.671875 252.195312 616.191406 245.714844 C 621.570312 241.636719 631.027344 235.484375 638.199219 228.507812 C 640.441406 226.292969 642.480469 223.980469 644.066406 221.648438 C 645.859375 219.039062 647.125 216.421875 647.449219 213.75 C 647.53125 212.980469 647.53125 212.46875 647.207031 212.210938 C 646.921875 212.011719 646.554688 212 646.148438 212.019531 C 644.027344 212.109375 641.132812 213.554688 639.542969 214.109375 C 635.019531 215.703125 630.699219 217.902344 626.21875 219.664062 C 625.074219 220.117188 623.933594 220.539062 622.753906 220.917969 C 620.757812 221.558594 618.71875 222.070312 616.679688 222.519531 C 611.992188 223.546875 607.265625 224.246094 602.621094 225.4375 C 597.605469 226.734375 593.328125 228.980469 589.457031 231.746094 C 583.425781 236.058594 578.289062 241.609375 572.542969 246.773438 C 566.390625 252.308594 559.214844 256.804688 552.695312 261.941406 C 549.964844 264.082031 547.316406 266.316406 544.953125 268.859375 C 542.300781 271.683594 540.0625 274.882812 537.980469 278.257812 C 536.148438 281.25 534.4375 284.378906 532.765625 287.519531 C 542.832031 278.265625 553.46875 269.824219 564.269531 262.546875 C 564.757812 262.082031 565.246094 261.609375 565.738281 261.128906 C 567.691406 259.199219 569.445312 257.117188 570.992188 254.898438 C 572.011719 253.417969 573.03125 251.929688 573.847656 250.265625 C 574.011719 249.777344 574.582031 249.539062 575.070312 249.730469 C 575.558594 249.917969 575.804688 250.46875 575.597656 250.957031 C 575.027344 252.863281 574.296875 254.679688 573.316406 256.371094 C 573.152344 256.636719 572.992188 256.898438 572.828125 257.15625 C 573.683594 256.679688 574.539062 256.214844 575.394531 255.761719 C 581.265625 252.71875 587.378906 250.140625 593.125 246.992188 C 593.695312 246.660156 594.46875 246.859375 594.796875 247.433594 C 595.121094 248.015625 594.917969 248.746094 594.347656 249.074219 C 593.082031 249.816406 591.820312 250.53125 590.554688 251.238281 C 592.554688 250.949219 594.589844 250.804688 596.667969 250.664062 C 597.160156 250.601562 597.605469 250.949219 597.648438 251.433594 C 597.730469 251.917969 597.363281 252.363281 596.875 252.417969 C 594.183594 252.878906 591.574219 253.542969 588.96875 254.136719 C 586.5625 254.667969 584.199219 255.152344 581.875 255.851562 C 579.390625 257.164062 576.902344 258.496094 574.457031 259.898438 C 572.828125 260.820312 571.238281 261.757812 569.691406 262.761719 C 568.058594 263.808594 566.429688 264.886719 564.839844 265.988281 C 561.863281 268.523438 558.644531 270.804688 555.425781 272.980469 C 556.363281 272.714844 557.300781 272.492188 558.277344 272.304688 C 559.132812 272.167969 560.03125 272.132812 560.886719 272.1875 C 562.640625 272.289062 564.390625 272.714844 566.144531 272.660156 C 567.082031 272.640625 567.976562 272.496094 568.914062 272.269531 C 570.421875 271.917969 571.890625 271.40625 573.234375 270.925781 C 573.601562 270.757812 574.050781 270.929688 574.253906 271.3125 C 574.417969 271.691406 574.214844 272.140625 573.847656 272.308594 C 572.503906 273.023438 571.074219 273.796875 569.609375 274.390625 C 568.546875 274.8125 567.449219 275.117188 566.390625 275.28125 C 564.308594 275.566406 562.230469 275.273438 560.152344 275.410156 C 559.703125 275.4375 559.257812 275.488281 558.847656 275.574219 C 555.425781 276.109375 552.289062 277.210938 549.351562 278.703125 C 546.664062 280.066406 544.339844 282.042969 541.730469 283.738281 C 537.777344 287.109375 533.90625 290.601562 530.117188 294.1875 C 529.464844 294.839844 528.773438 295.496094 528.078125 296.152344 Z M 478.847656 385.601562 C 485.082031 382.347656 491.441406 379.492188 498 377.0625 C 504.441406 374.726562 511.003906 372.726562 517.605469 370.941406 C 519.4375 369.644531 521.3125 368.265625 523.105469 366.84375 C 524.859375 365.472656 526.53125 364.050781 528.160156 362.617188 C 530.726562 360.398438 533.171875 358.164062 535.210938 355.679688 C 535.292969 355.621094 535.332031 355.566406 535.375 355.519531 C 529.058594 357.378906 522.660156 359.203125 516.503906 361.433594 C 511.492188 363.257812 506.601562 365.335938 502.035156 367.988281 C 498.042969 370.277344 494.332031 372.863281 490.707031 375.625 C 486.632812 378.773438 482.71875 382.152344 478.847656 385.601562 Z M 524.980469 369.035156 C 537.410156 365.960938 549.964844 363.414062 562.394531 360.40625 C 565.003906 359.285156 567.652344 358.101562 570.136719 356.742188 C 573.726562 354.796875 577.027344 352.5 579.550781 349.3125 C 580.613281 348.074219 581.550781 346.742188 582.40625 345.378906 C 584.523438 342.042969 586.359375 338.515625 588.804688 335.402344 C 589.046875 335.066406 589.496094 334.988281 589.824219 335.230469 C 590.191406 335.46875 590.269531 335.9375 590.027344 336.277344 C 587.867188 339.554688 586.441406 343.226562 584.605469 346.664062 C 583.75 348.207031 582.855469 349.683594 581.753906 351.082031 C 579.757812 353.550781 577.3125 355.554688 574.660156 357.226562 C 576.171875 356.796875 577.71875 356.359375 579.226562 355.90625 C 581.265625 355.296875 583.34375 354.605469 585.421875 353.839844 C 590.109375 351.714844 594.753906 349.414062 599.480469 347.394531 C 600.378906 347.015625 601.273438 346.640625 602.171875 346.28125 C 613.054688 340.601562 623.609375 333.726562 632.574219 327.222656 C 632.980469 326.90625 633.59375 326.996094 633.921875 327.417969 C 634.203125 327.839844 634.125 328.441406 633.714844 328.753906 C 627.683594 333.367188 620.960938 338.175781 613.867188 342.675781 C 617.496094 341.910156 621.246094 341.476562 625.074219 341.46875 C 625.363281 341.460938 625.644531 341.710938 625.644531 342.023438 C 625.644531 342.339844 625.402344 342.605469 625.117188 342.613281 C 620.59375 342.910156 616.273438 343.90625 612.074219 345.1875 C 610.324219 345.714844 608.609375 346.304688 606.859375 346.933594 C 605.554688 347.695312 604.25 348.441406 602.945312 349.171875 C 595.40625 353.320312 587.746094 356.871094 580.285156 359.3125 C 574.171875 361.308594 567.976562 363.082031 561.785156 364.746094 C 567.9375 365.589844 574.050781 366.878906 580.125 367.265625 C 580.488281 367.273438 580.773438 367.585938 580.734375 367.953125 C 580.734375 368.320312 580.449219 368.609375 580.082031 368.597656 C 572.136719 368.644531 564.023438 367.367188 555.996094 367.148438 C 554.855469 367.117188 553.753906 367.101562 552.652344 367.117188 C 542.953125 369.574219 533.214844 371.929688 523.597656 374.625 C 515.609375 376.859375 507.703125 379.332031 499.957031 382.320312 C 496.125 383.765625 492.378906 385.378906 488.667969 387.132812 C 492.296875 386.691406 495.964844 386.476562 499.671875 386.386719 C 506.070312 386.226562 512.46875 386.410156 518.5 385.894531 C 531.503906 384.808594 544.789062 383.324219 557.789062 380.722656 C 566.390625 379 574.867188 376.789062 583.015625 373.832031 C 596.914062 368.921875 609.34375 362.390625 621 354.738281 C 638.648438 343.125 654.460938 328.898438 670.3125 313.457031 C 674.796875 309.128906 679.160156 304.722656 682.828125 299.796875 C 685.191406 296.582031 687.308594 293.148438 688.941406 289.363281 C 689.429688 288.222656 690.285156 286.023438 690.570312 283.90625 C 690.691406 283.054688 690.773438 282.21875 690.570312 281.507812 C 690.488281 281.011719 690.285156 280.554688 689.796875 280.339844 C 688.207031 279.671875 685.761719 280.214844 683.273438 281.101562 C 679.28125 282.535156 675.164062 285.039062 673.207031 286.457031 C 665.21875 292.285156 657.273438 298.003906 649.082031 303.460938 C 643.660156 307.105469 638.117188 310.625 632.410156 313.992188 C 628.5 316.277344 624.546875 318.203125 620.472656 319.917969 C 611.097656 323.867188 601.398438 326.722656 591.941406 330.714844 C 581.222656 335.21875 571.320312 341.414062 560.847656 346.375 C 558.15625 347.644531 555.464844 348.828125 552.695312 349.894531 C 547.316406 351.960938 541.691406 353.667969 536.027344 355.335938 C 536.148438 355.347656 536.3125 355.402344 536.433594 355.496094 C 536.839844 355.78125 536.921875 356.328125 536.636719 356.710938 C 534.152344 360.398438 531.136719 363.976562 527.550781 367.011719 C 526.734375 367.710938 525.835938 368.386719 524.980469 369.035156 Z M 280.804688 609.164062 C 292.507812 611.121094 303.765625 616.03125 315.757812 616.246094 C 324.167969 616.433594 332.632812 615.792969 341.066406 615.851562 C 344.765625 615.882812 348.464844 616.054688 352.144531 616.457031 C 367.679688 618.152344 383 620.882812 398.480469 622.5 C 405.035156 623.183594 411.601562 623.664062 418.242188 623.78125 C 426.761719 623.929688 435.199219 623.640625 443.59375 623.152344 C 463.480469 621.996094 483.207031 619.707031 503.175781 619.238281 C 506.925781 619.148438 510.675781 619.121094 514.464844 619.152344 C 529.382812 619.28125 544.257812 620.144531 559.175781 619.933594 C 564.1875 619.867188 570.585938 619.921875 576.210938 618.472656 C 579.675781 617.59375 582.8125 616.164062 585.09375 613.6875 C 584.808594 613.40625 584.28125 612.878906 583.710938 612.519531 C 581.46875 611.082031 577.882812 609.554688 573.847656 608.136719 C 564.675781 604.910156 553.429688 602.183594 550.820312 601.339844 C 539.734375 597.765625 528.691406 593.957031 517.726562 589.921875 C 506.804688 585.890625 495.921875 581.644531 485.121094 577.292969 C 470.777344 571.527344 455.332031 565.59375 439.558594 562.148438 C 429.125 559.863281 418.527344 558.679688 408.097656 559.375 C 401.3125 559.859375 394.8125 561.078125 388.425781 562.636719 C 378.605469 565.027344 369.042969 568.214844 359.0625 570.847656 C 349.6875 573.214844 339.984375 574.730469 330.605469 577.242188 C 326.667969 578.296875 322.789062 579.523438 319.023438 581.085938 C 316.367188 582.183594 313.871094 583.519531 311.445312 584.972656 C 305.574219 588.503906 300.152344 592.757812 294.316406 596.40625 C 289.730469 599.265625 284.992188 601.761719 280.160156 604.070312 C 289.410156 602.050781 298.808594 600.203125 308.402344 598.441406 C 309.347656 597.859375 310.367188 597.410156 311.339844 596.886719 C 314.023438 595.417969 316.679688 593.945312 319.113281 591.960938 C 321.71875 589.976562 323.863281 587.550781 326.289062 585.410156 C 327.382812 584.4375 328.539062 583.527344 329.796875 582.71875 C 330.40625 582.300781 331.234375 582.453125 331.652344 583.0625 C 332.070312 583.667969 331.917969 584.503906 331.308594 584.921875 C 330.582031 585.449219 329.90625 586.023438 329.25 586.617188 C 326.441406 589.15625 324.089844 592.101562 321.144531 594.527344 C 320.117188 595.316406 319.070312 596.042969 318 596.714844 C 321.320312 596.128906 324.660156 595.550781 328.027344 594.972656 C 339.8125 592.972656 351.316406 589.492188 362.941406 586.683594 C 365.597656 585.46875 368.28125 584.226562 370.878906 582.910156 C 372.789062 581.941406 374.679688 580.984375 376.417969 579.851562 C 377.402344 579.21875 378.316406 578.5 379.195312 577.742188 C 381.378906 575.859375 383.378906 573.761719 385.734375 572.0625 C 387.167969 571.039062 388.710938 570.207031 390.316406 569.472656 C 392.636719 568.417969 395.066406 567.566406 397.394531 566.574219 C 397.757812 566.410156 398.1875 566.570312 398.351562 566.933594 C 398.519531 567.296875 398.359375 567.726562 397.992188 567.890625 C 395.738281 568.992188 393.375 569.96875 391.125 571.132812 C 389.679688 571.886719 388.28125 572.726562 387.003906 573.746094 C 384.773438 575.507812 382.921875 577.664062 380.859375 579.597656 C 379.921875 580.472656 378.945312 581.300781 377.878906 582.042969 C 376.738281 582.8125 375.542969 583.542969 374.3125 584.230469 C 374.390625 584.214844 374.46875 584.203125 374.546875 584.191406 C 381.355469 582.953125 388.253906 582.167969 395.3125 582.238281 C 404.050781 582.335938 412.742188 582.964844 421.382812 583.910156 C 423.460938 583.550781 425.578125 583.308594 427.65625 582.902344 C 429.167969 582.601562 430.632812 582.238281 432.140625 581.746094 C 437.601562 580.007812 442.574219 577.585938 447.832031 576.253906 C 451.417969 575.355469 455.128906 574.96875 459.160156 575.457031 C 459.527344 575.488281 459.8125 575.832031 459.773438 576.214844 C 459.734375 576.601562 459.40625 576.886719 459.039062 576.851562 C 455.167969 576.632812 451.746094 577.308594 448.402344 578.296875 C 443.226562 579.835938 438.296875 582.222656 432.875 584.050781 C 431.816406 584.390625 430.714844 584.667969 429.65625 584.894531 C 440.292969 586.265625 450.886719 587.96875 461.445312 589.699219 C 469.921875 591.085938 478.398438 592.527344 486.917969 593.640625 C 487.527344 593.710938 487.976562 594.265625 487.894531 594.878906 C 487.8125 595.5 487.28125 595.945312 486.671875 595.875 C 478.074219 595.101562 469.515625 594.097656 460.957031 592.9375 C 448.199219 591.207031 435.484375 589.214844 422.6875 587.925781 C 415.59375 587.214844 408.460938 586.6875 401.335938 586.496094 C 402.773438 587.042969 404.199219 587.671875 405.617188 588.386719 C 407.527344 589.394531 409.480469 590.6875 411.398438 592.226562 C 415.472656 595.484375 419.34375 599.640625 423.011719 602.554688 C 424.96875 604.113281 427.085938 605.390625 429.328125 606.46875 C 432.753906 608.113281 436.421875 609.296875 440.007812 610.441406 C 440.332031 610.527344 440.496094 610.839844 440.414062 611.140625 C 440.332031 611.445312 440.007812 611.613281 439.722656 611.527344 C 435.972656 610.566406 432.222656 609.523438 428.59375 608.085938 C 426.148438 607.101562 423.785156 605.945312 421.585938 604.460938 C 418.855469 602.667969 415.921875 600.382812 412.945312 598.074219 C 411.070312 596.613281 409.238281 595.152344 407.402344 593.859375 C 406.222656 593 405.058594 592.195312 403.90625 591.550781 C 400.847656 589.777344 397.714844 588.5 394.480469 587.523438 C 393.238281 587.152344 391.976562 586.824219 390.707031 586.53125 C 385.507812 586.796875 380.398438 587.503906 375.339844 588.46875 C 361.992188 591.011719 348.992188 595.328125 335.726562 598.285156 C 337.410156 599.050781 339.035156 599.929688 340.871094 600.421875 C 348.050781 602.5625 354.085938 604.191406 360.109375 606.695312 C 364.019531 608.320312 367.910156 610.304688 372.113281 613 C 372.453125 613.203125 372.566406 613.644531 372.363281 613.984375 C 372.160156 614.324219 371.722656 614.433594 371.378906 614.234375 C 367.109375 611.898438 363.179688 610.253906 359.269531 608.921875 C 353.179688 606.847656 347.148438 605.578125 339.949219 603.898438 C 338.980469 603.660156 338.046875 603.34375 337.144531 602.964844 C 335.261719 602.167969 333.519531 601.113281 331.554688 600.464844 C 330.609375 600.109375 329.605469 599.878906 328.566406 599.722656 C 312.085938 602.636719 296.238281 605.683594 280.804688 609.164062 Z M 562.355469 106.054688 C 562.355469 106.480469 561.988281 106.804688 561.578125 106.789062 C 561.171875 106.769531 560.847656 106.414062 560.847656 105.996094 L 560.925781 104.628906 C 560.925781 104.210938 561.292969 103.882812 561.703125 103.898438 C 562.109375 103.917969 562.433594 104.273438 562.433594 104.695312 Z M 562.355469 106.054688 " fill-opacity="1" fill-rule="evenodd"/></g></g></g></g></svg>