<svg xmlns="http://www.w3.org/2000/svg" xmlns:xlink="http://www.w3.org/1999/xlink" width="1000"
    zoomAndPan="magnify" viewBox="25 300 800 950" height="1587"
    preserveAspectRatio="xMidYMid meet" version="1.0">
    <defs>
        <clipPath id="eaf9bc9fc0">
            <path
                d="M 25.222656 133 L 815 133 L 815 931.097656 L 25.222656 931.097656 Z M 25.222656 133 "
                clip-rule="nonzero" />
        </clipPath>
        <clipPath id="25e5a70a64">
            <path
                d="M 28 132.097656 L 816.722656 132.097656 L 816.722656 931.097656 L 28 931.097656 Z M 28
    132.097656 "
                clip-rule="nonzero" />
        </clipPath>
    </defs>
    <g clip-path="url(#eaf9bc9fc0)">
        <path fill="#cad598"
            d="M 25.425781 133.859375 L 25.195312 931.128906 C 43.640625 927.328125 61.296875 922.214844 78.164062 915.792969 L 102.875 905.171875 C 118.953125 897.4375 134.242188 888.390625 148.742188 878.03125 C 175.726562 859.867188 203.582031 831.355469 232.304688 792.503906 C 247.375 772.28125 261.652344 743.886719 275.128906 707.324219 C 304.050781 596.703125 324.675781 527.8125 336.992188 500.660156 C 346.78125 479.089844 362.191406 457.453125 383.222656 435.738281 C 416.042969 405.300781 440.703125 387.492188 457.203125 382.316406 C 474.972656 372.222656 533.371094 355.125 632.402344 331.019531 C 665.449219 318.867188 700.789062 299.523438 738.429688 272.992188 C 758.304688 260.515625 783.796875 214.21875 814.902344 134.089844 Z M 25.425781 133.859375 "
            fill-opacity="1" fill-rule="nonzero" />
    </g>
    <g clip-path="url(#25e5a70a64)">
        <path fill="#da9b54"
            d="M 814.339844 138.140625 C 750.957031 162.941406 688.730469 187.390625 652.5625 249.152344 C 641.386719 268.238281 632.664062 290.933594 623.214844 315.539062 C 612.367188 343.792969 600.601562 374.441406 583.167969 404.214844 C 566.574219 432.550781 544.828125 460.128906 513.78125 484.269531 C 466.996094 520.644531 399.167969 549.09375 331.941406 577.316406 C 267.09375 604.542969 202.785156 631.558594 157.257812 665.316406 C 64.757812 733.914062 49.566406 830.648438 34.273438 928.714844 C 34.03125 930.273438 32.570312 931.34375 31.007812 931.097656 C 29.449219 930.855469 28.378906 929.394531 28.625 927.835938 C 43.875 830.03125 59.230469 730.894531 153.851562 660.726562 C 200.050781 626.464844 265.085938 599.183594 329.730469 572.042969 C 397.1875 543.722656 464.210938 515.566406 510.273438 479.753906 C 540.644531 456.140625 561.933594 429.15625 578.234375 401.328125 C 595.398438 372.015625 607.007812 341.792969 617.878906 313.488281 C 627.285156 288.992188 636.171875 265.832031 647.628906 246.261719 C 684.953125 182.527344 749.183594 157.496094 812.257812 132.8125 C 813.726562 132.238281 815.386719 132.964844 815.960938 134.433594 C 816.535156 135.90625 815.8125 137.5625 814.339844 138.140625 Z M 814.339844 138.140625 "
            fill-opacity="1" fill-rule="nonzero" />
    </g>

</svg>