<svg xmlns="http://www.w3.org/2000/svg" xmlns:xlink="http://www.w3.org/1999/xlink" width="1122"
    zoomAndPan="magnify" viewBox="0 0 841.92 1190.250009" height="1587"
    preserveAspectRatio="xMidYMid meet" version="1.0">
    <defs>
        <filter x="0%" y="0%" width="100%" height="100%" id="39ce384705">
            <feColorMatrix values="0 0 0 0 1 0 0 0 0 1 0 0 0 0 1 0 0 0 1 0"
                color-interpolation-filters="sRGB" />
        </filter>
        <mask id="feb25ec028">
            <g filter="url(#39ce384705)">
                <rect x="-84.192" width="1010.304" fill="#000000" y="-119.025001"
                    height="1428.30001" fill-opacity="0.25" />
            </g>
        </mask>
        <clipPath id="ff1e43ad65">
            <path
                d="M 0.507812 0.929688 L 747.039062 0.929688 L 747.039062 715.339844 L 0.507812 715.339844 Z M 0.507812 0.929688 "
                clip-rule="nonzero" />
        </clipPath>
        <clipPath id="2ea2f5963d">
            <rect x="0" width="748" y="0" height="716" />
        </clipPath>
    </defs>
    <g mask="url(#feb25ec028)">
        <g transform="matrix(1, 0, 0, 1, 47, 237)">
            <g clip-path="url(#2ea2f5963d)">
                <g clip-path="url(#ff1e43ad65)">
                    <path fill="#616431"
                        d="M 668.433594 543.175781 C 698.566406 589.972656 722.738281 636.285156 737.875 678.976562 C 741.132812 688.160156 744.632812 697.027344 746.335938 706.003906 C 746.792969 708.402344 746.84375 710.746094 747.058594 713.132812 C 747.273438 713.988281 746.753906 714.855469 745.898438 715.074219 C 745.039062 715.289062 744.171875 714.769531 743.957031 713.914062 C 743.03125 711.738281 741.925781 709.707031 741.097656 707.449219 C 738.019531 698.988281 735.789062 689.921875 732.515625 680.898438 C 727.90625 668.195312 722.484375 655.179688 716.339844 641.925781 C 706.09375 631.601562 696.675781 620.679688 685.753906 611.386719 C 685.21875 611.832031 684.417969 611.847656 683.851562 611.390625 C 682.980469 610.777344 682.113281 610.171875 681.277344 609.527344 C 678.953125 608.449219 676.597656 607.566406 674.253906 606.664062 C 669.949219 605.007812 665.648438 603.484375 661.203125 602.394531 C 654.261719 600.699219 647.117188 599.738281 639.925781 598.839844 C 629.019531 597.476562 618.011719 596.300781 607.410156 593.671875 C 602.683594 592.503906 598.054688 591.105469 593.46875 589.59375 C 582.863281 586.097656 572.503906 581.984375 561.78125 578.667969 C 552.398438 575.785156 542.542969 574.84375 533.210938 572.003906 C 529.089844 570.753906 525.066406 569.148438 521.222656 566.871094 C 514.460938 562.875 508.324219 558.261719 502.5 553.296875 C 493.859375 545.917969 485.90625 537.761719 477.535156 529.769531 C 466.832031 519.460938 455.101562 510.179688 444.117188 500.148438 C 441.34375 497.617188 438.613281 495.035156 435.957031 492.378906 C 431.746094 488.160156 427.765625 483.878906 426.335938 481.695312 C 425.800781 480.871094 425.558594 480.195312 425.511719 479.777344 C 425.398438 478.804688 425.792969 478.167969 426.359375 477.761719 C 431.933594 473.65625 441.472656 474.386719 452.238281 477.820312 C 471.566406 483.988281 495.097656 498.445312 504.976562 502.792969 C 510.382812 505.191406 515.878906 507.324219 521.410156 509.339844 C 534.503906 514.109375 547.808594 518.203125 560.75 523.394531 C 569.652344 527.007812 578.175781 531.042969 586.527344 535.328125 C 599.03125 541.753906 611.160156 548.746094 623.65625 555.722656 C 628.011719 558.15625 632.675781 560.125 637.121094 562.441406 C 639.117188 563.476562 641.066406 564.582031 642.929688 565.820312 C 648.238281 569.347656 652.867188 573.464844 657.144531 577.898438 C 663.667969 584.652344 669.53125 591.953125 675.855469 598.910156 C 681.90625 603.242188 687.621094 607.945312 693.078125 612.949219 C 699.1875 618.546875 705.265625 624.285156 710.875 630.472656 C 692.660156 593.277344 669.039062 554.429688 641.902344 515.652344 C 619.347656 483.421875 594.398438 451.210938 568.019531 420.097656 C 566.507812 418.941406 564.980469 417.792969 563.457031 416.644531 C 547.832031 404.882812 531.796875 393.964844 514.714844 384.957031 C 512.214844 383.640625 509.691406 382.359375 507.148438 381.121094 C 502.160156 380.027344 497.203125 379.605469 492.253906 379.523438 C 482.148438 379.34375 472.070312 380.683594 461.90625 381.433594 C 455.039062 381.9375 448.136719 382.121094 441.175781 381.433594 C 433.390625 380.660156 425.765625 378.800781 418.039062 377.644531 C 416.15625 377.363281 414.269531 377.125 412.371094 376.957031 C 397.351562 375.628906 382.011719 376.445312 366.929688 375.1875 C 360.335938 374.636719 353.789062 373.6875 347.34375 372.019531 C 337.816406 369.550781 328.585938 365.648438 319.5625 361.113281 C 306.320312 354.453125 293.53125 346.4375 280.851562 339.820312 C 275.148438 336.820312 269.332031 333.945312 263.46875 331.160156 C 254.65625 326.964844 245.730469 322.964844 236.898438 318.984375 C 236.050781 318.609375 229.429688 316.3125 225.9375 314.3125 C 223.925781 313.164062 222.925781 311.722656 222.902344 310.863281 C 222.777344 308.121094 224.589844 305.757812 227.5 303.957031 C 232.296875 300.988281 240.179688 299.472656 243.285156 299.105469 C 251.433594 298.167969 259.617188 297.914062 267.8125 298.082031 C 280 298.339844 292.191406 299.574219 304.273438 300.660156 C 319.941406 302.078125 335.804688 303.3125 351.441406 305.761719 C 361.945312 307.410156 372.34375 309.613281 382.523438 312.714844 C 388.078125 314.417969 393.496094 316.339844 398.847656 318.394531 C 411.269531 323.15625 423.320312 328.601562 435.84375 333.421875 C 446.640625 337.582031 457.9375 340.882812 468.679688 345.367188 C 473.371094 347.324219 477.953125 349.5 482.359375 352.058594 C 486.398438 354.421875 489.972656 357.285156 493.28125 360.441406 C 497.773438 364.726562 501.859375 369.445312 506.234375 373.886719 C 507.746094 375.417969 509.273438 376.929688 510.875 378.367188 C 516.992188 381.4375 522.972656 384.75 528.839844 388.273438 C 538.496094 394.078125 547.863281 400.425781 556.972656 407.222656 C 504.226562 346.484375 446.566406 290.484375 391.96875 247.125 C 384.449219 243.511719 376.839844 240.195312 369.203125 236.964844 C 361.40625 233.734375 353.539062 230.710938 345.613281 227.941406 C 345.054688 228.109375 344.476562 227.644531 343.910156 227.480469 C 337.796875 226.09375 331.828125 225.882812 325.925781 226.34375 C 310.128906 227.5625 294.78125 233.4375 278.558594 234.53125 C 274.640625 234.78125 270.703125 234.65625 266.753906 234.363281 C 257.8125 233.648438 248.824219 232.011719 239.996094 231.425781 C 227.765625 230.625 215.449219 230.710938 203.195312 231.632812 C 190.929688 232.558594 178.726562 234.320312 166.765625 236.921875 C 152.886719 239.902344 138.347656 244.898438 123.851562 247.5 C 117.449219 248.632812 111.050781 249.304688 104.71875 249.136719 C 101.648438 249.054688 97.265625 249.136719 93.273438 248.507812 C 90.308594 248.046875 87.554688 247.207031 85.570312 245.652344 C 82.945312 243.597656 83.339844 240.449219 85.664062 237.175781 C 89.09375 232.304688 96.777344 226.890625 98.484375 225.839844 C 106.496094 220.804688 115.128906 216.566406 124.035156 212.789062 C 137.21875 207.203125 150.984375 202.671875 164.101562 197.96875 C 183.160156 191.210938 203.042969 187.390625 223 186.847656 C 242.960938 186.300781 262.992188 189.027344 282.351562 195.367188 C 287.722656 197.214844 292.910156 199.398438 297.992188 201.789062 C 308.214844 206.660156 318.1875 212.03125 328.234375 217.277344 C 342.738281 221.519531 356.976562 226.847656 370.808594 233.398438 C 374.175781 234.992188 377.507812 236.671875 380.804688 238.390625 C 353.320312 217.277344 326.761719 199.566406 302.183594 186.257812 C 274.441406 171.230469 244.839844 160.148438 214.492188 150.875 C 207.308594 149.613281 199.714844 148.773438 192.089844 148.269531 C 181.183594 147.558594 170.21875 147.558594 160.308594 148.019531 C 153.515625 148.3125 146.792969 149.195312 140.023438 149.570312 C 137.066406 149.738281 134.097656 149.78125 131.117188 149.699219 C 127.429688 149.570312 123.730469 149.027344 120.050781 148.269531 C 111.789062 146.550781 103.585938 143.652344 95.5625 141.765625 C 91.394531 140.800781 87.1875 140 82.960938 139.246094 C 73.039062 137.484375 62.996094 136.140625 53.101562 134.460938 C 45.355469 133.160156 37.621094 131.898438 29.945312 130.347656 C 24.8125 129.296875 19.703125 128.082031 14.613281 126.738281 C 10.957031 125.773438 5.417969 124.007812 2.96875 123.128906 C 2.324219 122.875 1.871094 122.707031 1.660156 122.625 C 0.488281 122.035156 0.566406 120.988281 0.589844 120.777344 C 0.847656 118.34375 2.234375 116.074219 4.148438 114.101562 C 6.644531 111.5 10.066406 109.402344 12.542969 108.058594 C 18.96875 104.617188 25.785156 102.011719 32.816406 100.125 C 39.820312 98.320312 47.035156 97.230469 54.253906 96.726562 C 65.027344 96.011719 80.550781 97.480469 95.902344 100.25 C 111.082031 102.9375 126.097656 106.925781 136.21875 110.953125 C 139.828125 112.421875 143.238281 114.269531 146.527344 116.328125 C 151.316406 119.308594 155.867188 122.664062 160.640625 125.605469 C 166.480469 129.214844 173.117188 132.613281 179.964844 135.511719 C 182.652344 136.644531 185.367188 137.691406 188.082031 138.617188 C 195.230469 140.546875 202.359375 142.519531 209.453125 144.617188 C 208.605469 144.199219 207.761719 143.820312 206.917969 143.445312 C 197.078125 139.875 187.285156 136.515625 177.707031 132.570312 C 171.160156 129.886719 164.714844 126.945312 158.410156 123.464844 C 155.5 121.824219 152.710938 120.0625 149.996094 118.214844 C 143.753906 113.933594 137.890625 109.191406 131.679688 104.785156 C 125.628906 100.503906 119.355469 96.136719 113.382812 91.476562 C 109.339844 88.289062 105.4375 85.011719 101.816406 81.53125 C 99.722656 79.515625 97.707031 77.375 95.734375 75.191406 C 91.246094 70.195312 86.984375 64.90625 82.453125 60.082031 C 79.992188 57.433594 77.640625 54.75 75.171875 52.148438 C 73.574219 50.46875 71.925781 48.832031 70.171875 47.320312 C 66.171875 43.710938 61.703125 40.601562 57.605469 37.078125 C 55.773438 35.523438 54.015625 33.84375 52.390625 32.039062 C 51.601562 31.160156 47.613281 26.625 46.144531 23.476562 C 45.289062 21.671875 45.304688 20.078125 45.863281 19.152344 C 45.878906 19.113281 46.328125 18.230469 47.65625 18.144531 C 47.847656 18.144531 48.253906 18.105469 48.8125 18.105469 C 51.898438 17.976562 59.59375 17.726562 60.273438 17.769531 C 68.519531 18.1875 76.210938 19.574219 83.605469 21.882812 C 90.984375 24.191406 98.078125 27.464844 105.15625 31.746094 C 111.523438 35.609375 117.753906 40.394531 123.5 45.683594 C 129.234375 50.972656 134.488281 56.804688 138.972656 62.726562 C 143.46875 68.683594 147.28125 75.191406 151.496094 81.363281 C 153.265625 83.964844 155.105469 86.484375 157.105469 88.875 C 159.546875 91.8125 162.28125 94.375 165.148438 96.765625 C 172.144531 102.644531 179.902344 107.511719 186.390625 114.0625 C 191.613281 119.347656 195.921875 124.597656 200.5 129.550781 C 202.480469 131.691406 204.488281 133.789062 206.699219 135.761719 C 209.664062 138.40625 212.925781 140.839844 216.855469 142.980469 C 217.058594 143.109375 217.21875 143.277344 217.320312 143.445312 C 220.296875 145.25 223.328125 146.886719 226.449219 148.355469 C 230.40625 150.242188 234.453125 151.964844 238.503906 153.6875 C 261.269531 161.410156 283.449219 170.476562 304.582031 181.808594 C 308.53125 183.90625 312.539062 186.132812 316.585938 188.484375 C 311.203125 183.699219 305.976562 178.660156 300.902344 173.457031 C 295.332031 170.558594 289.53125 167.875 284.125 164.765625 C 280.390625 162.625 276.863281 160.277344 273.71875 157.503906 C 270.894531 154.988281 268.347656 152.214844 266 149.277344 C 260.710938 142.605469 256.324219 135.132812 250.730469 128.753906 C 245.445312 122.664062 239.777344 117.207031 235.347656 110.828125 C 232.351562 106.503906 229.910156 101.804688 228.519531 96.222656 C 227.316406 91.4375 226.636719 86.523438 225.605469 81.65625 C 225.167969 79.640625 224.675781 77.625 224.046875 75.652344 C 223.683594 74.476562 223.273438 73.34375 222.835938 72.210938 C 221.035156 67.550781 218.777344 63.101562 217.148438 58.359375 C 216.375 56.132812 214.375 51.644531 215.066406 49.207031 C 215.507812 47.65625 216.695312 46.480469 219.484375 46.648438 C 224.070312 46.941406 228.773438 49.417969 233.234375 53.152344 C 242.144531 60.542969 250.132812 72.796875 255.164062 79.304688 C 261.875 88.078125 269.582031 96.976562 276.335938 106.335938 C 280.949219 112.71875 285.117188 119.347656 288.265625 126.234375 C 291.957031 134.417969 299.269531 154.105469 306.804688 169.007812 C 309.515625 174.378906 312.332031 179.039062 314.867188 182.4375 C 315.117188 182.773438 315.367188 183.109375 315.605469 183.40625 C 321.363281 188.691406 327.273438 193.730469 333.171875 198.472656 C 364.164062 217.992188 397.433594 243.136719 431.203125 272.308594 C 425.554688 265.800781 420.097656 259.128906 414.972656 252.285156 C 410.824219 246.703125 406.867188 241.035156 403.226562 235.160156 C 397.488281 229.117188 391.597656 223.113281 386.1875 216.773438 C 382.011719 211.820312 378.121094 206.699219 374.773438 201.117188 C 371.847656 196.25 369.496094 191.042969 367.496094 185.671875 C 362.957031 173.496094 360.140625 160.402344 355.53125 148.480469 C 354.472656 145.753906 353.285156 143.066406 352.023438 140.378906 C 346.882812 129.550781 340.488281 119.265625 335.828125 108.183594 C 331.742188 98.445312 328.789062 88.457031 324.777344 78.757812 C 323.101562 74.730469 321.25 70.785156 319.023438 66.921875 C 315.652344 61.046875 312.113281 55.378906 308.460938 49.796875 C 302.949219 41.359375 297.175781 33.171875 291.285156 24.90625 C 289.726562 22.722656 287.050781 18.0625 285.433594 13.613281 C 284.15625 10.128906 283.632812 6.730469 284.523438 4.421875 C 285.242188 2.449219 286.863281 1.441406 288.914062 1.0625 C 292.167969 0.515625 296.726562 2.070312 298.71875 2.867188 C 302.957031 4.589844 306.824219 6.855469 310.449219 9.414062 C 315.808594 13.234375 320.628906 17.769531 325.363281 22.46875 C 341.726562 38.839844 356.875 55.125 369.183594 73.511719 C 377.414062 85.8125 384.351562 99.035156 389.632812 113.765625 C 392.667969 122.457031 394.929688 131.523438 396.636719 140.714844 C 399.152344 154.316406 400.460938 168.25 401.378906 181.808594 C 401.804688 188.148438 401.621094 194.863281 401.554688 201.539062 C 401.511719 205.859375 401.492188 210.183594 401.867188 214.382812 C 402.15625 217.699219 402.753906 220.886719 403.53125 224.035156 C 403.878906 224.667969 404.226562 225.296875 404.585938 225.925781 C 409.046875 233.859375 414 241.582031 419.378906 249.054688 C 433.972656 269.371094 451.402344 288.050781 468.1875 305.640625 C 502.753906 338.101562 537.160156 374.070312 569.519531 411.738281 C 574.660156 417.722656 579.75 423.75 584.777344 429.8125 C 584.832031 429.855469 584.882812 429.902344 584.933594 429.949219 C 585.105469 430.085938 585.226562 430.261719 585.308594 430.449219 C 607.382812 457.085938 628.308594 484.398438 647.40625 511.8125 C 647.820312 512.410156 648.238281 513.007812 648.652344 513.605469 C 644.121094 503.535156 640.136719 493.441406 636.597656 483.25 C 632.328125 470.957031 628.722656 458.523438 625.535156 445.863281 C 625.121094 445.324219 624.996094 444.59375 624.710938 443.96875 C 620.261719 434.128906 615.820312 424.386719 609.90625 415.289062 C 606.03125 409.320312 601.53125 403.796875 597.78125 397.773438 C 596.128906 395.117188 594.617188 392.359375 593.359375 389.4375 C 591.609375 385.390625 590.210938 381.21875 589.015625 376.980469 C 586.304688 367.328125 584.664062 357.324219 582.121094 347.671875 C 579.515625 337.335938 576.324219 327.425781 573.96875 317.257812 C 572.382812 310.410156 571.167969 303.445312 570.738281 296.191406 C 570.027344 285.027344 571.328125 273.734375 573.804688 262.570312 C 577.457031 246.117188 583.675781 229.914062 589.734375 214.96875 C 594.230469 203.929688 598.59375 192.765625 602.796875 181.515625 C 607 170.308594 611.046875 159.015625 614.8125 147.683594 C 615.964844 144.199219 620.667969 125.519531 625.101562 116.117188 C 626.683594 112.757812 628.425781 110.492188 629.859375 109.863281 C 631.097656 109.359375 632.285156 109.484375 633.410156 110.410156 C 636.777344 113.222656 638.816406 117.25 640.035156 121.699219 C 641.699219 127.828125 641.796875 134.753906 641.953125 140.210938 C 642.0625 144.074219 642.113281 147.933594 642.113281 151.796875 C 642.105469 167.117188 641.417969 182.480469 641.859375 197.84375 C 642.359375 218.371094 644.738281 238.644531 645.929688 259.042969 C 646.441406 267.816406 646.734375 276.632812 646.570312 285.53125 C 646.4375 292.5 645.917969 299.429688 645.1875 306.320312 C 643.5 322.273438 640.664062 338.054688 638.890625 354.058594 C 638.484375 357.691406 638.332031 361.339844 638.28125 364.992188 C 638.152344 373.695312 638.660156 382.449219 638.363281 391.132812 C 637.863281 403.917969 632.515625 415.847656 630.101562 428.269531 C 629.492188 431.421875 629.171875 434.597656 629.050781 437.847656 C 631.230469 446.863281 633.589844 455.761719 636.175781 464.585938 C 643.53125 489.660156 652.863281 514.066406 665.847656 538.847656 C 666.621094 540.316406 667.679688 541.6875 668.433594 543.175781 Z M 662.710938 590.445312 C 659.890625 587.214844 657.042969 584.003906 654.019531 580.964844 C 649.894531 576.820312 645.492188 572.925781 640.425781 569.625 C 638.6875 568.488281 636.871094 567.480469 635.011719 566.53125 C 630.507812 564.230469 625.785156 562.28125 621.367188 559.859375 C 608.871094 552.996094 596.742188 546.117188 584.246094 539.800781 C 576 535.628906 567.601562 531.703125 558.820312 528.195312 C 545.941406 522.992188 532.6875 518.910156 519.664062 514.113281 C 514.03125 512.035156 508.441406 509.824219 502.941406 507.34375 C 493.1875 502.90625 469.988281 488.332031 450.910156 481.878906 C 442.367188 478.996094 434.726562 477.570312 429.746094 480.058594 C 431.316406 482.210938 434.910156 485.949219 438.664062 489.652344 C 441.296875 492.253906 444 494.769531 446.75 497.242188 C 457.84375 507.214844 469.671875 516.425781 480.484375 526.679688 C 488.792969 534.628906 496.6875 542.730469 505.25 550.082031 C 510.878906 554.914062 516.792969 559.425781 523.328125 563.328125 C 526.878906 565.445312 530.589844 566.953125 534.398438 568.117188 C 543.726562 570.988281 553.585938 571.929688 562.964844 574.835938 C 573.714844 578.148438 584.105469 582.25 594.730469 585.75 C 599.226562 587.226562 603.757812 588.589844 608.386719 589.742188 C 618.835938 592.332031 629.714844 593.347656 640.453125 594.824219 C 647.785156 595.828125 655.039062 597.066406 662.085938 598.976562 C 666.195312 600.085938 670.285156 601.320312 674.167969 603.109375 C 673.382812 602.320312 672.613281 601.523438 671.851562 600.71875 C 666.800781 597.222656 661.523438 593.992188 655.949219 591.085938 C 652.148438 589.09375 648.296875 587.257812 644.398438 585.558594 C 639.605469 584.425781 634.929688 583.90625 630.257812 583.839844 C 627.503906 583.800781 624.753906 583.972656 621.96875 584.210938 C 619.242188 584.445312 616.488281 584.691406 613.664062 585.207031 C 613.042969 585.359375 612.417969 584.976562 612.273438 584.355469 C 612.121094 583.734375 612.503906 583.109375 613.125 582.960938 C 615.984375 582.101562 618.78125 581.363281 621.605469 580.972656 C 624.527344 580.566406 627.445312 580.5 630.351562 580.628906 C 631.039062 580.65625 631.726562 580.703125 632.410156 580.757812 C 629.070312 579.527344 625.703125 578.375 622.316406 577.269531 C 617.621094 575.738281 612.886719 574.316406 608.125 572.953125 C 600.066406 571.203125 591.21875 568.292969 582.800781 566.929688 C 577.820312 566.125 572.988281 565.8125 568.546875 566.808594 C 567.925781 566.925781 567.335938 567.164062 566.761719 567.464844 C 565.214844 568.269531 563.765625 569.433594 562.273438 570.191406 C 561.882812 570.421875 561.378906 570.292969 561.148438 569.902344 C 560.921875 569.511719 561.054688 569.007812 561.445312 568.78125 C 562.851562 567.839844 564.144531 566.46875 565.621094 565.507812 C 566.363281 565.019531 567.15625 564.660156 567.992188 564.429688 C 569.8125 563.988281 571.699219 563.738281 573.636719 563.640625 C 562.3125 560.546875 551.058594 557.226562 540.078125 553.105469 C 534.503906 550.988281 529.136719 548.214844 523.953125 545.066406 C 516.304688 540.421875 509.03125 535.011719 501.769531 530.175781 C 501.285156 529.863281 501.144531 529.210938 501.457031 528.730469 C 501.769531 528.242188 502.421875 528.097656 502.910156 528.414062 C 510.289062 532.988281 517.746094 538.058594 525.460938 542.503906 C 530.5625 545.4375 535.761719 548.117188 541.195312 550.097656 C 546.386719 552.011719 551.636719 553.746094 556.925781 555.359375 C 554.898438 554.109375 552.964844 552.824219 551.230469 551.53125 C 549.039062 549.902344 547.191406 548.25 545.804688 546.777344 C 541.382812 541.929688 538.007812 536.085938 533.898438 530.957031 C 532.886719 529.695312 531.839844 528.472656 530.707031 527.328125 C 530.414062 527.054688 530.402344 526.59375 530.675781 526.296875 C 530.953125 526.007812 531.410156 525.996094 531.703125 526.269531 C 533.578125 527.917969 535.285156 529.746094 536.917969 531.664062 C 540.605469 535.992188 543.898438 540.75 547.953125 544.691406 C 549.289062 546.027344 551.101562 547.449219 553.136719 548.96875 C 555.699219 550.875 558.636719 552.882812 561.644531 554.777344 C 563.757812 556.113281 565.898438 557.398438 567.957031 558.558594 C 583.515625 562.871094 599.285156 566.53125 614.761719 571.074219 C 614.15625 570.75 613.5625 570.425781 612.960938 570.09375 C 609.085938 567.949219 605.410156 565.484375 601.9375 562.722656 C 600.859375 561.808594 600.011719 560.773438 599.332031 559.628906 C 597.984375 557.351562 597.296875 554.707031 595.796875 552.460938 C 595.042969 551.304688 594.152344 550.21875 593.199219 549.175781 C 591.703125 547.542969 590.085938 545.996094 588.628906 544.417969 C 588.320312 544.128906 588.308594 543.640625 588.601562 543.332031 C 588.894531 543.027344 589.382812 543.011719 589.691406 543.308594 C 591.34375 544.703125 593.144531 546.042969 594.828125 547.5 C 596.007812 548.523438 597.109375 549.601562 598.078125 550.777344 C 599.804688 552.898438 600.785156 555.484375 602.34375 557.664062 C 602.882812 558.417969 603.511719 559.105469 604.3125 559.679688 C 606.117188 561.027344 608.011719 562.242188 609.90625 563.445312 C 611.820312 564.660156 613.757812 565.839844 615.714844 566.988281 C 621.464844 570.371094 627.382812 573.511719 633.066406 577.003906 C 641.460938 580.039062 649.707031 583.523438 657.71875 587.699219 C 659.40625 588.589844 661.070312 589.503906 662.710938 590.445312 Z M 501.121094 373.742188 C 497.742188 370.550781 494.503906 367.207031 491.089844 364.074219 C 487.738281 361.007812 484.25 358.089844 480.203125 355.789062 C 474.523438 352.546875 468.53125 349.964844 462.40625 347.664062 C 453.066406 344.15625 443.441406 341.300781 434.167969 337.8125 C 421.613281 333.082031 409.53125 327.722656 397.082031 323.035156 C 391.824219 321.054688 386.507812 319.191406 381.054688 317.554688 C 371.097656 314.542969 360.914062 312.449219 350.640625 310.828125 C 335.117188 308.386719 319.375 307.050781 303.816406 305.582031 C 291.84375 304.441406 279.757812 303.230469 267.679688 302.804688 C 259.6875 302.523438 251.6875 302.554688 243.722656 303.300781 C 241.289062 303.515625 235.609375 304.40625 231.273438 306.308594 C 228.902344 307.351562 226.785156 308.515625 226.554688 310.355469 C 226.605469 310.398438 226.65625 310.4375 226.703125 310.472656 C 229.382812 312.484375 237.503906 315.125 238.429688 315.53125 C 247.332031 319.425781 256.320312 323.351562 265.203125 327.464844 C 271.144531 330.21875 277.042969 333.054688 282.828125 336.027344 C 295.503906 342.605469 308.304688 350.554688 321.53125 357.195312 C 330.277344 361.585938 339.207031 365.402344 348.4375 367.808594 C 354.648438 369.421875 360.949219 370.328125 367.292969 370.875 C 382.378906 372.160156 397.726562 371.378906 412.75 372.738281 C 414.730469 372.917969 416.703125 373.175781 418.667969 373.472656 C 426.324219 374.636719 433.875 376.5 441.589844 377.285156 C 448.316406 377.96875 454.980469 377.742188 461.625 377.320312 C 471.917969 376.664062 482.152344 375.429688 492.371094 375.933594 C 493.738281 376 495.101562 376.097656 496.464844 376.234375 C 485.867188 371.699219 474.855469 367.929688 463.324219 365.125 C 454.871094 363.007812 446.453125 361.71875 438.019531 360.789062 C 431.335938 360.054688 424.648438 359.550781 417.925781 359.070312 C 415.976562 359.210938 414.035156 359.382812 412.09375 359.605469 C 408.546875 360.011719 405.019531 360.589844 401.503906 361.527344 C 400.429688 361.800781 399.449219 362.277344 398.492188 362.820312 C 395.972656 364.242188 393.65625 366.148438 390.949219 367.175781 C 389.730469 367.636719 388.464844 367.960938 387.175781 368.199219 C 384.320312 368.722656 381.347656 368.824219 378.527344 369.203125 C 378.058594 369.285156 377.613281 368.96875 377.535156 368.503906 C 377.457031 368.035156 377.769531 367.589844 378.238281 367.511719 C 380.613281 367.03125 383.109375 366.738281 385.535156 366.242188 C 387.085938 365.921875 388.601562 365.519531 390.035156 364.898438 C 392.601562 363.820312 394.71875 361.835938 397.121094 360.433594 C 398.285156 359.753906 399.515625 359.210938 400.84375 358.882812 C 402.101562 358.589844 403.355469 358.332031 404.613281 358.113281 C 402.824219 357.976562 401.027344 357.828125 399.230469 357.675781 C 388.09375 356.6875 376.78125 354.777344 365.625 352.175781 C 354.488281 349.582031 343.511719 346.296875 333.027344 342.578125 C 332.546875 342.410156 332.289062 341.886719 332.453125 341.410156 C 332.617188 340.925781 333.144531 340.671875 333.625 340.835938 C 344.105469 344.308594 355.070312 347.335938 366.175781 349.691406 C 369.75 350.445312 373.339844 351.128906 376.933594 351.738281 C 374.558594 350.777344 372.203125 349.835938 369.898438 348.730469 C 368.238281 347.9375 366.613281 347.050781 365.023438 346.027344 C 362.839844 344.597656 360.882812 342.972656 359.121094 341.164062 C 356.546875 338.511719 354.363281 335.527344 351.738281 332.851562 C 351.402344 332.53125 351.386719 331.996094 351.703125 331.664062 C 352.023438 331.320312 352.554688 331.308594 352.890625 331.628906 C 354.902344 333.347656 356.789062 335.152344 358.617188 337.015625 C 359.8125 338.226562 360.96875 339.472656 362.207031 340.648438 C 363.492188 341.867188 364.832031 343.042969 366.332031 344.082031 C 368.304688 345.464844 370.355469 346.601562 372.445312 347.640625 C 375.671875 349.25 378.988281 350.628906 382.269531 352.296875 C 382.429688 352.371094 382.550781 352.496094 382.628906 352.636719 C 388.265625 353.457031 393.898438 354.078125 399.480469 354.453125 C 412.621094 355.375 425.53125 355.683594 438.417969 356.914062 C 441.109375 357.171875 443.804688 357.46875 446.492188 357.820312 C 445.96875 357.507812 445.445312 357.183594 444.925781 356.855469 C 442.847656 355.539062 440.835938 354.054688 438.71875 352.671875 C 434.714844 349.90625 430.859375 348.09375 427.34375 345.554688 C 425.003906 343.859375 422.820312 341.875 420.839844 339.109375 C 420.652344 338.878906 420.691406 338.539062 420.921875 338.351562 C 421.148438 338.171875 421.488281 338.207031 421.671875 338.4375 C 423.824219 340.832031 426.089844 342.464844 428.460938 343.832031 C 432.226562 345.992188 436.238281 347.429688 440.503906 349.785156 C 442.261719 350.804688 443.996094 351.816406 445.675781 352.867188 C 448.179688 354.445312 450.617188 356.03125 453.203125 357.339844 C 455.425781 358.460938 457.777344 359.253906 460.273438 360.015625 C 460.5625 360.105469 460.835938 360.210938 461.113281 360.316406 C 462.183594 360.546875 463.253906 360.789062 464.324219 361.039062 C 477.171875 364.199219 489.398438 368.503906 501.121094 373.742188 Z M 330.382812 223.070312 C 324.546875 221.351562 318.679688 219.796875 312.777344 218.410156 C 312.097656 218.410156 311.417969 218.410156 310.742188 218.410156 C 307.242188 218.496094 303.726562 218.285156 300.222656 218.160156 C 297.960938 218.074219 295.699219 217.992188 293.449219 218.160156 C 290.894531 218.285156 288.433594 218.789062 286.015625 219.460938 C 280.125 221.140625 274.507812 223.953125 268.675781 225.714844 C 268.457031 225.800781 268.21875 225.671875 268.144531 225.464844 C 268.066406 225.253906 268.179688 225.003906 268.398438 224.917969 C 274.074219 222.609375 279.40625 219.167969 285.171875 216.941406 C 287.742188 215.976562 290.398438 215.261719 293.183594 214.886719 C 293.375 214.886719 293.570312 214.886719 293.761719 214.84375 C 292.042969 214.632812 290.339844 214.296875 288.636719 213.878906 C 288.085938 213.753906 287.535156 213.625 286.988281 213.5 C 283.394531 212.953125 279.792969 212.492188 276.183594 212.074219 C 273.503906 211.78125 270.820312 211.527344 268.132812 211.277344 C 267.679688 211.316406 267.21875 211.359375 266.765625 211.402344 C 263.855469 211.738281 260.992188 212.242188 258.167969 212.996094 C 255.738281 213.625 253.339844 214.425781 250.949219 215.261719 C 247.320312 216.566406 243.714844 217.949219 240.164062 219.292969 C 238.105469 220.089844 235.90625 220.71875 233.660156 221.265625 C 230.367188 222.0625 226.976562 222.691406 223.820312 223.363281 C 223.539062 223.40625 223.257812 223.238281 223.191406 222.945312 C 223.125 222.691406 223.296875 222.398438 223.578125 222.316406 C 226.671875 221.476562 229.996094 220.679688 233.21875 219.671875 C 235.355469 219 237.445312 218.285156 239.394531 217.40625 C 242.902344 215.894531 246.429688 214.214844 250.0625 212.828125 C 252.476562 211.949219 254.9375 211.148438 257.425781 210.519531 C 252.988281 210.269531 248.527344 210.101562 244.0625 210.058594 C 226.332031 209.765625 208.433594 210.855469 190.429688 213.792969 C 189.992188 213.878906 189.574219 213.625 189.488281 213.164062 C 189.40625 212.746094 189.691406 212.324219 190.128906 212.242188 C 200.464844 209.976562 210.800781 208.253906 221.113281 207.164062 C 218.855469 206.492188 216.621094 205.691406 214.359375 204.855469 C 212.242188 204.054688 210.125 203.21875 207.882812 202.460938 C 207.414062 202.335938 207.140625 201.832031 207.269531 201.371094 C 207.40625 200.910156 207.890625 200.613281 208.363281 200.78125 C 211.085938 201.410156 213.699219 202.125 216.238281 202.964844 C 220.09375 204.222656 223.800781 205.527344 227.726562 206.40625 C 227.851562 206.40625 227.972656 206.449219 228.097656 206.492188 C 233.421875 206.027344 238.738281 205.777344 244.050781 205.652344 C 248.398438 205.566406 252.742188 205.566406 257.074219 205.734375 C 254.492188 204.433594 251.992188 202.878906 249.398438 201.621094 C 248.035156 200.910156 246.648438 200.320312 245.195312 199.902344 L 237.460938 198.261719 C 237.140625 198.222656 236.929688 197.886719 236.992188 197.59375 C 237.050781 197.257812 237.363281 197.046875 237.683594 197.089844 L 245.648438 198.097656 C 247.25 198.429688 248.796875 198.933594 250.320312 199.566406 C 253.683594 200.949219 256.894531 202.878906 260.285156 204.054688 C 261.796875 204.601562 263.347656 205.023438 264.910156 205.359375 C 266.933594 205.820312 268.988281 206.15625 271.035156 206.53125 C 272.933594 206.699219 274.835938 206.867188 276.726562 207.035156 C 283.96875 207.792969 291.175781 208.839844 298.324219 210.183594 C 302.425781 210.941406 306.519531 211.78125 310.589844 212.703125 C 305.820312 210.308594 301.0625 207.875 296.191406 205.734375 C 291.210938 203.511719 286.152344 201.453125 280.910156 199.773438 C 262.066406 193.605469 242.558594 190.960938 223.125 191.503906 C 203.644531 192.007812 184.230469 195.703125 165.613281 202.25 C 152.53125 206.785156 138.816406 211.234375 125.632812 216.648438 C 116.871094 220.21875 108.34375 224.203125 100.417969 228.988281 C 99.019531 229.789062 93.339844 233.523438 89.726562 237.425781 C 88.660156 238.558594 87.769531 239.695312 87.289062 240.785156 C 86.875 241.707031 86.753906 242.589844 87.519531 243.21875 C 89.101562 244.480469 91.34375 245.191406 93.738281 245.570312 C 97.585938 246.199219 101.820312 246.03125 104.789062 246.074219 C 110.910156 246.199219 117.09375 245.484375 123.277344 244.351562 C 137.714844 241.625 152.167969 236.503906 165.984375 233.398438 C 178.105469 230.667969 190.464844 228.78125 202.902344 227.8125 C 215.335938 226.808594 227.839844 226.722656 240.25 227.519531 C 249.089844 228.109375 258.097656 229.789062 267.058594 230.457031 C 270.824219 230.753906 274.585938 230.878906 278.328125 230.667969 C 294.53125 229.828125 309.929688 224.121094 325.714844 223.195312 C 327.261719 223.113281 328.820312 223.070312 330.382812 223.070312 Z M 167.179688 133.160156 C 164.253906 131.773438 161.433594 130.261719 158.765625 128.753906 C 153.117188 125.476562 147.714844 121.65625 141.992188 118.46875 C 139.617188 117.125 137.191406 115.90625 134.648438 114.941406 C 124.714844 111.039062 109.976562 107.34375 95.109375 104.699219 C 80.144531 102.097656 65.039062 100.542969 54.542969 101.214844 C 47.597656 101.636719 40.65625 102.644531 33.902344 104.363281 C 27.167969 106.042969 20.609375 108.4375 14.417969 111.625 C 12.171875 112.757812 9.046875 114.480469 6.746094 116.703125 C 5.726562 117.671875 4.847656 118.761719 4.371094 119.9375 C 6.882812 120.777344 12.066406 122.328125 15.53125 123.167969 C 21.835938 124.722656 28.179688 126.023438 34.542969 127.199219 C 40.925781 128.417969 47.332031 129.507812 53.761719 130.558594 C 63.667969 132.234375 73.722656 133.539062 83.65625 135.300781 C 87.957031 136.054688 92.234375 136.894531 96.464844 137.902344 C 104.464844 139.75 112.636719 142.644531 120.863281 144.367188 C 124.324219 145.082031 127.789062 145.625 131.261719 145.753906 C 134.128906 145.835938 136.972656 145.792969 139.816406 145.667969 C 146.609375 145.332031 153.355469 144.535156 160.160156 144.28125 C 170.203125 143.988281 181.300781 144.15625 192.324219 145.082031 C 193.398438 145.164062 194.476562 145.25 195.546875 145.375 C 184.855469 142.394531 174.09375 139.582031 163.316406 136.851562 C 162.378906 136.851562 161.4375 136.769531 160.496094 136.726562 C 152.902344 136.097656 145.375 134.082031 137.78125 134.207031 C 135.496094 134.207031 133.28125 134.460938 131.082031 134.710938 C 128.398438 135.046875 125.757812 135.511719 123.09375 135.929688 C 120.363281 136.390625 117.65625 136.769531 114.878906 137.0625 C 114.53125 137.148438 114.191406 136.9375 114.113281 136.558594 C 114.042969 136.222656 114.265625 135.886719 114.613281 135.804688 C 116.878906 135.089844 119.050781 134.25 121.269531 133.496094 C 123.539062 132.738281 125.789062 131.984375 128.105469 131.4375 C 130.480469 130.851562 132.898438 130.472656 135.378906 130.304688 C 134.964844 130.261719 134.542969 130.179688 134.128906 130.09375 C 130.402344 129.339844 126.699219 128.457031 122.976562 127.449219 C 120.664062 126.777344 118.300781 126.273438 116.003906 125.5625 C 114.554688 125.101562 113.140625 124.554688 111.765625 123.882812 C 109.625 123.335938 107.488281 122.792969 105.355469 122.203125 C 104.933594 122.203125 104.511719 122.203125 104.085938 122.203125 C 98.804688 121.996094 93.542969 121.28125 88.257812 121.65625 C 86.269531 121.785156 84.320312 122.078125 82.390625 122.457031 C 80.542969 122.792969 78.710938 123.210938 76.882812 123.632812 C 74.074219 124.304688 71.277344 124.933594 68.453125 125.5625 C 67.953125 125.6875 67.4375 125.394531 67.292969 124.890625 C 67.15625 124.386719 67.445312 123.882812 67.945312 123.757812 C 71.875 122.414062 75.695312 120.777344 79.683594 119.726562 C 82.410156 118.972656 85.214844 118.550781 88.078125 118.34375 C 89.109375 118.300781 90.136719 118.300781 91.167969 118.300781 C 86.042969 116.875 80.9375 115.363281 75.847656 113.808594 C 75.074219 113.597656 74.621094 112.800781 74.835938 112.046875 C 75.050781 111.25 75.859375 110.785156 76.632812 110.996094 C 85.503906 113.304688 94.460938 115.445312 103.441406 117.628906 C 102.269531 116.539062 101.097656 115.445312 99.867188 114.394531 C 98.5 113.347656 97.101562 112.382812 95.65625 111.457031 C 94.636719 110.828125 93.570312 110.242188 92.535156 109.652344 C 90.105469 108.226562 87.691406 106.757812 85.234375 105.289062 C 85.007812 105.160156 84.925781 104.867188 85.046875 104.65625 C 85.167969 104.40625 85.449219 104.320312 85.675781 104.449219 C 88.3125 105.75 90.957031 106.925781 93.5 108.308594 C 96.070312 109.695312 98.519531 111.25 100.894531 113.054688 C 103.574219 114.898438 106.035156 117.082031 108.734375 118.886719 C 128.128906 123.632812 147.695312 128.25 167.179688 133.160156 Z M 204.832031 138.363281 C 203.597656 137.441406 202.417969 136.433594 201.277344 135.425781 C 195.078125 129.886719 190.109375 123.296875 183.585938 116.875 C 177.128906 110.449219 169.425781 105.707031 162.472656 100 C 159.402344 97.4375 156.472656 94.75 153.835938 91.605469 C 151.738281 89.128906 149.800781 86.484375 147.945312 83.796875 C 143.734375 77.710938 139.933594 71.289062 135.453125 65.410156 C 131.097656 59.703125 125.980469 54.121094 120.433594 49.039062 C 114.894531 43.917969 108.917969 39.34375 102.792969 35.609375 C 96.070312 31.453125 89.320312 28.304688 82.289062 26.039062 C 75.242188 23.769531 67.90625 22.429688 60.03125 21.964844 C 59.449219 21.925781 53.515625 22.09375 50.101562 22.175781 C 51.511719 24.777344 54.9375 28.347656 55.613281 29.058594 C 57.152344 30.699219 58.824219 32.167969 60.546875 33.59375 C 64.738281 37.078125 69.261719 40.140625 73.347656 43.75 C 74.714844 45.011719 76.027344 46.3125 77.296875 47.65625 C 80.1875 50.71875 82.890625 53.910156 85.722656 57.015625 C 90.253906 61.925781 94.511719 67.214844 99 72.253906 C 100.894531 74.351562 102.832031 76.449219 104.851562 78.382812 C 108.347656 81.78125 112.128906 85.011719 116.035156 88.078125 C 121.945312 92.738281 128.148438 97.058594 134.132812 101.34375 C 140.304688 105.792969 146.132812 110.535156 152.339844 114.816406 C 154.941406 116.578125 157.609375 118.300781 160.40625 119.851562 C 166.5625 123.296875 172.863281 126.191406 179.253906 128.878906 C 179.617188 129.046875 179.988281 129.171875 180.355469 129.339844 C 180.191406 129.214844 180.027344 129.128906 179.867188 129.003906 C 174.886719 125.605469 170.191406 121.742188 165.738281 117.585938 L 164.296875 116.578125 C 162.171875 115.027344 160.042969 113.597656 157.90625 112.128906 C 155.808594 110.746094 153.707031 109.316406 151.414062 108.101562 C 147.90625 106.042969 144.285156 104.824219 140.90625 102.851562 C 139.429688 101.972656 138.011719 101.007812 136.65625 99.789062 C 136.332031 99.539062 136.273438 99.035156 136.53125 98.738281 C 136.78125 98.402344 137.253906 98.363281 137.578125 98.613281 C 138.988281 99.539062 140.4375 100.25 141.902344 100.839844 C 145.550781 102.347656 149.300781 103.1875 153.070312 104.867188 C 153.335938 104.992188 153.601562 105.121094 153.859375 105.289062 C 152.597656 103.820312 151.351562 102.390625 150.132812 100.921875 C 147.359375 97.605469 144.753906 94.207031 142.132812 90.890625 C 141.675781 90.386719 141.742188 89.546875 142.28125 89.085938 C 142.8125 88.664062 143.617188 88.707031 144.078125 89.253906 C 146.917969 92.359375 149.84375 95.464844 152.75 98.65625 C 157.027344 103.316406 161.328125 108.015625 165.894531 112.421875 C 168.625 115.066406 171.429688 117.585938 174.328125 119.980469 C 173.445312 118.132812 172.691406 116.242188 171.808594 114.394531 C 171.652344 114.144531 171.734375 113.808594 171.996094 113.640625 C 172.253906 113.472656 172.59375 113.558594 172.75 113.808594 C 174.273438 115.867188 175.671875 117.921875 177.210938 119.9375 C 178.175781 121.195312 179.1875 122.371094 180.382812 123.464844 C 181.699219 124.847656 183.125 126.023438 184.578125 127.199219 C 185.363281 127.828125 186.164062 128.417969 186.980469 129.003906 C 192.710938 132.53125 198.742188 135.511719 204.832031 138.363281 Z M 304.128906 172.324219 C 304.476562 172.53125 304.828125 172.699219 305.171875 172.910156 C 304.742188 172.113281 304.308594 171.316406 303.878906 170.519531 C 296.050781 155.699219 288.625 135.972656 284.835938 127.785156 C 281.777344 121.113281 277.714844 114.773438 273.25 108.5625 C 266.511719 99.242188 258.855469 90.34375 252.179688 81.570312 C 247.980469 76.03125 241.644531 66.292969 234.457031 58.90625 C 232.175781 56.597656 229.796875 54.496094 227.394531 52.859375 C 224.707031 51.011719 222.007812 49.710938 219.257812 49.375 C 218.464844 49.292969 217.9375 49.292969 217.671875 49.628906 C 217.464844 49.921875 217.453125 50.300781 217.476562 50.71875 C 217.566406 52.902344 219.058594 55.882812 219.628906 57.519531 C 221.269531 62.179688 223.535156 66.628906 225.351562 71.246094 C 225.816406 72.421875 226.253906 73.597656 226.644531 74.8125 C 227.300781 76.871094 227.828125 78.96875 228.292969 81.066406 C 229.351562 85.894531 230.066406 90.765625 231.296875 95.550781 C 232.632812 100.710938 234.945312 105.121094 237.792969 109.109375 C 242.238281 115.320312 247.953125 120.609375 253.273438 126.527344 C 258.972656 132.867188 263.601562 140.253906 268.890625 146.96875 C 271.097656 149.78125 273.398438 152.511719 276.019531 154.945312 C 278.925781 157.671875 282.222656 159.980469 285.699219 162.121094 C 288.777344 164.011719 292.003906 165.773438 295.234375 167.496094 C 285.707031 157.128906 277.011719 146.171875 269.515625 135.046875 C 269.039062 134.542969 268.550781 134.039062 268.054688 133.539062 C 266.070312 131.523438 263.925781 129.71875 261.636719 128.121094 C 260.113281 127.074219 258.582031 126.023438 256.871094 125.183594 C 256.367188 125.015625 256.117188 124.429688 256.316406 123.925781 C 256.507812 123.421875 257.074219 123.167969 257.578125 123.378906 C 259.542969 123.964844 261.414062 124.722656 263.15625 125.730469 C 263.429688 125.898438 263.699219 126.066406 263.964844 126.234375 C 263.472656 125.351562 262.992188 124.46875 262.527344 123.589844 C 259.390625 117.542969 256.738281 111.25 253.496094 105.328125 C 253.15625 104.742188 253.359375 103.945312 253.953125 103.609375 C 254.546875 103.273438 255.304688 103.484375 255.640625 104.070312 C 256.402344 105.371094 257.140625 106.671875 257.867188 107.972656 C 257.570312 105.917969 257.421875 103.820312 257.277344 101.679688 C 257.214844 101.175781 257.570312 100.710938 258.070312 100.671875 C 258.570312 100.585938 259.027344 100.964844 259.085938 101.46875 C 259.558594 104.238281 260.242188 106.925781 260.851562 109.613281 C 261.402344 112.085938 261.902344 114.523438 262.621094 116.914062 C 263.972656 119.476562 265.34375 122.035156 266.789062 124.554688 C 267.738281 126.234375 268.703125 127.871094 269.738281 129.464844 C 270.816406 131.144531 271.925781 132.824219 273.058594 134.460938 C 275.671875 137.523438 278.019531 140.839844 280.261719 144.15625 C 279.988281 143.191406 279.757812 142.226562 279.566406 141.21875 C 279.425781 140.335938 279.390625 139.414062 279.445312 138.53125 C 279.546875 136.726562 279.988281 134.921875 279.929688 133.117188 C 279.914062 132.152344 279.761719 131.230469 279.53125 130.261719 C 279.167969 128.710938 278.640625 127.199219 278.148438 125.8125 C 277.972656 125.4375 278.152344 124.972656 278.546875 124.765625 C 278.9375 124.597656 279.398438 124.804688 279.570312 125.183594 C 280.308594 126.570312 281.101562 128.039062 281.714844 129.550781 C 282.152344 130.640625 282.460938 131.773438 282.632812 132.867188 C 282.925781 135.007812 282.625 137.148438 282.765625 139.289062 C 282.792969 139.75 282.84375 140.210938 282.933594 140.632812 C 283.484375 144.15625 284.621094 147.390625 286.15625 150.410156 C 287.5625 153.183594 289.597656 155.574219 291.34375 158.261719 C 294.816406 162.332031 298.414062 166.320312 302.105469 170.222656 C 302.777344 170.894531 303.453125 171.609375 304.128906 172.324219 Z M 396.257812 223.027344 C 392.902344 216.605469 389.964844 210.058594 387.460938 203.300781 C 385.054688 196.667969 382.996094 189.910156 381.160156 183.109375 C 379.820312 181.222656 378.402344 179.289062 376.9375 177.445312 C 375.527344 175.640625 374.0625 173.917969 372.582031 172.238281 C 370.300781 169.59375 367.996094 167.074219 365.4375 164.976562 C 365.375 164.894531 365.320312 164.851562 365.269531 164.808594 C 367.1875 171.316406 369.066406 177.90625 371.367188 184.242188 C 373.242188 189.40625 375.382812 194.445312 378.117188 199.144531 C 380.476562 203.257812 383.136719 207.078125 385.980469 210.8125 C 389.222656 215.011719 392.703125 219.042969 396.257812 223.027344 Z M 379.195312 175.511719 C 376.023438 162.710938 373.40625 149.78125 370.308594 136.980469 C 369.148438 134.292969 367.933594 131.566406 366.53125 129.003906 C 364.527344 125.308594 362.164062 121.910156 358.878906 119.308594 C 357.605469 118.214844 356.234375 117.25 354.828125 116.371094 C 351.394531 114.1875 347.757812 112.296875 344.550781 109.777344 C 344.207031 109.527344 344.128906 109.066406 344.375 108.730469 C 344.625 108.351562 345.105469 108.269531 345.453125 108.519531 C 348.828125 110.746094 352.609375 112.214844 356.152344 114.101562 C 357.742188 114.984375 359.265625 115.90625 360.703125 117.039062 C 363.242188 119.097656 365.308594 121.617188 367.03125 124.34375 C 366.589844 122.792969 366.140625 121.195312 365.667969 119.644531 C 365.042969 117.542969 364.332031 115.402344 363.542969 113.261719 C 361.355469 108.4375 358.984375 103.652344 356.90625 98.78125 C 356.515625 97.859375 356.128906 96.933594 355.757812 96.011719 C 349.90625 84.804688 342.828125 73.933594 336.128906 64.699219 C 335.804688 64.277344 335.898438 63.648438 336.328125 63.3125 C 336.765625 63.019531 337.382812 63.101562 337.707031 63.523438 C 342.457031 69.734375 347.410156 76.660156 352.042969 83.964844 C 351.253906 80.226562 350.808594 76.367188 350.800781 72.421875 C 350.792969 72.125 351.050781 71.832031 351.371094 71.832031 C 351.699219 71.832031 351.972656 72.085938 351.980469 72.378906 C 352.289062 77.039062 353.3125 81.488281 354.628906 85.8125 C 355.175781 87.617188 355.78125 89.378906 356.429688 91.183594 C 357.214844 92.527344 357.984375 93.871094 358.734375 95.214844 C 363.007812 102.980469 366.664062 110.871094 369.179688 118.550781 C 371.234375 124.847656 373.0625 131.230469 374.773438 137.609375 C 375.644531 131.269531 376.972656 124.972656 377.371094 118.71875 C 377.382812 118.34375 377.699219 118.046875 378.078125 118.089844 C 378.457031 118.089844 378.753906 118.382812 378.742188 118.761719 C 378.792969 126.945312 377.476562 135.300781 377.25 143.570312 C 377.21875 144.746094 377.199219 145.878906 377.21875 147.011719 C 379.75 157 382.175781 167.035156 384.949219 176.941406 C 387.253906 185.167969 389.796875 193.308594 392.878906 201.285156 C 394.363281 205.230469 396.027344 209.09375 397.832031 212.914062 C 397.378906 209.175781 397.15625 205.398438 397.0625 201.578125 C 396.898438 194.988281 397.089844 188.398438 396.558594 182.1875 C 395.4375 168.796875 393.910156 155.113281 391.234375 141.722656 C 389.457031 132.867188 387.179688 124.136719 384.136719 115.738281 C 379.078125 101.425781 372.347656 88.625 364.46875 76.617188 C 352.507812 58.441406 337.855469 42.15625 321.953125 25.828125 C 317.496094 21.210938 312.957031 16.71875 307.882812 12.941406 C 304.570312 10.507812 301.035156 8.324219 297.136719 6.644531 C 295.960938 6.140625 293.695312 5.261719 291.515625 4.964844 C 290.636719 4.839844 289.777344 4.757812 289.042969 4.964844 C 288.535156 5.050781 288.066406 5.261719 287.84375 5.765625 C 287.15625 7.402344 287.710938 9.917969 288.628906 12.480469 C 290.101562 16.59375 292.683594 20.832031 294.144531 22.847656 C 300.144531 31.074219 306.035156 39.261719 311.65625 47.699219 C 315.410156 53.28125 319.035156 58.988281 322.503906 64.863281 C 324.855469 68.894531 326.839844 72.964844 328.605469 77.164062 C 332.671875 86.816406 335.617188 96.808594 339.726562 106.546875 C 344.363281 117.585938 350.742188 127.785156 355.855469 138.574219 C 357.160156 141.34375 358.382812 144.113281 359.476562 146.96875 C 361.605469 152.511719 363.367188 158.304688 365.082031 164.136719 C 365.09375 164.011719 365.152344 163.84375 365.25 163.71875 C 365.542969 163.296875 366.105469 163.214844 366.5 163.507812 C 370.300781 166.070312 373.984375 169.175781 377.109375 172.867188 C 377.832031 173.707031 378.527344 174.632812 379.195312 175.511719 Z M 626.515625 427 C 628.527344 414.949219 633.585938 403.351562 633.804688 391.003906 C 634 382.339844 633.339844 373.621094 633.402344 364.9375 C 633.433594 361.125 633.609375 357.316406 634.023438 353.527344 C 635.769531 337.527344 638.582031 321.746094 640.25 305.800781 C 640.953125 299.050781 641.449219 292.289062 641.566406 285.445312 C 641.722656 276.675781 641.425781 267.984375 640.921875 259.335938 C 639.726562 238.855469 637.375 218.539062 636.890625 197.96875 C 636.796875 194.109375 636.769531 190.246094 636.800781 186.34375 C 636.933594 170.980469 637.824219 155.660156 637.605469 140.296875 C 637.535156 135.132812 637.589844 128.542969 636.101562 122.75 C 635.195312 119.183594 633.722656 115.949219 631.171875 113.597656 C 630.882812 113.890625 630.339844 114.4375 629.96875 115.027344 C 628.488281 117.335938 626.917969 121.027344 625.457031 125.183594 C 622.132812 134.628906 619.324219 146.214844 618.453125 148.898438 C 614.773438 160.316406 610.847656 171.691406 606.695312 182.984375 C 602.542969 194.234375 598.167969 205.441406 593.6875 216.566406 C 587.75 231.339844 581.636719 247.25 578.089844 263.492188 C 575.738281 274.238281 574.515625 285.152344 575.234375 295.898438 C 575.730469 302.882812 576.988281 309.578125 578.589844 316.15625 C 581.054688 326.273438 584.335938 336.121094 587.050781 346.398438 C 589.488281 356.058594 591.050781 366.046875 593.636719 375.710938 C 594.722656 379.765625 595.984375 383.761719 597.59375 387.640625 C 598.726562 390.371094 600.097656 392.945312 601.597656 395.445312 C 605.234375 401.492188 609.613281 407.074219 613.371094 413.085938 C 616.320312 417.808594 618.886719 422.691406 621.265625 427.664062 C 619.183594 418.140625 617.285156 408.460938 615.46875 398.578125 C 614.871094 397.605469 614.410156 396.550781 613.867188 395.554688 C 612.355469 392.785156 610.839844 390.054688 608.796875 387.542969 C 606.753906 384.863281 604.253906 382.652344 602.046875 380.15625 C 601.046875 379.027344 600.109375 377.839844 599.277344 376.542969 C 598.84375 375.917969 599.003906 375.058594 599.628906 374.632812 C 600.253906 374.199219 601.113281 374.359375 601.542969 374.984375 C 602.089844 375.730469 602.679688 376.429688 603.289062 377.105469 C 605.90625 379.996094 608.9375 382.417969 611.4375 385.453125 C 612.25 386.511719 613 387.589844 613.691406 388.695312 C 613.085938 385.273438 612.492188 381.832031 611.898438 378.363281 C 609.835938 366.230469 606.253906 354.378906 603.359375 342.402344 C 602.109375 339.671875 600.828125 336.90625 599.472656 334.230469 C 598.472656 332.261719 597.488281 330.316406 596.320312 328.527344 C 595.671875 327.511719 594.933594 326.570312 594.152344 325.664062 C 592.210938 323.414062 590.050781 321.355469 588.300781 318.929688 C 587.246094 317.453125 586.390625 315.863281 585.632812 314.207031 C 584.546875 311.820312 583.667969 309.316406 582.648438 306.921875 C 582.476562 306.546875 582.644531 306.101562 583.019531 305.933594 C 583.394531 305.761719 583.832031 305.925781 584.003906 306.304688 C 585.140625 308.625 586.140625 311.058594 587.34375 313.378906 C 588.121094 314.867188 588.984375 316.308594 590.035156 317.621094 C 591.851562 319.921875 594.070312 321.828125 596.0625 323.949219 C 596.964844 324.917969 597.816406 325.925781 598.578125 327.019531 C 599.371094 328.195312 600.125 329.425781 600.832031 330.691406 C 600.816406 330.613281 600.804688 330.53125 600.792969 330.453125 C 599.515625 323.4375 598.710938 316.335938 598.78125 309.066406 C 598.882812 300.066406 599.527344 291.113281 600.503906 282.214844 C 600.132812 280.074219 599.886719 277.890625 599.464844 275.75 C 599.15625 274.199219 598.78125 272.6875 598.273438 271.132812 C 596.484375 265.507812 593.988281 260.386719 592.617188 254.972656 C 591.691406 251.277344 591.292969 247.457031 591.796875 243.304688 C 591.828125 242.925781 592.183594 242.632812 592.578125 242.675781 C 592.976562 242.714844 593.269531 243.050781 593.230469 243.429688 C 593.007812 247.417969 593.703125 250.941406 594.722656 254.386719 C 596.308594 259.714844 598.765625 264.792969 600.648438 270.378906 C 600.996094 271.46875 601.28125 272.601562 601.519531 273.695312 C 602.929688 262.738281 604.683594 251.824219 606.464844 240.953125 C 607.894531 232.222656 609.378906 223.492188 610.527344 214.71875 C 610.597656 214.089844 611.167969 213.625 611.800781 213.710938 C 612.441406 213.792969 612.898438 214.339844 612.824219 214.96875 C 612.027344 223.828125 610.996094 232.640625 609.800781 241.457031 C 608.019531 254.59375 605.96875 267.691406 604.640625 280.871094 C 603.90625 288.175781 603.363281 295.519531 603.167969 302.863281 C 603.730469 301.378906 604.375 299.910156 605.113281 298.449219 C 606.152344 296.484375 607.484375 294.472656 609.070312 292.5 C 612.421875 288.300781 616.703125 284.3125 619.707031 280.535156 C 621.308594 278.519531 622.628906 276.339844 623.734375 274.03125 C 625.429688 270.503906 626.648438 266.726562 627.828125 263.03125 C 627.917969 262.695312 628.238281 262.527344 628.550781 262.613281 C 628.859375 262.695312 629.035156 263.03125 628.949219 263.324219 C 627.957031 267.1875 626.882812 271.050781 625.402344 274.785156 C 624.390625 277.304688 623.199219 279.738281 621.671875 282.003906 C 619.824219 284.816406 617.46875 287.839844 615.09375 290.902344 C 613.585938 292.835938 612.082031 294.722656 610.75 296.613281 C 609.867188 297.828125 609.035156 299.027344 608.371094 300.214844 C 606.546875 303.363281 605.226562 306.589844 604.226562 309.921875 C 603.84375 311.203125 603.503906 312.5 603.199219 313.808594 C 603.476562 319.160156 604.203125 324.425781 605.199219 329.632812 C 607.820312 343.382812 612.261719 356.773438 615.308594 370.433594 C 616.097656 368.699219 617.003906 367.027344 617.511719 365.136719 C 619.714844 357.742188 621.394531 351.523438 623.96875 345.320312 C 625.644531 341.296875 627.691406 337.285156 630.464844 332.960938 C 630.675781 332.609375 631.128906 332.492188 631.476562 332.703125 C 631.828125 332.910156 631.941406 333.363281 631.734375 333.714844 C 629.332031 338.113281 627.636719 342.160156 626.261719 346.183594 C 624.125 352.460938 622.820312 358.671875 621.089844 366.085938 C 620.84375 367.085938 620.519531 368.046875 620.128906 368.972656 C 619.308594 370.914062 618.21875 372.710938 617.550781 374.734375 C 617.1875 375.707031 616.949219 376.738281 616.789062 377.808594 C 619.789062 394.785156 622.929688 411.105469 626.515625 427 Z M 108.339844 137.019531 C 108.773438 137.019531 109.109375 137.398438 109.09375 137.820312 C 109.074219 138.238281 108.707031 138.574219 108.277344 138.574219 L 106.871094 138.492188 C 106.4375 138.492188 106.101562 138.113281 106.117188 137.691406 C 106.140625 137.273438 106.503906 136.9375 106.9375 136.9375 Z M 108.339844 137.019531 "
                        fill-opacity="1" fill-rule="evenodd" />
                </g>
            </g>
        </g>
    </g>
</svg>