<svg xmlns="http://www.w3.org/2000/svg" xmlns:xlink="http://www.w3.org/1999/xlink" width="1122" zoomAndPan="magnify" viewBox="0 0 841.92 1190.250009" height="1587" preserveAspectRatio="xMidYMid meet" version="1.0"><defs><clipPath id="e2d29e4d5b"><path d="M 199 283 L 639 283 L 639 903 L 199 903 Z M 199 283 " clip-rule="nonzero"/></clipPath><clipPath id="be94bf8bec"><path d="M 57.519531 478.148438 L 639.015625 281.441406 L 784.5625 711.703125 L 203.070312 908.410156 Z M 57.519531 478.148438 " clip-rule="nonzero"/></clipPath><clipPath id="e5b5722a32"><path d="M 57.519531 478.148438 L 639.015625 281.441406 L 784.5625 711.703125 L 203.070312 908.410156 Z M 57.519531 478.148438 " clip-rule="nonzero"/></clipPath></defs><g clip-path="url(#e2d29e4d5b)"><g clip-path="url(#be94bf8bec)"><g clip-path="url(#e5b5722a32)"><path fill="#616431" d="M 199.328125 895.582031 C 199.488281 894.480469 199.546875 893.363281 199.828125 892.289062 C 201.109375 887.296875 204.15625 885.605469 209.097656 886.515625 C 213.558594 887.332031 218.121094 888.140625 222.628906 888.113281 C 232.808594 888.039062 241.621094 883.933594 249.617188 877.871094 C 258.277344 871.300781 264.667969 862.746094 271.167969 854.167969 C 275.417969 848.558594 280.636719 843.683594 285.433594 838.507812 C 289.285156 834.351562 293.25 830.3125 296.996094 826.074219 C 299.3125 823.457031 299.125 821.945312 297.496094 819.035156 C 295.757812 815.917969 294.128906 812.710938 292.792969 809.40625 C 289.835938 802.152344 287.371094 794.683594 284.195312 787.542969 C 279.492188 776.996094 277.386719 765.855469 275.921875 754.574219 C 273.757812 737.871094 272.992188 721.058594 273.339844 704.230469 C 273.742188 685.175781 274.199219 666.117188 275.203125 647.089844 C 275.910156 633.757812 279.03125 620.769531 283.515625 608.183594 C 286.464844 599.90625 289.851562 591.785156 293.195312 583.65625 C 296.457031 575.734375 299.585938 567.730469 303.351562 560.050781 C 307.761719 551.054688 312.589844 542.230469 317.613281 533.570312 C 325.003906 520.828125 332.3125 508 340.457031 495.738281 C 347.253906 485.523438 354.964844 475.863281 362.738281 466.351562 C 369.410156 458.179688 376.664062 450.496094 383.808594 442.722656 C 394.445312 431.140625 406.097656 420.613281 418.207031 410.605469 C 433.230469 398.175781 449.25 387.085938 465.824219 376.832031 C 475.273438 370.984375 484.9375 365.457031 494.539062 359.871094 C 501.5 355.824219 508.492188 351.832031 515.570312 347.980469 C 522.359375 344.273438 529.316406 340.863281 536.109375 337.15625 C 545.738281 331.914062 555.394531 326.71875 564.8125 321.121094 C 573.210938 316.136719 581.21875 310.484375 589.570312 305.398438 C 593.894531 302.757812 598.574219 300.710938 603.101562 298.40625 C 607.46875 296.164062 611.851562 293.921875 616.226562 291.703125 C 620.304688 289.628906 624.484375 287.710938 628.464844 285.472656 C 630.59375 284.277344 632.632812 283.546875 635.078125 283.90625 C 638.558594 284.421875 639.695312 285.832031 638.464844 289.0625 C 633.90625 301.089844 633.597656 313.773438 632.4375 326.332031 C 631.71875 334.023438 630.988281 341.710938 630.109375 349.382812 C 629.007812 359.066406 629.441406 368.707031 630.175781 378.402344 C 631.128906 391.03125 631.554688 403.699219 632.144531 416.359375 C 632.558594 425.375 633.292969 434.414062 633.132812 443.414062 C 632.917969 455.753906 631.976562 468.085938 631.382812 480.421875 C 631.089844 486.460938 630.964844 492.507812 630.578125 498.542969 C 630.160156 505.242188 629.597656 511.941406 628.996094 518.640625 C 628.375 525.425781 628.15625 532.304688 626.789062 538.953125 C 625.082031 547.226562 622.683594 555.410156 620.011719 563.429688 C 616.949219 572.613281 613.300781 581.609375 609.828125 590.660156 C 607.222656 597.457031 604.464844 604.199219 601.816406 610.984375 C 598.894531 618.457031 596.050781 625.976562 593.085938 633.4375 C 591.007812 638.660156 588.804688 643.835938 586.605469 649.011719 C 584.738281 653.425781 583.136719 657.996094 580.8125 662.164062 C 576.371094 670.136719 571.753906 678.027344 566.746094 685.660156 C 559.984375 695.953125 552.917969 706.054688 545.753906 716.070312 C 538.160156 726.683594 530.199219 737.007812 520.085938 745.480469 C 516.140625 748.777344 512.527344 752.519531 509.035156 756.320312 C 501.09375 764.949219 491.929688 772.0625 482.140625 778.359375 C 471.820312 785 461.363281 791.417969 450.753906 797.589844 C 445.652344 800.554688 440.144531 802.871094 434.691406 805.191406 C 429.722656 807.300781 424.589844 808.996094 419.535156 810.925781 C 417.097656 811.855469 414.761719 813.03125 412.308594 813.875 C 402.921875 817.050781 393.292969 819.199219 383.542969 821.035156 C 368.554688 823.871094 353.488281 825.144531 338.246094 825.058594 C 330.390625 825.003906 322.527344 825.652344 314.664062 825.804688 C 311.195312 825.867188 309.625 828.441406 307.636719 830.46875 C 303.441406 834.742188 299.242188 839.015625 295.273438 843.496094 C 287.109375 852.691406 278.984375 861.921875 271.054688 871.316406 C 264.121094 879.527344 256.238281 886.648438 246.839844 891.765625 C 239.019531 896.023438 230.5 898.621094 221.742188 900.527344 C 217.554688 901.4375 213.457031 902.605469 209.191406 901.789062 C 206.085938 901.160156 202.738281 901 200.308594 898.476562 Z M 317.261719 816.507812 C 325.242188 816.46875 332.515625 816.320312 339.78125 816.417969 C 354.269531 816.605469 368.65625 815.816406 382.828125 812.546875 C 390.410156 810.796875 398.003906 809.003906 405.515625 806.964844 C 410.09375 805.726562 414.578125 804.09375 419.023438 802.421875 C 424.761719 800.261719 430.558594 798.160156 436.082031 795.515625 C 442.214844 792.574219 448.199219 789.273438 454.015625 785.730469 C 463.847656 779.753906 473.652344 773.699219 483.203125 767.269531 C 491.542969 761.644531 498.949219 754.878906 505.847656 747.507812 C 510.4375 742.609375 515.566406 738.226562 520.308594 733.460938 C 528.488281 725.230469 535.285156 715.894531 541.8125 706.324219 C 548.566406 696.433594 555.339844 686.535156 562.429688 676.878906 C 567.671875 669.734375 572.625 662.429688 575.886719 654.210938 C 580.550781 642.496094 584.546875 630.527344 589.140625 618.796875 C 593.765625 607.007812 598.839844 595.398438 603.628906 583.667969 C 606.917969 575.605469 610.210938 567.546875 613.207031 559.378906 C 617.96875 546.390625 620.175781 532.835938 621.296875 519.128906 C 622.125 509.058594 622.460938 498.9375 622.984375 488.84375 C 623.558594 477.75 624.40625 466.667969 624.578125 455.566406 C 624.785156 440.984375 624.597656 426.390625 624.289062 411.8125 C 624.078125 401.875 623.410156 391.949219 622.882812 382.03125 C 622.582031 376.335938 621.558594 370.597656 621.941406 364.941406 C 622.761719 353.015625 624.242188 341.125 625.539062 329.230469 C 626.660156 319.066406 627.925781 308.914062 629.066406 298.738281 C 629.28125 296.84375 629.179688 294.902344 629.210938 292.902344 C 626.355469 294.230469 623.730469 295.289062 621.25 296.628906 C 615.546875 299.695312 609.855469 302.796875 604.257812 306.058594 C 595.523438 311.15625 586.554688 315.949219 578.257812 321.699219 C 565.304688 330.664062 551.519531 338.089844 537.566406 345.289062 C 531.804688 348.257812 526.148438 351.425781 520.492188 354.59375 C 513.898438 358.269531 507.324219 362.003906 500.773438 365.78125 C 490.859375 371.511719 480.820312 377.039062 471.125 383.109375 C 455.871094 392.644531 441.25 403.09375 427.132812 414.273438 C 414.808594 424.035156 403.003906 434.332031 392.28125 445.808594 C 384.617188 454.003906 377.0625 462.320312 369.769531 470.84375 C 359 483.4375 348.503906 496.234375 340.363281 510.804688 C 334.476562 521.34375 328.21875 531.671875 322.140625 542.097656 C 320.820312 544.351562 319.550781 546.628906 318.296875 548.910156 C 315.738281 553.5625 312.882812 558.066406 310.734375 562.898438 C 306.136719 573.246094 301.832031 583.730469 297.601562 594.238281 C 295.136719 600.355469 292.898438 606.5625 290.816406 612.816406 C 286.832031 624.78125 283.914062 637.070312 283.164062 649.628906 C 282.269531 664.585938 282.171875 679.601562 282.152344 694.585938 C 282.128906 710.324219 282.523438 726.074219 282.929688 741.808594 C 283.242188 754.382812 285.871094 766.613281 289.386719 778.648438 C 290.511719 782.515625 292.273438 786.195312 293.699219 789.984375 C 295.886719 795.84375 297.925781 801.753906 300.25 807.554688 C 301.167969 809.851562 302.65625 811.917969 304.28125 814.777344 C 306.632812 811.230469 308.429688 808.453125 310.292969 805.71875 C 318.542969 793.605469 326.84375 781.535156 335.019531 769.371094 C 337.082031 766.296875 338.503906 762.988281 335.585938 759.429688 C 334.710938 758.371094 334.214844 756.949219 333.714844 755.621094 C 331.410156 749.453125 328.972656 743.316406 326.957031 737.050781 C 325.722656 733.257812 324.972656 729.277344 324.347656 725.328125 C 323.292969 718.777344 322.621094 712.171875 321.589844 705.613281 C 320.671875 699.777344 319.265625 694.015625 318.464844 688.167969 C 317.109375 678.28125 316.519531 668.332031 318.023438 658.421875 C 320.023438 645.179688 322.25 631.976562 324.554688 618.789062 C 326.644531 606.832031 329.019531 594.921875 331.136719 582.972656 C 331.8125 579.167969 332.898438 575.777344 337 573.28125 C 337.128906 576.710938 337.722656 579.878906 337.261719 582.875 C 335.613281 593.726562 333.582031 604.511719 331.726562 615.328125 C 329.25 629.738281 326.550781 644.121094 324.460938 658.59375 C 323.121094 667.878906 323.644531 677.296875 324.871094 686.605469 C 325.808594 693.765625 326.757812 700.921875 327.890625 708.054688 C 328.984375 714.953125 329.9375 721.929688 331.6875 728.671875 C 333.847656 737.003906 336.734375 745.15625 339.441406 753.347656 C 339.828125 754.492188 340.761719 755.832031 341.785156 756.273438 C 342.328125 756.503906 343.925781 755.1875 344.523438 754.25 C 349.121094 747.074219 353.796875 739.929688 358.039062 732.554688 C 363.003906 723.941406 367.375 714.984375 372.335938 706.371094 C 375.828125 700.308594 379.785156 694.488281 383.683594 688.675781 C 385.984375 685.25 389.035156 682.242188 389.050781 677.71875 C 389.066406 676.226562 389.222656 674.742188 389.183594 673.257812 C 388.824219 658.566406 389.882812 643.9375 391.132812 629.3125 C 391.792969 621.53125 392.390625 613.75 393.277344 606 C 394.453125 595.839844 395.199219 585.566406 397.355469 575.601562 C 401.117188 558.242188 405.9375 541.113281 410.074219 523.832031 C 414.101562 506.996094 419.941406 490.855469 427.503906 475.304688 C 429.09375 472.03125 431.152344 471.207031 434.664062 472.382812 C 434.578125 473.003906 434.621094 473.699219 434.394531 474.292969 C 432.339844 479.597656 430.171875 484.863281 428.191406 490.195312 C 425.722656 496.839844 423.046875 503.429688 421.082031 510.226562 C 417.179688 523.804688 413.972656 537.570312 410.007812 551.125 C 404.933594 568.496094 400.960938 586.03125 399.65625 604.125 C 398.5 620.089844 397.191406 636.042969 396.058594 652.011719 C 395.679688 657.421875 395.671875 662.847656 395.476562 668.570312 C 396.378906 667.683594 397.101562 667.195312 397.550781 666.5 C 401.144531 660.972656 404.671875 655.402344 408.242188 649.851562 C 412.457031 643.339844 416.691406 636.84375 420.925781 630.351562 C 425.101562 623.914062 429.289062 617.476562 433.464844 611.039062 C 437.777344 604.390625 442.21875 597.824219 446.335938 591.058594 C 448.308594 587.808594 450.511719 584.3125 451.09375 580.695312 C 453.6875 564.425781 455.25 547.972656 459.382812 531.984375 C 461.636719 523.292969 464.179688 514.671875 466.953125 506.140625 C 468.960938 499.945312 471.527344 493.9375 473.914062 487.863281 C 477.152344 479.601562 480.460938 471.363281 483.742188 463.125 C 486.003906 457.441406 488.53125 451.859375 490.492188 446.082031 C 493.886719 436.117188 498.015625 426.53125 504.128906 417.914062 C 506.308594 414.855469 508.460938 411.632812 512.453125 410.308594 C 513.714844 412.96875 513.097656 415.347656 511.863281 417.570312 C 509.003906 422.710938 505.859375 427.6875 503.183594 432.90625 C 500.851562 437.464844 498.929688 442.246094 496.96875 446.992188 C 494.695312 452.488281 492.570312 458.035156 490.402344 463.574219 C 487.441406 471.121094 484.574219 478.714844 481.523438 486.230469 C 478.066406 494.785156 473.992188 503.125 471.007812 511.832031 C 464.738281 530.132812 460.808594 549.023438 458.484375 568.226562 C 458.335938 569.503906 458.550781 570.824219 458.613281 572.648438 C 460.183594 570.570312 461.507812 568.984375 462.636719 567.285156 C 468.558594 558.414062 474.542969 549.570312 480.3125 540.59375 C 485.195312 533 489.859375 525.261719 494.546875 517.554688 C 499.773438 508.984375 504.746094 500.25 510.179688 491.800781 C 514.222656 485.511719 518.664062 479.476562 523.199219 473.527344 C 528.640625 466.40625 534.75 459.765625 539.875 452.429688 C 545.566406 444.292969 550.953125 435.859375 555.59375 427.09375 C 561.285156 416.351562 566.210938 405.191406 571.199219 394.089844 C 574.773438 386.140625 577.441406 377.761719 581.332031 369.988281 C 585.945312 360.757812 591.269531 351.878906 596.625 343.042969 C 599.261719 338.703125 601.210938 337.976562 604.339844 339.632812 C 604.183594 340.925781 604.34375 342.460938 603.777344 343.65625 C 602.226562 346.972656 600.273438 350.085938 598.667969 353.367188 C 594.0625 362.800781 589.4375 372.230469 585.042969 381.761719 C 579.859375 393.007812 575.214844 404.507812 569.753906 415.617188 C 565 425.269531 559.796875 434.738281 554.152344 443.90625 C 548.527344 453.039062 542.40625 461.902344 535.941406 470.46875 C 527.707031 481.390625 520.285156 492.746094 513.972656 504.890625 C 510.703125 511.175781 506.699219 517.101562 502.859375 523.074219 C 498.402344 530.019531 493.75 536.835938 489.242188 543.746094 C 486.191406 548.429688 483.1875 553.140625 480.253906 557.902344 C 478.375 560.941406 476.675781 564.085938 474.53125 567.820312 C 478.332031 565.65625 481.515625 563.921875 484.613281 562.046875 C 492.691406 557.144531 500.996094 552.566406 508.714844 547.140625 C 522.539062 537.425781 534.296875 525.261719 546.636719 513.804688 C 554.371094 506.617188 562.128906 499.433594 569.535156 491.929688 C 579.761719 481.550781 589.707031 470.902344 599.671875 460.273438 C 601.523438 458.304688 603.335938 457.601562 606.199219 458.957031 C 605.117188 461.335938 604.480469 464.109375 602.855469 466.066406 C 596.828125 473.363281 590.839844 480.746094 584.171875 487.445312 C 572.382812 499.285156 560.269531 510.808594 547.988281 522.140625 C 539.828125 529.667969 531.414062 536.980469 522.621094 543.738281 C 513.109375 551.050781 503.15625 557.8125 493.136719 564.417969 C 487.054688 568.425781 480.558594 571.863281 474.074219 575.21875 C 469.953125 577.351562 465.84375 579.476562 463.277344 583.378906 C 458.039062 591.335938 453.210938 599.542969 448.019531 607.523438 C 442.75 615.621094 437.117188 623.476562 431.863281 631.570312 C 425.941406 640.675781 420.234375 649.917969 414.511719 659.148438 C 412.429688 662.5 410.511719 665.949219 408.640625 669.425781 C 407.109375 672.269531 405.757812 675.21875 404.335938 678.113281 L 405.097656 678.835938 C 407.988281 678.183594 410.953125 677.707031 413.769531 676.804688 C 420.164062 674.785156 426.527344 672.671875 432.820312 670.363281 C 436.425781 669.027344 440.066406 667.574219 443.292969 665.554688 C 448.902344 662.054688 454.253906 658.140625 459.644531 654.300781 C 466.660156 649.308594 473.613281 644.203125 480.609375 639.203125 C 491.277344 631.566406 501.742188 623.648438 511.003906 614.367188 C 523.242188 602.105469 535.171875 589.546875 547.121094 576.996094 C 551.347656 572.542969 555.457031 567.925781 559.167969 563.054688 C 567.429688 552.214844 575.367188 541.121094 583.601562 530.265625 C 584.59375 528.960938 586.632812 528.386719 588.257812 527.65625 C 588.515625 527.542969 589.621094 528.371094 589.59375 528.703125 C 589.441406 530.238281 589.472656 532.050781 588.664062 533.214844 C 582.929688 541.378906 577.074219 549.453125 571.121094 557.472656 C 560.792969 571.375 549.464844 584.414062 537.292969 596.730469 C 528.867188 605.265625 520.335938 613.714844 511.800781 622.15625 C 508.328125 625.589844 505.007812 629.285156 501.125 632.199219 C 487.671875 642.289062 473.988281 652.070312 460.421875 662.019531 C 453.964844 666.746094 447.210938 670.984375 439.757812 673.957031 C 433.554688 676.429688 427.292969 678.753906 420.957031 680.832031 C 416.261719 682.371094 411.433594 683.5625 406.601562 684.628906 C 402.050781 685.640625 398.242188 687.546875 395.640625 691.578125 C 392.386719 696.617188 388.9375 701.542969 385.769531 706.644531 C 380.617188 714.960938 375.566406 723.359375 370.574219 731.773438 C 368.039062 736.039062 365.761719 740.453125 363.292969 744.761719 C 359.636719 751.164062 355.925781 757.53125 352.234375 763.910156 L 352.492188 764.671875 C 356.410156 763.917969 360.355469 763.253906 364.257812 762.386719 C 367.296875 761.707031 370.28125 760.835938 373.269531 759.929688 C 380.050781 757.84375 386.921875 755.972656 393.546875 753.457031 C 399.078125 751.367188 404.296875 748.464844 409.679688 745.984375 C 414.699219 743.679688 419.761719 741.464844 424.808594 739.214844 C 431.464844 736.253906 438.097656 733.261719 444.773438 730.355469 C 449.46875 728.316406 454.398438 726.738281 458.917969 724.371094 C 466.925781 720.175781 474.96875 715.933594 482.53125 711 C 492.230469 704.667969 501.9375 698.195312 510.785156 690.761719 C 521.332031 681.898438 530.921875 671.914062 541.035156 662.527344 C 545.507812 658.378906 550.25 654.539062 554.867188 650.550781 C 556.671875 651.878906 557.546875 652.589844 555.988281 654.253906 C 552.472656 658.011719 549.296875 662.105469 545.71875 665.796875 C 533.285156 678.640625 520.757812 691.417969 506.429688 702.203125 C 496.757812 709.492188 486.871094 716.492188 475.996094 721.953125 C 469.296875 725.316406 462.589844 728.667969 455.84375 731.933594 C 453.425781 733.101562 450.851562 733.929688 448.414062 735.050781 C 441.347656 738.28125 434.316406 741.589844 427.257812 744.84375 C 422.542969 747.019531 417.835938 749.179688 413.09375 751.261719 C 405.570312 754.570312 398.121094 758.042969 390.460938 760.972656 C 384.402344 763.292969 378.113281 765.097656 371.832031 766.757812 C 367.257812 767.96875 362.472656 768.375 357.863281 769.519531 C 354.171875 770.433594 350.203125 771.296875 347.109375 773.339844 C 344.351562 775.148438 342.417969 778.410156 340.480469 781.265625 C 334.199219 790.492188 328.054688 799.8125 321.890625 809.117188 C 320.355469 811.445312 318.929688 813.839844 317.261719 816.507812 Z M 317.261719 816.507812 " fill-opacity="1" fill-rule="nonzero"/></g></g></g></svg>