<svg xmlns="http://www.w3.org/2000/svg" xmlns:xlink="http://www.w3.org/1999/xlink" width="1122"
    zoomAndPan="magnify" viewBox="0 0 841.92 1190.250009" height="1587"
    preserveAspectRatio="xMidYMid meet" version="1.0">
    <g mask="url(#37f545d913)">
        <g transform="matrix(1, 0, 0, 1, 49, 239)">
            <g clip-path="url(#21a77e76d2)">
                <g clip-path="url(#3c036c4d95)">
                    <path fill="#a43e35"
                        d="M 78.894531 171.578125 C 48.921875 125.027344 24.871094 78.949219 9.816406 36.484375 C 6.574219 27.347656 3.09375 18.527344 1.398438 9.59375 C 0.945312 7.210938 0.890625 4.875 0.679688 2.503906 C 0.464844 1.652344 0.984375 0.789062 1.835938 0.570312 C 2.6875 0.359375 3.550781 0.875 3.765625 1.726562 C 4.6875 3.890625 5.785156 5.914062 6.609375 8.160156 C 9.671875 16.574219 11.890625 25.59375 15.148438 34.570312 C 19.734375 47.207031 25.128906 60.15625 31.242188 73.34375 C 41.429688 83.609375 50.800781 94.476562 61.664062 103.722656 C 62.199219 103.277344 62.992188 103.261719 63.558594 103.71875 C 64.425781 104.328125 65.285156 104.933594 66.121094 105.570312 C 68.429688 106.644531 70.773438 107.519531 73.105469 108.417969 C 77.386719 110.070312 81.667969 111.585938 86.089844 112.664062 C 92.996094 114.351562 100.105469 115.308594 107.257812 116.203125 C 118.105469 117.558594 129.058594 118.730469 139.601562 121.34375 C 144.304688 122.507812 148.910156 123.898438 153.472656 125.402344 C 164.023438 128.878906 174.328125 132.972656 184.996094 136.273438 C 194.328125 139.140625 204.132812 140.074219 213.417969 142.898438 C 217.519531 144.144531 221.519531 145.742188 225.34375 148.003906 C 232.070312 151.980469 238.175781 156.570312 243.96875 161.507812 C 252.566406 168.851562 260.476562 176.964844 268.804688 184.914062 C 279.453125 195.171875 291.121094 204.402344 302.046875 214.382812 C 304.808594 216.902344 307.523438 219.46875 310.164062 222.113281 C 314.355469 226.308594 318.316406 230.570312 319.738281 232.738281 C 320.269531 233.558594 320.507812 234.230469 320.558594 234.648438 C 320.671875 235.617188 320.277344 236.246094 319.714844 236.652344 C 314.171875 240.738281 304.679688 240.011719 293.96875 236.59375 C 274.742188 230.460938 251.332031 216.078125 241.503906 211.753906 C 236.125 209.363281 230.660156 207.242188 225.15625 205.238281 C 212.132812 200.496094 198.894531 196.421875 186.019531 191.257812 C 177.164062 187.664062 168.6875 183.648438 160.375 179.386719 C 147.9375 172.992188 135.875 166.035156 123.441406 159.097656 C 119.109375 156.675781 114.46875 154.714844 110.046875 152.414062 C 108.0625 151.382812 106.121094 150.285156 104.265625 149.054688 C 98.988281 145.542969 94.382812 141.445312 90.128906 137.035156 C 83.636719 130.316406 77.804688 123.054688 71.511719 116.132812 C 65.496094 111.820312 59.808594 107.144531 54.378906 102.167969 C 48.304688 96.597656 42.257812 90.890625 36.671875 84.734375 C 54.796875 121.734375 78.292969 160.382812 105.289062 198.957031 C 127.726562 231.023438 152.546875 263.0625 178.789062 294.019531 C 180.296875 295.167969 181.8125 296.3125 183.328125 297.453125 C 198.871094 309.152344 214.824219 320.011719 231.816406 328.976562 C 234.304688 330.285156 236.8125 331.558594 239.34375 332.792969 C 244.304688 333.882812 249.238281 334.296875 254.160156 334.382812 C 264.214844 334.5625 274.242188 333.226562 284.351562 332.484375 C 291.183594 331.980469 298.050781 331.796875 304.976562 332.484375 C 312.722656 333.25 320.304688 335.101562 327.992188 336.25 C 329.863281 336.527344 331.742188 336.765625 333.628906 336.933594 C 348.570312 338.257812 363.832031 337.441406 378.835938 338.695312 C 385.394531 339.242188 391.90625 340.1875 398.320312 341.84375 C 407.800781 344.304688 416.980469 348.183594 425.957031 352.699219 C 439.128906 359.320312 451.855469 367.296875 464.46875 373.875 C 470.140625 376.863281 475.925781 379.722656 481.761719 382.496094 C 490.523438 386.667969 499.40625 390.648438 508.191406 394.605469 C 509.035156 394.980469 515.621094 397.265625 519.097656 399.253906 C 521.097656 400.398438 522.089844 401.828125 522.113281 402.683594 C 522.238281 405.410156 520.4375 407.761719 517.542969 409.554688 C 512.769531 412.511719 504.925781 414.019531 501.835938 414.382812 C 493.730469 415.3125 485.589844 415.566406 477.4375 415.398438 C 465.3125 415.140625 453.1875 413.914062 441.167969 412.835938 C 425.578125 411.425781 409.800781 410.199219 394.246094 407.757812 C 383.792969 406.121094 373.449219 403.929688 363.324219 400.84375 C 357.796875 399.148438 352.40625 397.234375 347.082031 395.195312 C 334.726562 390.453125 322.738281 385.039062 310.277344 380.246094 C 299.539062 376.105469 288.300781 372.820312 277.617188 368.359375 C 272.945312 366.414062 268.386719 364.246094 264.007812 361.703125 C 259.984375 359.351562 256.433594 356.503906 253.140625 353.367188 C 248.667969 349.101562 244.605469 344.410156 240.253906 339.992188 C 238.75 338.464844 237.230469 336.960938 235.636719 335.53125 C 229.550781 332.476562 223.601562 329.183594 217.765625 325.675781 C 208.160156 319.902344 198.839844 313.585938 189.777344 306.828125 C 242.25 367.25 299.613281 422.957031 353.925781 466.09375 C 361.40625 469.683594 368.976562 472.984375 376.574219 476.199219 C 384.332031 479.414062 392.15625 482.421875 400.039062 485.175781 C 400.597656 485.011719 401.171875 485.46875 401.734375 485.636719 C 407.816406 487.015625 413.753906 487.222656 419.625 486.765625 C 435.34375 485.554688 450.609375 479.707031 466.75 478.621094 C 470.644531 478.371094 474.5625 478.496094 478.492188 478.789062 C 487.386719 479.5 496.328125 481.128906 505.109375 481.710938 C 517.273438 482.503906 529.53125 482.421875 541.71875 481.503906 C 553.921875 480.585938 566.0625 478.832031 577.960938 476.242188 C 591.765625 473.277344 606.230469 468.308594 620.652344 465.71875 C 627.023438 464.589844 633.386719 463.921875 639.683594 464.089844 C 642.742188 464.171875 647.101562 464.089844 651.070312 464.714844 C 654.019531 465.175781 656.757812 466.011719 658.734375 467.554688 C 661.347656 469.601562 660.957031 472.734375 658.640625 475.992188 C 655.230469 480.835938 647.585938 486.222656 645.890625 487.265625 C 637.917969 492.277344 629.328125 496.492188 620.472656 500.253906 C 607.355469 505.804688 593.660156 510.316406 580.609375 514.992188 C 561.652344 521.714844 541.871094 525.515625 522.019531 526.058594 C 502.160156 526.601562 482.230469 523.886719 462.972656 517.582031 C 457.632812 515.746094 452.472656 513.574219 447.414062 511.191406 C 437.246094 506.347656 427.324219 501.003906 417.328125 495.785156 C 402.902344 491.566406 388.738281 486.261719 374.976562 479.75 C 371.628906 478.164062 368.3125 476.492188 365.03125 474.78125 C 392.375 495.785156 418.792969 513.40625 443.246094 526.644531 C 470.84375 541.59375 500.292969 552.617188 530.484375 561.84375 C 537.628906 563.097656 545.183594 563.933594 552.769531 564.433594 C 563.617188 565.144531 574.523438 565.144531 584.382812 564.683594 C 591.140625 564.390625 597.828125 563.515625 604.566406 563.140625 C 607.503906 562.972656 610.457031 562.929688 613.421875 563.015625 C 617.09375 563.140625 620.773438 563.683594 624.433594 564.433594 C 632.652344 566.144531 640.8125 569.027344 648.796875 570.90625 C 652.941406 571.867188 657.125 572.660156 661.332031 573.410156 C 671.203125 575.164062 681.191406 576.5 691.03125 578.171875 C 698.742188 579.464844 706.433594 580.71875 714.070312 582.265625 C 719.179688 583.308594 724.257812 584.519531 729.324219 585.855469 C 732.960938 586.816406 738.46875 588.570312 740.910156 589.445312 C 741.546875 589.695312 742 589.863281 742.207031 589.949219 C 743.375 590.53125 743.296875 591.574219 743.273438 591.785156 C 743.015625 594.207031 741.640625 596.460938 739.734375 598.425781 C 737.25 601.011719 733.847656 603.101562 731.382812 604.4375 C 724.992188 607.863281 718.207031 610.449219 711.214844 612.328125 C 704.246094 614.125 697.070312 615.210938 689.890625 615.710938 C 679.167969 616.421875 663.726562 614.960938 648.457031 612.203125 C 633.351562 609.53125 618.417969 605.566406 608.347656 601.554688 C 604.757812 600.09375 601.367188 598.257812 598.09375 596.210938 C 593.328125 593.246094 588.800781 589.90625 584.054688 586.984375 C 578.246094 583.390625 571.644531 580.007812 564.828125 577.128906 C 562.15625 576 559.453125 574.957031 556.753906 574.039062 C 549.640625 572.117188 542.550781 570.15625 535.496094 568.066406 C 536.335938 568.484375 537.175781 568.859375 538.015625 569.234375 C 547.804688 572.785156 557.546875 576.125 567.074219 580.050781 C 573.589844 582.722656 580 585.644531 586.269531 589.113281 C 589.167969 590.742188 591.941406 592.496094 594.644531 594.332031 C 600.851562 598.589844 606.6875 603.308594 612.863281 607.695312 C 618.882812 611.953125 625.121094 616.296875 631.066406 620.933594 C 635.085938 624.105469 638.96875 627.363281 642.574219 630.828125 C 644.65625 632.832031 646.660156 634.960938 648.625 637.132812 C 653.089844 642.101562 657.328125 647.363281 661.835938 652.167969 C 664.28125 654.796875 666.621094 657.46875 669.078125 660.058594 C 670.667969 661.730469 672.308594 663.359375 674.054688 664.859375 C 678.035156 668.453125 682.476562 671.542969 686.550781 675.050781 C 688.378906 676.59375 690.125 678.265625 691.742188 680.0625 C 692.527344 680.9375 696.496094 685.449219 697.957031 688.578125 C 698.808594 690.375 698.792969 691.960938 698.238281 692.878906 C 698.21875 692.921875 697.773438 693.800781 696.453125 693.882812 C 696.261719 693.882812 695.855469 693.925781 695.300781 693.925781 C 692.230469 694.050781 684.578125 694.300781 683.902344 694.257812 C 675.695312 693.839844 668.046875 692.460938 660.6875 690.164062 C 653.347656 687.871094 646.289062 684.613281 639.25 680.351562 C 632.914062 676.511719 626.71875 671.75 621 666.488281 C 615.296875 661.226562 610.070312 655.421875 605.609375 649.535156 C 601.136719 643.605469 597.34375 637.132812 593.148438 630.996094 C 591.390625 628.40625 589.5625 625.902344 587.570312 623.519531 C 585.140625 620.597656 582.421875 618.050781 579.570312 615.671875 C 572.609375 609.824219 564.890625 604.980469 558.4375 598.464844 C 553.242188 593.203125 548.957031 587.984375 544.402344 583.058594 C 542.429688 580.929688 540.433594 578.839844 538.234375 576.878906 C 535.285156 574.246094 532.039062 571.824219 528.132812 569.695312 C 527.925781 569.570312 527.769531 569.402344 527.667969 569.234375 C 524.707031 567.441406 521.691406 565.8125 518.585938 564.351562 C 514.648438 562.472656 510.625 560.757812 506.59375 559.046875 C 483.949219 551.363281 461.882812 542.34375 440.859375 531.070312 C 436.929688 528.980469 432.945312 526.769531 428.914062 524.429688 C 434.273438 529.191406 439.472656 534.199219 444.519531 539.378906 C 450.0625 542.261719 455.832031 544.933594 461.210938 548.023438 C 464.921875 550.152344 468.433594 552.492188 471.5625 555.246094 C 474.375 557.753906 476.902344 560.507812 479.242188 563.429688 C 484.503906 570.070312 488.867188 577.503906 494.429688 583.851562 C 499.691406 589.90625 505.328125 595.335938 509.734375 601.679688 C 512.714844 605.984375 515.144531 610.660156 516.527344 616.214844 C 517.722656 620.972656 518.398438 625.859375 519.425781 630.703125 C 519.859375 632.707031 520.351562 634.710938 520.976562 636.675781 C 521.339844 637.84375 521.746094 638.972656 522.183594 640.097656 C 523.972656 644.734375 526.21875 649.160156 527.839844 653.878906 C 528.609375 656.089844 530.601562 660.558594 529.910156 662.980469 C 529.472656 664.527344 528.289062 665.695312 525.515625 665.527344 C 520.953125 665.238281 516.273438 662.773438 511.839844 659.054688 C 502.972656 651.707031 495.027344 639.515625 490.019531 633.042969 C 483.34375 624.3125 475.675781 615.460938 468.957031 606.148438 C 464.367188 599.800781 460.222656 593.203125 457.089844 586.355469 C 453.417969 578.214844 446.144531 558.628906 438.648438 543.804688 C 435.953125 538.460938 433.148438 533.824219 430.628906 530.441406 C 430.378906 530.109375 430.132812 529.773438 429.894531 529.480469 C 424.164062 524.222656 418.285156 519.210938 412.417969 514.492188 C 381.585938 495.074219 348.492188 470.0625 314.898438 441.039062 C 320.511719 447.511719 325.941406 454.152344 331.039062 460.957031 C 335.171875 466.511719 339.105469 472.148438 342.726562 477.996094 C 348.4375 484.007812 354.296875 489.980469 359.675781 496.285156 C 363.832031 501.210938 367.703125 506.308594 371.03125 511.859375 C 373.941406 516.703125 376.28125 521.882812 378.273438 527.226562 C 382.785156 539.335938 385.589844 552.367188 390.171875 564.226562 C 391.230469 566.9375 392.40625 569.613281 393.664062 572.285156 C 398.78125 583.058594 405.140625 593.289062 409.773438 604.3125 C 413.839844 614 416.777344 623.9375 420.769531 633.585938 C 422.433594 637.59375 424.277344 641.519531 426.492188 645.359375 C 429.847656 651.207031 433.367188 656.84375 437 662.398438 C 442.484375 670.789062 448.230469 678.933594 454.085938 687.160156 C 455.636719 689.332031 458.300781 693.964844 459.910156 698.390625 C 461.179688 701.859375 461.699219 705.242188 460.816406 707.539062 C 460.101562 709.5 458.484375 710.5 456.445312 710.878906 C 453.210938 711.421875 448.675781 709.875 446.691406 709.082031 C 442.476562 707.371094 438.628906 705.117188 435.019531 702.566406 C 429.691406 698.769531 424.894531 694.257812 420.183594 689.582031 C 403.90625 673.296875 388.835938 657.09375 376.59375 638.804688 C 368.40625 626.570312 361.503906 613.414062 356.25 598.757812 C 353.230469 590.113281 350.980469 581.09375 349.285156 571.949219 C 346.777344 558.421875 345.480469 544.558594 344.566406 531.070312 C 344.140625 524.765625 344.324219 518.082031 344.390625 511.441406 C 344.433594 507.140625 344.453125 502.839844 344.082031 498.664062 C 343.792969 495.367188 343.195312 492.191406 342.421875 489.0625 C 342.078125 488.433594 341.730469 487.808594 341.375 487.183594 C 336.9375 479.289062 332.007812 471.605469 326.660156 464.171875 C 312.140625 443.960938 294.804688 425.378906 278.105469 407.878906 C 243.714844 375.589844 209.488281 339.808594 177.296875 302.332031 C 172.179688 296.378906 167.121094 290.386719 162.117188 284.351562 C 162.0625 284.3125 162.011719 284.265625 161.964844 284.21875 C 161.792969 284.082031 161.671875 283.90625 161.589844 283.722656 C 139.632812 257.222656 118.816406 230.050781 99.816406 202.777344 C 99.402344 202.1875 98.988281 201.589844 98.574219 200.996094 C 103.082031 211.011719 107.046875 221.054688 110.566406 231.195312 C 114.816406 243.421875 118.402344 255.789062 121.570312 268.382812 C 121.984375 268.921875 122.109375 269.648438 122.394531 270.273438 C 126.820312 280.058594 131.238281 289.75 137.121094 298.800781 C 140.976562 304.738281 145.453125 310.234375 149.179688 316.226562 C 150.828125 318.871094 152.328125 321.613281 153.582031 324.519531 C 155.324219 328.542969 156.714844 332.695312 157.902344 336.914062 C 160.597656 346.511719 162.230469 356.464844 164.761719 366.066406 C 167.355469 376.347656 170.527344 386.207031 172.871094 396.324219 C 174.449219 403.136719 175.65625 410.0625 176.085938 417.28125 C 176.792969 428.386719 175.496094 439.621094 173.035156 450.726562 C 169.398438 467.097656 163.214844 483.214844 157.1875 498.082031 C 152.714844 509.0625 148.375 520.171875 144.191406 531.363281 C 140.011719 542.511719 135.984375 553.742188 132.238281 565.019531 C 131.09375 568.484375 126.414062 587.066406 122.003906 596.417969 C 120.429688 599.761719 118.699219 602.015625 117.269531 602.640625 C 116.039062 603.144531 114.855469 603.019531 113.738281 602.097656 C 110.386719 599.300781 108.359375 595.292969 107.148438 590.867188 C 105.492188 584.769531 105.394531 577.878906 105.238281 572.453125 C 105.132812 568.609375 105.082031 564.769531 105.082031 560.925781 C 105.089844 545.683594 105.769531 530.402344 105.332031 515.117188 C 104.835938 494.699219 102.46875 474.53125 101.285156 454.234375 C 100.777344 445.507812 100.484375 436.738281 100.644531 427.886719 C 100.78125 420.953125 101.292969 414.058594 102.019531 407.203125 C 103.699219 391.335938 106.523438 375.632812 108.289062 359.710938 C 108.6875 356.101562 108.84375 352.472656 108.894531 348.839844 C 109.019531 340.179688 108.511719 331.472656 108.808594 322.832031 C 109.308594 310.113281 114.625 298.246094 117.027344 285.890625 C 117.636719 282.753906 117.953125 279.59375 118.074219 276.359375 C 115.90625 267.390625 113.558594 258.539062 110.984375 249.761719 C 103.667969 224.816406 94.386719 200.535156 81.46875 175.882812 C 80.699219 174.421875 79.644531 173.058594 78.894531 171.578125 Z M 84.589844 124.554688 C 87.398438 127.769531 90.226562 130.964844 93.234375 133.988281 C 97.339844 138.109375 101.71875 141.984375 106.757812 145.265625 C 108.488281 146.398438 110.296875 147.398438 112.144531 148.34375 C 116.628906 150.632812 121.324219 152.574219 125.71875 154.984375 C 138.148438 161.808594 150.21875 168.652344 162.648438 174.933594 C 170.847656 179.085938 179.207031 182.988281 187.941406 186.480469 C 200.753906 191.660156 213.9375 195.71875 226.890625 200.492188 C 232.496094 202.558594 238.058594 204.757812 243.527344 207.226562 C 253.234375 211.640625 276.3125 226.136719 295.292969 232.554688 C 303.789062 235.425781 311.390625 236.84375 316.347656 234.367188 C 314.785156 232.226562 311.210938 228.511719 307.472656 224.824219 C 304.855469 222.238281 302.164062 219.730469 299.429688 217.273438 C 288.394531 207.351562 276.625 198.191406 265.867188 187.988281 C 257.605469 180.078125 249.75 172.019531 241.230469 164.707031 C 235.632812 159.902344 229.75 155.414062 223.246094 151.53125 C 219.71875 149.425781 216.023438 147.925781 212.234375 146.765625 C 202.957031 143.910156 193.148438 142.972656 183.820312 140.082031 C 173.125 136.789062 162.785156 132.707031 152.21875 129.226562 C 147.746094 127.757812 143.234375 126.398438 138.632812 125.253906 C 128.234375 122.679688 117.417969 121.667969 106.730469 120.199219 C 99.441406 119.199219 92.21875 117.96875 85.210938 116.070312 C 81.125 114.960938 77.054688 113.734375 73.191406 111.957031 C 73.972656 112.742188 74.738281 113.535156 75.496094 114.335938 C 80.519531 117.808594 85.773438 121.027344 91.316406 123.914062 C 95.097656 125.898438 98.929688 127.722656 102.804688 129.414062 C 107.574219 130.542969 112.226562 131.058594 116.875 131.125 C 119.613281 131.164062 122.347656 130.992188 125.121094 130.753906 C 127.832031 130.519531 130.574219 130.277344 133.378906 129.765625 C 134 129.613281 134.621094 129.996094 134.765625 130.613281 C 134.917969 131.230469 134.535156 131.851562 133.917969 132 C 131.074219 132.855469 128.289062 133.589844 125.480469 133.980469 C 122.574219 134.382812 119.671875 134.445312 116.78125 134.320312 C 116.097656 134.292969 115.410156 134.246094 114.730469 134.191406 C 118.054688 135.414062 121.402344 136.5625 124.773438 137.660156 C 129.445312 139.1875 134.15625 140.601562 138.890625 141.953125 C 146.910156 143.695312 155.710938 146.589844 164.085938 147.945312 C 169.042969 148.75 173.847656 149.058594 178.265625 148.066406 C 178.882812 147.949219 179.46875 147.710938 180.039062 147.417969 C 181.582031 146.613281 183.023438 145.457031 184.503906 144.703125 C 184.890625 144.472656 185.394531 144.601562 185.625 144.992188 C 185.847656 145.378906 185.71875 145.878906 185.332031 146.105469 C 183.933594 147.039062 182.644531 148.40625 181.175781 149.363281 C 180.4375 149.847656 179.648438 150.207031 178.816406 150.4375 C 177.003906 150.875 175.128906 151.125 173.199219 151.21875 C 184.464844 154.296875 195.660156 157.601562 206.585938 161.703125 C 212.132812 163.804688 217.472656 166.566406 222.628906 169.699219 C 230.238281 174.316406 237.46875 179.699219 244.695312 184.511719 C 245.179688 184.824219 245.316406 185.46875 245.007812 185.949219 C 244.695312 186.433594 244.046875 186.578125 243.5625 186.265625 C 236.222656 181.710938 228.800781 176.667969 221.125 172.246094 C 216.050781 169.328125 210.878906 166.664062 205.476562 164.691406 C 200.308594 162.789062 195.085938 161.0625 189.824219 159.460938 C 191.839844 160.699219 193.765625 161.980469 195.492188 163.269531 C 197.671875 164.886719 199.507812 166.527344 200.890625 167.996094 C 205.285156 172.816406 208.644531 178.628906 212.730469 183.734375 C 213.738281 184.988281 214.78125 186.207031 215.910156 187.34375 C 216.199219 187.617188 216.210938 188.074219 215.9375 188.367188 C 215.664062 188.65625 215.207031 188.667969 214.917969 188.398438 C 213.054688 186.757812 211.355469 184.941406 209.730469 183.03125 C 206.058594 178.726562 202.785156 173.992188 198.75 170.070312 C 197.425781 168.742188 195.621094 167.328125 193.59375 165.816406 C 191.046875 163.917969 188.125 161.921875 185.128906 160.035156 C 183.03125 158.707031 180.902344 157.429688 178.851562 156.277344 C 163.375 151.984375 147.6875 148.34375 132.289062 143.824219 C 132.890625 144.148438 133.484375 144.46875 134.082031 144.796875 C 137.9375 146.933594 141.59375 149.386719 145.046875 152.136719 C 146.121094 153.042969 146.964844 154.074219 147.640625 155.210938 C 148.980469 157.476562 149.664062 160.105469 151.15625 162.339844 C 151.90625 163.492188 152.792969 164.570312 153.742188 165.609375 C 155.226562 167.234375 156.835938 168.773438 158.289062 170.339844 C 158.59375 170.628906 158.605469 171.117188 158.3125 171.421875 C 158.019531 171.726562 157.535156 171.742188 157.226562 171.449219 C 155.585938 170.058594 153.796875 168.726562 152.121094 167.277344 C 150.949219 166.257812 149.847656 165.183594 148.886719 164.015625 C 147.167969 161.90625 146.195312 159.335938 144.640625 157.167969 C 144.109375 156.414062 143.480469 155.730469 142.683594 155.160156 C 140.886719 153.816406 139.003906 152.609375 137.121094 151.414062 C 135.21875 150.207031 133.289062 149.03125 131.34375 147.886719 C 125.621094 144.523438 119.734375 141.398438 114.078125 137.925781 C 105.726562 134.90625 97.527344 131.441406 89.554688 127.285156 C 87.875 126.398438 86.222656 125.488281 84.589844 124.554688 Z M 245.339844 340.132812 C 248.703125 343.304688 251.921875 346.632812 255.320312 349.75 C 258.652344 352.800781 262.125 355.703125 266.148438 357.992188 C 271.796875 361.21875 277.761719 363.789062 283.855469 366.078125 C 293.144531 369.5625 302.71875 372.40625 311.945312 375.878906 C 324.433594 380.582031 336.457031 385.910156 348.839844 390.574219 C 354.070312 392.546875 359.359375 394.402344 364.785156 396.027344 C 374.691406 399.023438 384.820312 401.105469 395.039062 402.71875 C 410.484375 405.148438 426.144531 406.476562 441.621094 407.9375 C 453.53125 409.074219 465.554688 410.277344 477.570312 410.703125 C 485.523438 410.980469 493.476562 410.949219 501.402344 410.210938 C 503.824219 409.992188 509.476562 409.109375 513.789062 407.214844 C 516.148438 406.179688 518.253906 405.019531 518.480469 403.191406 C 518.433594 403.148438 518.382812 403.105469 518.335938 403.074219 C 515.667969 401.074219 507.585938 398.445312 506.667969 398.042969 C 497.8125 394.167969 488.871094 390.261719 480.035156 386.171875 C 474.121094 383.429688 468.257812 380.609375 462.5 377.652344 C 449.890625 371.109375 437.15625 363.199219 423.996094 356.59375 C 415.300781 352.226562 406.414062 348.429688 397.230469 346.035156 C 391.054688 344.429688 384.785156 343.527344 378.472656 342.984375 C 363.464844 341.707031 348.199219 342.484375 333.253906 341.128906 C 331.28125 340.949219 329.320312 340.695312 327.367188 340.398438 C 319.75 339.242188 312.238281 337.390625 304.5625 336.609375 C 297.871094 335.925781 291.242188 336.152344 284.628906 336.574219 C 274.390625 337.226562 264.210938 338.453125 254.042969 337.953125 C 252.6875 337.886719 251.328125 337.789062 249.972656 337.652344 C 260.515625 342.164062 271.46875 345.914062 282.941406 348.707031 C 291.347656 350.808594 299.726562 352.089844 308.117188 353.019531 C 314.761719 353.75 321.414062 354.25 328.105469 354.726562 C 330.042969 354.589844 331.976562 354.417969 333.90625 354.195312 C 337.433594 353.792969 340.945312 353.214844 344.441406 352.285156 C 345.507812 352.011719 346.488281 351.535156 347.4375 350.996094 C 349.945312 349.582031 352.25 347.6875 354.941406 346.664062 C 356.152344 346.207031 357.410156 345.882812 358.695312 345.648438 C 361.535156 345.125 364.492188 345.027344 367.296875 344.644531 C 367.765625 344.566406 368.207031 344.878906 368.285156 345.34375 C 368.363281 345.8125 368.050781 346.253906 367.585938 346.328125 C 365.222656 346.808594 362.738281 347.101562 360.324219 347.59375 C 358.785156 347.910156 357.277344 348.3125 355.847656 348.929688 C 353.296875 350.003906 351.191406 351.980469 348.800781 353.375 C 347.644531 354.050781 346.417969 354.589844 345.097656 354.914062 C 343.847656 355.207031 342.597656 355.460938 341.347656 355.679688 C 343.128906 355.816406 344.917969 355.960938 346.703125 356.117188 C 357.78125 357.097656 369.035156 359 380.132812 361.585938 C 391.214844 364.167969 402.132812 367.433594 412.5625 371.132812 C 413.039062 371.300781 413.292969 371.824219 413.132812 372.296875 C 412.96875 372.777344 412.445312 373.03125 411.964844 372.867188 C 401.539062 369.414062 390.632812 366.402344 379.582031 364.058594 C 376.03125 363.308594 372.460938 362.628906 368.886719 362.019531 C 371.246094 362.976562 373.589844 363.914062 375.882812 365.015625 C 377.535156 365.804688 379.148438 366.6875 380.730469 367.703125 C 382.902344 369.125 384.847656 370.742188 386.601562 372.539062 C 389.164062 375.179688 391.339844 378.148438 393.949219 380.8125 C 394.28125 381.128906 394.300781 381.660156 393.980469 381.996094 C 393.664062 382.332031 393.132812 382.34375 392.800781 382.027344 C 390.800781 380.316406 388.925781 378.519531 387.105469 376.671875 C 385.914062 375.464844 384.765625 374.222656 383.535156 373.054688 C 382.257812 371.84375 380.925781 370.675781 379.429688 369.636719 C 377.464844 368.265625 375.429688 367.132812 373.347656 366.097656 C 370.136719 364.496094 366.839844 363.125 363.574219 361.464844 C 363.414062 361.390625 363.292969 361.269531 363.21875 361.128906 C 357.609375 360.3125 352.007812 359.695312 346.453125 359.320312 C 333.382812 358.40625 320.539062 358.097656 307.71875 356.875 C 305.042969 356.617188 302.359375 356.320312 299.683594 355.972656 C 300.207031 356.285156 300.726562 356.605469 301.246094 356.929688 C 303.3125 358.242188 305.3125 359.714844 307.417969 361.09375 C 311.402344 363.847656 315.238281 365.644531 318.734375 368.171875 C 321.0625 369.859375 323.234375 371.835938 325.207031 374.585938 C 325.390625 374.816406 325.351562 375.15625 325.125 375.339844 C 324.898438 375.519531 324.558594 375.484375 324.375 375.253906 C 322.238281 372.871094 319.984375 371.246094 317.625 369.890625 C 313.878906 367.738281 309.886719 366.308594 305.644531 363.964844 C 303.894531 362.953125 302.167969 361.945312 300.5 360.898438 C 298.003906 359.328125 295.582031 357.75 293.011719 356.449219 C 290.796875 355.335938 288.460938 354.546875 285.976562 353.785156 C 285.6875 353.699219 285.414062 353.59375 285.140625 353.492188 C 284.074219 353.261719 283.011719 353.019531 281.945312 352.769531 C 269.164062 349.628906 257.003906 345.34375 245.339844 340.132812 Z M 415.195312 490.019531 C 421 491.734375 426.835938 493.277344 432.707031 494.65625 C 433.382812 494.65625 434.0625 494.65625 434.734375 494.65625 C 438.210938 494.574219 441.710938 494.78125 445.199219 494.90625 C 447.449219 494.992188 449.695312 495.074219 451.933594 494.90625 C 454.476562 494.78125 456.921875 494.28125 459.328125 493.613281 C 465.191406 491.941406 470.777344 489.144531 476.578125 487.390625 C 476.796875 487.308594 477.035156 487.433594 477.109375 487.640625 C 477.183594 487.851562 477.070312 488.101562 476.855469 488.183594 C 471.207031 490.480469 465.90625 493.90625 460.167969 496.117188 C 457.613281 497.078125 454.96875 497.789062 452.199219 498.164062 C 452.007812 498.164062 451.816406 498.164062 451.625 498.207031 C 453.332031 498.414062 455.027344 498.75 456.722656 499.167969 C 457.269531 499.292969 457.816406 499.417969 458.363281 499.542969 C 461.9375 500.085938 465.519531 500.542969 469.113281 500.960938 C 471.777344 501.253906 474.445312 501.503906 477.121094 501.753906 C 477.570312 501.714844 478.027344 501.671875 478.476562 501.628906 C 481.375 501.296875 484.222656 500.792969 487.035156 500.042969 C 489.449219 499.417969 491.835938 498.625 494.210938 497.789062 C 497.824219 496.492188 501.410156 495.117188 504.945312 493.78125 C 506.992188 492.988281 509.179688 492.359375 511.414062 491.816406 C 514.691406 491.023438 518.058594 490.398438 521.199219 489.730469 C 521.480469 489.6875 521.761719 489.855469 521.828125 490.148438 C 521.894531 490.398438 521.722656 490.691406 521.441406 490.773438 C 518.363281 491.609375 515.058594 492.402344 511.851562 493.402344 C 509.726562 494.070312 507.644531 494.78125 505.707031 495.660156 C 502.21875 497.164062 498.710938 498.832031 495.097656 500.210938 C 492.691406 501.085938 490.246094 501.878906 487.769531 502.507812 C 492.1875 502.757812 496.621094 502.925781 501.066406 502.964844 C 518.703125 503.257812 536.507812 502.171875 554.417969 499.25 C 554.851562 499.167969 555.269531 499.417969 555.355469 499.875 C 555.4375 500.292969 555.152344 500.710938 554.71875 500.792969 C 544.433594 503.050781 534.152344 504.761719 523.894531 505.847656 C 526.140625 506.515625 528.363281 507.308594 530.613281 508.144531 C 532.722656 508.9375 534.824219 509.773438 537.054688 510.523438 C 537.523438 510.648438 537.796875 511.152344 537.664062 511.609375 C 537.53125 512.070312 537.046875 512.363281 536.578125 512.195312 C 533.871094 511.570312 531.273438 510.859375 528.746094 510.023438 C 524.910156 508.769531 521.222656 507.476562 517.316406 506.597656 C 517.191406 506.597656 517.070312 506.558594 516.945312 506.515625 C 511.652344 506.976562 506.359375 507.226562 501.078125 507.351562 C 496.75 507.433594 492.429688 507.433594 488.121094 507.265625 C 490.6875 508.5625 493.175781 510.105469 495.757812 511.359375 C 497.113281 512.070312 498.492188 512.652344 499.9375 513.070312 L 507.632812 514.699219 C 507.949219 514.742188 508.160156 515.074219 508.097656 515.367188 C 508.039062 515.703125 507.730469 515.910156 507.414062 515.871094 L 499.488281 514.867188 C 497.894531 514.535156 496.355469 514.03125 494.839844 513.40625 C 491.492188 512.027344 488.300781 510.105469 484.925781 508.9375 C 483.421875 508.394531 481.882812 507.976562 480.324219 507.644531 C 478.3125 507.183594 476.269531 506.851562 474.230469 506.472656 C 472.34375 506.308594 470.453125 506.140625 468.570312 505.972656 C 461.367188 505.222656 454.195312 504.175781 447.085938 502.839844 C 443.003906 502.089844 438.933594 501.253906 434.882812 500.335938 C 439.625 502.714844 444.363281 505.136719 449.207031 507.265625 C 454.164062 509.480469 459.195312 511.527344 464.410156 513.195312 C 483.15625 519.335938 502.558594 521.964844 521.894531 521.421875 C 541.273438 520.921875 560.585938 517.246094 579.105469 510.734375 C 592.121094 506.222656 605.765625 501.796875 618.878906 496.410156 C 627.59375 492.859375 636.078125 488.894531 643.964844 484.132812 C 645.355469 483.339844 651.003906 479.625 654.597656 475.738281 C 655.660156 474.613281 656.546875 473.484375 657.027344 472.398438 C 657.433594 471.480469 657.554688 470.605469 656.796875 469.976562 C 655.222656 468.726562 652.992188 468.015625 650.609375 467.640625 C 646.78125 467.011719 642.570312 467.179688 639.617188 467.136719 C 633.523438 467.011719 627.375 467.722656 621.222656 468.851562 C 606.863281 471.5625 592.480469 476.660156 578.738281 479.75 C 566.679688 482.464844 554.386719 484.34375 542.011719 485.304688 C 529.644531 486.304688 517.203125 486.386719 504.855469 485.59375 C 496.0625 485.011719 487.101562 483.339844 478.191406 482.671875 C 474.441406 482.378906 470.699219 482.253906 466.976562 482.464844 C 450.859375 483.296875 435.539062 488.976562 419.835938 489.894531 C 418.296875 489.980469 416.746094 490.019531 415.195312 490.019531 Z M 577.546875 579.464844 C 580.457031 580.84375 583.265625 582.347656 585.921875 583.851562 C 591.539062 587.109375 596.910156 590.90625 602.605469 594.082031 C 604.964844 595.417969 607.378906 596.628906 609.910156 597.589844 C 619.792969 601.472656 634.457031 605.148438 649.246094 607.777344 C 664.132812 610.367188 679.15625 611.914062 689.601562 611.242188 C 696.511719 610.828125 703.414062 609.824219 710.132812 608.113281 C 716.835938 606.441406 723.359375 604.0625 729.515625 600.886719 C 731.75 599.761719 734.863281 598.046875 737.148438 595.835938 C 738.164062 594.875 739.039062 593.789062 739.515625 592.621094 C 737.011719 591.785156 731.855469 590.238281 728.410156 589.40625 C 722.136719 587.859375 715.828125 586.566406 709.5 585.394531 C 703.148438 584.183594 696.773438 583.097656 690.378906 582.054688 C 680.523438 580.386719 670.523438 579.089844 660.636719 577.335938 C 656.363281 576.585938 652.105469 575.75 647.898438 574.746094 C 639.9375 572.910156 631.808594 570.03125 623.625 568.316406 C 620.183594 567.605469 616.734375 567.0625 613.28125 566.9375 C 610.429688 566.855469 607.597656 566.898438 604.769531 567.023438 C 598.015625 567.355469 591.300781 568.148438 584.53125 568.402344 C 574.542969 568.691406 563.5 568.527344 552.535156 567.605469 C 551.464844 567.523438 550.394531 567.441406 549.328125 567.316406 C 559.964844 570.28125 570.671875 573.078125 581.390625 575.792969 C 582.324219 575.792969 583.261719 575.875 584.195312 575.917969 C 591.75 576.542969 599.242188 578.546875 606.796875 578.421875 C 609.066406 578.421875 611.273438 578.171875 613.460938 577.921875 C 616.128906 577.585938 618.753906 577.128906 621.40625 576.710938 C 624.121094 576.25 626.8125 575.875 629.578125 575.582031 C 629.925781 575.5 630.261719 575.707031 630.339844 576.085938 C 630.410156 576.417969 630.1875 576.753906 629.839844 576.835938 C 627.585938 577.546875 625.425781 578.382812 623.21875 579.132812 C 620.964844 579.882812 618.726562 580.636719 616.421875 581.179688 C 614.058594 581.761719 611.652344 582.140625 609.183594 582.304688 C 609.597656 582.347656 610.015625 582.429688 610.429688 582.515625 C 614.136719 583.265625 617.820312 584.144531 621.523438 585.144531 C 623.824219 585.8125 626.175781 586.316406 628.460938 587.023438 C 629.898438 587.484375 631.308594 588.027344 632.675781 588.695312 C 634.804688 589.238281 636.933594 589.78125 639.054688 590.363281 C 639.472656 590.363281 639.890625 590.363281 640.3125 590.363281 C 645.566406 590.574219 650.804688 591.285156 656.0625 590.90625 C 658.039062 590.78125 659.976562 590.492188 661.898438 590.113281 C 663.734375 589.78125 665.558594 589.363281 667.378906 588.945312 C 670.171875 588.277344 672.953125 587.652344 675.761719 587.023438 C 676.257812 586.898438 676.773438 587.191406 676.914062 587.691406 C 677.050781 588.195312 676.765625 588.695312 676.269531 588.820312 C 672.359375 590.15625 668.558594 591.785156 664.59375 592.828125 C 661.878906 593.582031 659.089844 593.996094 656.242188 594.207031 C 655.214844 594.25 654.191406 594.25 653.167969 594.25 C 658.265625 595.667969 663.34375 597.171875 668.40625 598.714844 C 669.175781 598.925781 669.628906 599.71875 669.410156 600.46875 C 669.199219 601.265625 668.394531 601.722656 667.625 601.515625 C 658.800781 599.21875 649.890625 597.089844 640.957031 594.917969 C 642.121094 596.003906 643.289062 597.089844 644.511719 598.132812 C 645.871094 599.175781 647.261719 600.136719 648.699219 601.054688 C 649.714844 601.679688 650.773438 602.265625 651.804688 602.851562 C 654.222656 604.269531 656.625 605.730469 659.066406 607.195312 C 659.292969 607.320312 659.375 607.609375 659.253906 607.820312 C 659.132812 608.070312 658.855469 608.152344 658.628906 608.027344 C 656.007812 606.734375 653.375 605.566406 650.84375 604.1875 C 648.289062 602.808594 645.851562 601.265625 643.488281 599.46875 C 640.824219 597.632812 638.375 595.460938 635.691406 593.664062 C 616.394531 588.945312 596.933594 584.351562 577.546875 579.464844 Z M 540.089844 574.289062 C 541.320312 575.207031 542.492188 576.210938 543.628906 577.210938 C 549.796875 582.722656 554.734375 589.28125 561.230469 595.667969 C 567.652344 602.058594 575.3125 606.777344 582.230469 612.453125 C 585.285156 615.003906 588.199219 617.675781 590.824219 620.804688 C 592.910156 623.269531 594.835938 625.902344 596.679688 628.574219 C 600.875 634.628906 604.652344 641.015625 609.109375 646.863281 C 613.441406 652.542969 618.535156 658.097656 624.054688 663.148438 C 629.5625 668.242188 635.507812 672.792969 641.601562 676.511719 C 648.289062 680.644531 655.003906 683.777344 662 686.03125 C 669.011719 688.285156 676.304688 689.625 684.140625 690.082031 C 684.71875 690.125 690.625 689.957031 694.019531 689.875 C 692.617188 687.285156 689.207031 683.734375 688.535156 683.027344 C 687.003906 681.398438 685.339844 679.933594 683.628906 678.515625 C 679.457031 675.050781 674.957031 672 670.894531 668.410156 C 669.53125 667.15625 668.230469 665.863281 666.964844 664.527344 C 664.089844 661.480469 661.402344 658.304688 658.582031 655.214844 C 654.074219 650.328125 649.839844 645.066406 645.375 640.058594 C 643.488281 637.96875 641.5625 635.882812 639.554688 633.960938 C 636.074219 630.578125 632.3125 627.363281 628.425781 624.3125 C 622.546875 619.679688 616.378906 615.378906 610.425781 611.117188 C 604.285156 606.691406 598.484375 601.972656 592.308594 597.714844 C 589.726562 595.960938 587.070312 594.25 584.289062 592.703125 C 578.164062 589.28125 571.894531 586.398438 565.539062 583.726562 C 565.175781 583.558594 564.808594 583.433594 564.441406 583.265625 C 564.601562 583.390625 564.765625 583.476562 564.925781 583.601562 C 569.882812 586.984375 574.554688 590.824219 578.980469 594.957031 L 580.417969 595.960938 C 582.53125 597.503906 584.648438 598.925781 586.773438 600.386719 C 588.859375 601.765625 590.953125 603.183594 593.230469 604.394531 C 596.722656 606.441406 600.324219 607.652344 603.683594 609.617188 C 605.152344 610.492188 606.566406 611.453125 607.914062 612.664062 C 608.234375 612.914062 608.292969 613.414062 608.039062 613.707031 C 607.789062 614.042969 607.316406 614.082031 606.996094 613.832031 C 605.59375 612.914062 604.152344 612.203125 602.695312 611.621094 C 599.066406 610.117188 595.332031 609.28125 591.582031 607.609375 C 591.320312 607.484375 591.058594 607.359375 590.796875 607.195312 C 592.054688 608.65625 593.296875 610.074219 594.507812 611.535156 C 597.265625 614.835938 599.859375 618.21875 602.464844 621.515625 C 602.921875 622.019531 602.851562 622.851562 602.320312 623.3125 C 601.789062 623.730469 600.988281 623.6875 600.53125 623.144531 C 597.703125 620.054688 594.792969 616.964844 591.90625 613.792969 C 587.648438 609.15625 583.371094 604.480469 578.824219 600.09375 C 576.113281 597.464844 573.324219 594.957031 570.4375 592.578125 C 571.3125 594.414062 572.066406 596.292969 572.941406 598.132812 C 573.101562 598.382812 573.015625 598.714844 572.757812 598.882812 C 572.5 599.050781 572.160156 598.96875 572.007812 598.714844 C 570.492188 596.671875 569.101562 594.625 567.566406 592.621094 C 566.609375 591.367188 565.601562 590.199219 564.414062 589.113281 C 563.105469 587.734375 561.683594 586.566406 560.238281 585.394531 C 559.457031 584.769531 558.660156 584.183594 557.851562 583.601562 C 552.152344 580.09375 546.152344 577.128906 540.089844 574.289062 Z M 441.308594 540.507812 C 440.964844 540.296875 440.617188 540.128906 440.273438 539.921875 C 440.699219 540.714844 441.128906 541.507812 441.558594 542.300781 C 449.347656 557.042969 456.734375 576.667969 460.5 584.8125 C 463.546875 591.449219 467.585938 597.757812 472.03125 603.9375 C 478.734375 613.207031 486.347656 622.058594 492.988281 630.785156 C 497.167969 636.296875 503.46875 645.984375 510.617188 653.335938 C 512.890625 655.632812 515.257812 657.71875 517.648438 659.347656 C 520.320312 661.1875 523.003906 662.480469 525.738281 662.816406 C 526.527344 662.898438 527.054688 662.898438 527.316406 662.5625 C 527.523438 662.273438 527.535156 661.894531 527.515625 661.480469 C 527.421875 659.308594 525.941406 656.34375 525.371094 654.714844 C 523.738281 650.078125 521.484375 645.652344 519.679688 641.058594 C 519.21875 639.890625 518.78125 638.722656 518.394531 637.507812 C 517.738281 635.464844 517.21875 633.375 516.753906 631.289062 C 515.699219 626.484375 514.988281 621.640625 513.761719 616.882812 C 512.433594 611.746094 510.132812 607.359375 507.304688 603.394531 C 502.882812 597.214844 497.195312 591.953125 491.902344 586.0625 C 486.234375 579.757812 481.625 572.410156 476.367188 565.726562 C 474.167969 562.929688 471.878906 560.214844 469.273438 557.792969 C 466.382812 555.078125 463.101562 552.78125 459.644531 550.652344 C 456.582031 548.773438 453.375 547.019531 450.15625 545.308594 C 459.636719 555.621094 468.285156 566.523438 475.742188 577.585938 C 476.21875 578.089844 476.703125 578.589844 477.195312 579.089844 C 479.171875 581.09375 481.304688 582.890625 483.582031 584.476562 C 485.097656 585.519531 486.621094 586.566406 488.324219 587.398438 C 488.824219 587.566406 489.070312 588.152344 488.875 588.652344 C 488.683594 589.152344 488.121094 589.40625 487.617188 589.195312 C 485.664062 588.613281 483.800781 587.859375 482.070312 586.859375 C 481.796875 586.691406 481.53125 586.523438 481.269531 586.355469 C 481.757812 587.234375 482.230469 588.109375 482.695312 588.988281 C 485.816406 595 488.453125 601.265625 491.683594 607.152344 C 492.019531 607.738281 491.816406 608.53125 491.226562 608.863281 C 490.632812 609.199219 489.882812 608.988281 489.546875 608.40625 C 488.789062 607.109375 488.054688 605.816406 487.332031 604.519531 C 487.628906 606.566406 487.773438 608.65625 487.917969 610.785156 C 487.980469 611.285156 487.628906 611.746094 487.128906 611.785156 C 486.632812 611.871094 486.179688 611.496094 486.121094 610.992188 C 485.648438 608.238281 484.96875 605.566406 484.363281 602.890625 C 483.816406 600.429688 483.316406 598.007812 482.605469 595.625 C 481.257812 593.078125 479.894531 590.53125 478.457031 588.027344 C 477.511719 586.355469 476.554688 584.726562 475.523438 583.140625 C 474.449219 581.472656 473.347656 579.800781 472.21875 578.171875 C 469.621094 575.125 467.28125 571.824219 465.054688 568.527344 C 465.324219 569.484375 465.554688 570.445312 465.746094 571.449219 C 465.882812 572.324219 465.921875 573.246094 465.867188 574.121094 C 465.761719 575.917969 465.324219 577.710938 465.382812 579.507812 C 465.398438 580.46875 465.550781 581.386719 465.78125 582.347656 C 466.144531 583.890625 466.664062 585.394531 467.15625 586.773438 C 467.328125 587.148438 467.152344 587.609375 466.761719 587.816406 C 466.371094 587.984375 465.914062 587.777344 465.742188 587.398438 C 465.007812 586.023438 464.21875 584.5625 463.609375 583.058594 C 463.175781 581.972656 462.863281 580.84375 462.695312 579.757812 C 462.402344 577.628906 462.703125 575.5 462.5625 573.371094 C 462.535156 572.910156 462.484375 572.453125 462.398438 572.035156 C 461.847656 568.527344 460.71875 565.308594 459.191406 562.304688 C 457.792969 559.546875 455.765625 557.167969 454.027344 554.496094 C 450.574219 550.445312 446.996094 546.476562 443.324219 542.59375 C 442.652344 541.925781 441.980469 541.214844 441.308594 540.507812 Z M 349.660156 490.0625 C 352.996094 496.453125 355.917969 502.964844 358.414062 509.691406 C 360.804688 516.289062 362.851562 523.011719 364.679688 529.773438 C 366.011719 531.652344 367.421875 533.574219 368.882812 535.410156 C 370.285156 537.207031 371.742188 538.917969 373.210938 540.589844 C 375.484375 543.222656 377.773438 545.726562 380.320312 547.8125 C 380.382812 547.898438 380.433594 547.9375 380.484375 547.980469 C 378.578125 541.507812 376.710938 534.953125 374.421875 528.648438 C 372.554688 523.511719 370.425781 518.5 367.707031 513.824219 C 365.359375 509.730469 362.714844 505.929688 359.882812 502.214844 C 356.660156 498.039062 353.195312 494.03125 349.660156 490.0625 Z M 366.632812 537.332031 C 369.789062 550.070312 372.394531 562.929688 375.472656 575.667969 C 376.628906 578.339844 377.839844 581.054688 379.234375 583.601562 C 381.222656 587.273438 383.574219 590.65625 386.84375 593.246094 C 388.109375 594.332031 389.476562 595.292969 390.875 596.167969 C 394.289062 598.339844 397.90625 600.21875 401.097656 602.726562 C 401.441406 602.976562 401.519531 603.433594 401.273438 603.769531 C 401.027344 604.144531 400.546875 604.230469 400.199219 603.976562 C 396.84375 601.765625 393.078125 600.304688 389.554688 598.425781 C 387.976562 597.546875 386.460938 596.628906 385.027344 595.5 C 382.503906 593.457031 380.449219 590.949219 378.734375 588.234375 C 379.175781 589.78125 379.621094 591.367188 380.089844 592.914062 C 380.710938 595 381.421875 597.128906 382.207031 599.257812 C 384.382812 604.0625 386.742188 608.820312 388.808594 613.667969 C 389.195312 614.585938 389.582031 615.503906 389.949219 616.421875 C 395.769531 627.570312 402.8125 638.386719 409.476562 647.574219 C 409.800781 647.992188 409.707031 648.617188 409.277344 648.953125 C 408.84375 649.242188 408.230469 649.160156 407.90625 648.742188 C 403.179688 642.5625 398.253906 635.671875 393.644531 628.40625 C 394.429688 632.121094 394.871094 635.964844 394.878906 639.890625 C 394.886719 640.183594 394.632812 640.472656 394.3125 640.472656 C 393.984375 640.472656 393.714844 640.222656 393.707031 639.929688 C 393.402344 635.296875 392.382812 630.871094 391.070312 626.570312 C 390.527344 624.773438 389.925781 623.019531 389.28125 621.222656 C 388.5 619.886719 387.734375 618.550781 386.988281 617.214844 C 382.734375 609.492188 379.097656 601.640625 376.597656 593.996094 C 374.550781 587.734375 372.734375 581.386719 371.03125 575.039062 C 370.167969 581.34375 368.84375 587.609375 368.445312 593.832031 C 368.4375 594.207031 368.121094 594.5 367.746094 594.457031 C 367.371094 594.457031 367.074219 594.164062 367.085938 593.789062 C 367.035156 585.644531 368.34375 577.335938 368.566406 569.109375 C 368.601562 567.941406 368.617188 566.8125 368.601562 565.6875 C 366.082031 555.75 363.667969 545.769531 360.910156 535.914062 C 358.617188 527.726562 356.085938 519.628906 353.019531 511.695312 C 351.542969 507.769531 349.890625 503.925781 348.09375 500.125 C 348.546875 503.84375 348.765625 507.601562 348.859375 511.402344 C 349.019531 517.957031 348.832031 524.511719 349.359375 530.695312 C 350.472656 544.015625 351.996094 557.628906 354.660156 570.949219 C 356.425781 579.757812 358.691406 588.445312 361.71875 596.796875 C 366.75 611.035156 373.445312 623.769531 381.28125 635.714844 C 393.183594 653.796875 407.757812 669.996094 423.578125 686.242188 C 428.015625 690.835938 432.527344 695.300781 437.578125 699.0625 C 440.871094 701.484375 444.386719 703.652344 448.265625 705.324219 C 449.4375 705.824219 451.691406 706.703125 453.859375 706.996094 C 454.730469 707.121094 455.585938 707.203125 456.316406 706.996094 C 456.824219 706.910156 457.289062 706.703125 457.511719 706.199219 C 458.195312 704.570312 457.640625 702.066406 456.730469 699.519531 C 455.265625 695.425781 452.695312 691.210938 451.242188 689.207031 C 445.273438 681.019531 439.414062 672.878906 433.824219 664.484375 C 430.089844 658.929688 426.480469 653.253906 423.03125 647.40625 C 420.691406 643.398438 418.71875 639.347656 416.960938 635.171875 C 412.914062 625.566406 409.988281 615.628906 405.898438 605.941406 C 401.285156 594.957031 394.9375 584.8125 389.851562 574.078125 C 388.554688 571.324219 387.339844 568.566406 386.246094 565.726562 C 384.132812 560.214844 382.382812 554.453125 380.671875 548.648438 C 380.660156 548.773438 380.601562 548.941406 380.507812 549.066406 C 380.214844 549.484375 379.65625 549.566406 379.261719 549.277344 C 375.484375 546.726562 371.816406 543.636719 368.710938 539.964844 C 367.992188 539.128906 367.296875 538.210938 366.632812 537.332031 Z M 120.597656 287.148438 C 118.59375 299.140625 113.5625 310.675781 113.34375 322.960938 C 113.152344 331.582031 113.808594 340.253906 113.746094 348.894531 C 113.714844 352.683594 113.542969 356.472656 113.128906 360.242188 C 111.390625 376.160156 108.59375 391.855469 106.933594 407.722656 C 106.234375 414.4375 105.742188 421.164062 105.625 427.96875 C 105.46875 436.695312 105.765625 445.339844 106.265625 453.941406 C 107.453125 474.320312 109.796875 494.53125 110.277344 514.992188 C 110.367188 518.835938 110.398438 522.675781 110.363281 526.558594 C 110.234375 541.84375 109.347656 557.085938 109.566406 572.367188 C 109.632812 577.503906 109.578125 584.058594 111.0625 589.820312 C 111.960938 593.371094 113.429688 596.585938 115.964844 598.925781 C 116.25 598.632812 116.792969 598.089844 117.160156 597.503906 C 118.636719 595.210938 120.199219 591.535156 121.652344 587.398438 C 124.957031 578.003906 127.75 566.480469 128.617188 563.808594 C 132.277344 552.449219 136.183594 541.132812 140.316406 529.898438 C 144.445312 518.710938 148.796875 507.558594 153.253906 496.492188 C 159.160156 481.796875 165.242188 465.96875 168.769531 449.808594 C 171.113281 439.117188 172.328125 428.261719 171.613281 417.570312 C 171.117188 410.625 169.867188 403.964844 168.273438 397.417969 C 165.820312 387.355469 162.554688 377.558594 159.859375 367.332031 C 157.433594 357.726562 155.878906 347.785156 153.308594 338.175781 C 152.226562 334.140625 150.96875 330.164062 149.371094 326.304688 C 148.242188 323.589844 146.875 321.027344 145.386719 318.542969 C 141.769531 312.527344 137.410156 306.972656 133.671875 300.992188 C 130.742188 296.296875 128.1875 291.4375 125.816406 286.492188 C 127.890625 295.964844 129.78125 305.59375 131.585938 315.425781 C 132.183594 316.394531 132.640625 317.441406 133.179688 318.433594 C 134.683594 321.1875 136.191406 323.90625 138.222656 326.402344 C 140.257812 329.070312 142.742188 331.265625 144.9375 333.75 C 145.933594 334.875 146.867188 336.058594 147.695312 337.347656 C 148.125 337.96875 147.964844 338.820312 147.34375 339.246094 C 146.722656 339.675781 145.867188 339.519531 145.441406 338.894531 C 144.898438 338.152344 144.308594 337.460938 143.703125 336.789062 C 141.101562 333.910156 138.082031 331.5 135.597656 328.480469 C 134.789062 327.429688 134.042969 326.355469 133.355469 325.257812 C 133.957031 328.660156 134.550781 332.085938 135.136719 335.535156 C 137.1875 347.605469 140.753906 359.394531 143.632812 371.308594 C 144.875 374.027344 146.148438 376.777344 147.5 379.4375 C 148.492188 381.398438 149.472656 383.335938 150.632812 385.113281 C 151.28125 386.125 152.015625 387.058594 152.792969 387.960938 C 154.722656 390.199219 156.875 392.246094 158.613281 394.660156 C 159.664062 396.128906 160.515625 397.710938 161.265625 399.355469 C 162.347656 401.734375 163.21875 404.222656 164.234375 406.605469 C 164.40625 406.976562 164.238281 407.421875 163.867188 407.585938 C 163.496094 407.757812 163.058594 407.597656 162.886719 407.21875 C 161.757812 404.910156 160.761719 402.488281 159.566406 400.183594 C 158.792969 398.703125 157.933594 397.269531 156.890625 395.960938 C 155.082031 393.675781 152.871094 391.777344 150.894531 389.664062 C 149.996094 388.703125 149.148438 387.703125 148.386719 386.613281 C 147.597656 385.445312 146.851562 384.21875 146.144531 382.960938 C 146.164062 383.039062 146.175781 383.117188 146.1875 383.195312 C 147.457031 390.175781 148.257812 397.242188 148.1875 404.472656 C 148.085938 413.425781 147.445312 422.332031 146.476562 431.183594 C 146.84375 433.316406 147.089844 435.484375 147.507812 437.617188 C 147.816406 439.160156 148.1875 440.664062 148.691406 442.207031 C 150.472656 447.804688 152.957031 452.898438 154.316406 458.285156 C 155.242188 461.960938 155.636719 465.761719 155.136719 469.894531 C 155.101562 470.269531 154.75 470.5625 154.359375 470.519531 C 153.960938 470.480469 153.671875 470.144531 153.707031 469.769531 C 153.929688 465.800781 153.238281 462.292969 152.226562 458.871094 C 150.648438 453.566406 148.203125 448.515625 146.328125 442.960938 C 145.984375 441.875 145.699219 440.746094 145.464844 439.660156 C 144.0625 450.558594 142.316406 461.417969 140.542969 472.234375 C 139.121094 480.917969 137.644531 489.605469 136.503906 498.332031 C 136.433594 498.957031 135.863281 499.417969 135.234375 499.332031 C 134.601562 499.25 134.144531 498.707031 134.214844 498.082031 C 135.007812 489.269531 136.035156 480.5 137.226562 471.730469 C 138.996094 458.660156 141.039062 445.632812 142.359375 432.519531 C 143.089844 425.253906 143.628906 417.949219 143.824219 410.644531 C 143.265625 412.117188 142.621094 413.578125 141.886719 415.03125 C 140.855469 416.988281 139.53125 418.992188 137.953125 420.953125 C 134.617188 425.128906 130.355469 429.097656 127.371094 432.855469 C 125.777344 434.859375 124.464844 437.03125 123.363281 439.328125 C 121.675781 442.835938 120.464844 446.59375 119.292969 450.269531 C 119.203125 450.601562 118.882812 450.769531 118.574219 450.6875 C 118.265625 450.601562 118.089844 450.269531 118.175781 449.976562 C 119.160156 446.132812 120.230469 442.292969 121.703125 438.574219 C 122.710938 436.070312 123.898438 433.648438 125.417969 431.394531 C 127.253906 428.597656 129.597656 425.589844 131.960938 422.542969 C 133.460938 420.621094 134.953125 418.742188 136.28125 416.863281 C 137.160156 415.652344 137.984375 414.460938 138.644531 413.277344 C 140.460938 410.148438 141.773438 406.9375 142.773438 403.621094 C 143.152344 402.347656 143.488281 401.058594 143.789062 399.753906 C 143.515625 394.429688 142.792969 389.191406 141.804688 384.011719 C 139.195312 370.335938 134.773438 357.015625 131.746094 343.421875 C 130.960938 345.148438 130.058594 346.8125 129.554688 348.691406 C 127.363281 356.050781 125.691406 362.234375 123.128906 368.40625 C 121.460938 372.410156 119.429688 376.398438 116.667969 380.703125 C 116.460938 381.050781 116.007812 381.167969 115.664062 380.957031 C 115.3125 380.753906 115.199219 380.304688 115.402344 379.953125 C 117.796875 375.578125 119.484375 371.550781 120.847656 367.546875 C 122.972656 361.304688 124.273438 355.125 125.992188 347.75 C 126.238281 346.753906 126.5625 345.796875 126.949219 344.875 C 127.769531 342.945312 128.847656 341.160156 129.511719 339.148438 C 129.875 338.179688 130.113281 337.152344 130.273438 336.085938 C 127.289062 319.199219 124.164062 302.964844 120.597656 287.148438 Z M 636.085938 575.625 C 635.648438 575.625 635.316406 575.25 635.332031 574.832031 C 635.351562 574.414062 635.714844 574.078125 636.148438 574.078125 L 637.546875 574.164062 C 637.976562 574.164062 638.308594 574.539062 638.292969 574.957031 C 638.273438 575.375 637.910156 575.707031 637.480469 575.707031 Z M 636.085938 575.625 "
                        fill-opacity="1" fill-rule="evenodd" />
                </g>
            </g>
        </g>
    </g>
</svg>