<?xml version="1.0" encoding="UTF-8"?>
<!-- Uploaded to: SVG Find, www.svgrepo.com, Generator: SVG Find Mixer Tools -->
<svg fill="#000000" width="800px" height="800px" version="1.1" viewBox="144 144 512 512"
    xmlns="http://www.w3.org/2000/svg">
    <g>
        <path
            d="m608.47 336.41v0-0.085937c-0.26172-40.043-91.727-71.402-208.47-71.402s-208.21 31.359-208.47 71.402v0.085937 0.085938 0.085938c0.085937 84.777 50.727 160.35 128.99 192.58 9.8164 3.9961 20.324 6.082 31.359 6.082h96.156c11.031 0 21.543-1.9961 31.359-6.082 78.348-32.312 128.99-107.88 129.08-192.66v-0.085938zm-208.47-62.629c119.35 0 199.44 32.312 199.53 62.629v0.085938c0 5.7344-2.9531 11.555-8.4258 17.113-5.8203-23.801-46.473-44.125-109.1-54.117-6.6016-5.6445-15.984-9.207-26.492-9.207-6.9492 0-13.379 1.6523-18.938 4.3438-16.332-1.043-32.836-1.3047-48.902-1.043-6.6016-6.6016-16.766-10.945-28.23-10.945-13.984 0-26.059 6.3398-32.051 15.547-19.98 2.6914-38.48 6.5156-54.812 11.465-0.69531 0-1.3047-0.17188-1.9102-0.17188-12.422 0-23.367 4.9531-29.793 12.422-18.336 9.2109-29.191 20.066-31.973 31.621-5.4727-5.6484-8.4258-11.379-8.4258-17.113v-0.085937c0.085938-30.141 80.176-62.543 199.53-62.543zm-129.34 44.648c14.941 0 27.102 8.6875 27.102 19.371-1.043 1.9961-10.77 5.5586-27.188 5.5586-16.504 0-26.32-3.5625-27.102-5.4727 0.085938-10.684 12.246-19.457 27.188-19.457zm-22.934 31.27c6.082 1.7383 14.246 2.6914 22.934 2.6914 8.5117 0 36.137-1.043 36.137-14.418 0-9.9023-6.5156-18.676-16.332-23.715 10.422-2.5195 21.543-4.6055 33.27-6.3398-0.17188 1.043-0.43359 2.1719-0.43359 3.2148 0 3.7344 2.2578 8.7734 13.117 11.812 6.082 1.7383 14.246 2.6914 22.934 2.6914 8.5117 0 36.137-1.043 36.137-14.418 0-2.9531-0.78125-5.8203-1.8242-8.5117 10.422-0.085938 21.02 0.085937 31.617 0.60937-3.7344 4.5156-5.9922 9.8164-5.9922 15.637 0 3.7344 2.2578 8.7734 13.117 11.812 6.082 1.7383 14.246 2.6914 22.934 2.6914 8.5117 0 36.137-1.043 36.137-14.418 0-3.0391-0.78125-5.9922-1.9102-8.7734 37.613 6.8633 66.625 17.809 81.738 30.316h-4.168c-2.5195 0-4.5156 1.9961-4.5156 4.5156 0 2.5195 1.9961 4.5156 4.5156 4.5156h9.6406c0.86719 0 1.5625-0.26172 2.2578-0.69531 2.4336 3.6484 3.8203 7.2969 3.8203 11.031 0 0.26172 0.085937 0.51953 0.17188 0.78125-29.188 21.109-95.551 38.48-183.02 38.48-87.559 0-153.92-17.371-183.11-38.566 0.085938-0.26172 0.17188-0.51953 0.17188-0.78125 0-7.9922 6.2539-16.242 17.809-23.801-0.085938 0.78125-0.26172 1.4766-0.26172 2.1719-0.003906 3.3867 2.2539 8.4258 13.113 11.465zm138.89-38.738c-1.043 1.9961-10.77 5.5586-27.102 5.5586-16.504 0-26.32-3.5625-27.188-5.4727 0-10.77 12.16-19.457 27.188-19.457 14.855 0 27.016 8.6836 27.102 19.371zm95.984 7.6406c-1.043 1.9961-10.77 5.5586-27.102 5.5586-16.504 0-26.32-3.5625-27.102-5.4727 0-10.77 12.16-19.457 27.102-19.457 14.855 0.003906 27.016 8.6875 27.102 19.371zm-6.6016 202.22c-8.6875 3.5625-18.066 5.3867-27.883 5.3867h-96.246c-9.8164 0-19.195-1.8242-27.883-5.3867-67.926-27.969-113.96-89.988-122.04-161.74 27.016 28.578 104.41 48.73 198.05 48.73s171.04-20.152 198.05-48.73c-8.082 71.664-54.117 133.77-122.05 161.74z" />
        <path
            d="m349.79 386.27c6.082 1.7383 14.246 2.6914 22.934 2.6914 8.5117 0 36.137-1.043 36.137-14.418 0-15.637-16.156-28.406-36.137-28.406-19.98 0-36.137 12.77-36.137 28.406 0.085937 3.6484 2.3438 8.6875 13.203 11.727zm22.93-31.27c14.941 0 27.102 8.6875 27.102 19.371-1.043 1.9961-10.77 5.5586-27.102 5.5586-16.504 0-26.32-3.5625-27.102-5.4727 0-10.684 12.16-19.457 27.102-19.457z" />
        <path
            d="m492.51 374.11c6.082 1.7383 14.246 2.6914 22.934 2.6914 8.5117 0 36.137-1.043 36.137-14.418 0-15.637-16.156-28.406-36.137-28.406-19.98 0-36.137 12.77-36.137 28.406 0.085937 3.6484 2.3477 8.6875 13.203 11.727zm22.934-31.184c14.941 0 27.102 8.6875 27.102 19.371-1.043 1.9961-10.77 5.5586-27.102 5.5586-16.504 0-26.32-3.5625-27.102-5.4727 0-10.77 12.16-19.457 27.102-19.457z" />
        <path
            d="m471.14 388.97h9.6406c2.5195 0 4.5156-1.9961 4.5156-4.5156s-1.9961-4.5156-4.5156-4.5156h-9.6406c-2.5195 0-4.5156 1.9961-4.5156 4.5156-0.003906 2.5156 2.082 4.5156 4.5156 4.5156z" />
        <path
            d="m435.18 363.95h9.6406c2.5195 0 4.5156-1.9961 4.5156-4.5156 0-2.5195-1.9961-4.5156-4.5156-4.5156h-9.6406c-2.5195 0-4.5156 1.9961-4.5156 4.5156-0.003906 2.5195 2.082 4.5156 4.5156 4.5156z" />
        <path
            d="m292.72 374.38h9.6406c2.5195 0 4.5156-1.9961 4.5156-4.5156s-1.9961-4.5156-4.5156-4.5156h-9.6406c-2.5195 0-4.5156 1.9961-4.5156 4.5156-0.003906 2.5156 1.9961 4.5156 4.5156 4.5156z" />
        <path
            d="m327.82 346.23h9.6406c2.5195 0 4.5156-1.9961 4.5156-4.5156 0-2.5195-1.9961-4.5156-4.5156-4.5156h-9.6406c-2.5195 0-4.5156 1.9961-4.5156 4.5156 0.082031 2.5156 2.082 4.5156 4.5156 4.5156z" />
    </g>
</svg>